<svg width="32" height="27" viewBox="0 0 32 27" fill="none" xmlns="http://www.w3.org/2000/svg">
<path d="M17.6149 4.83115C18.3834 4.95422 19.0348 5.34145 19.476 5.94181C19.8753 6.48213 20.0674 7.16954 20.0043 7.83593C19.9173 8.76649 19.2959 9.82011 18.0262 11.1889C17.6299 11.6122 17.3838 11.7292 17.0626 11.6452C16.8585 11.5912 16.7414 11.4981 16.3392 11.0568C15.3005 9.91917 14.6972 8.9556 14.5231 8.15112C14.457 7.86295 14.46 7.31362 14.5261 7.00744C14.6462 6.4311 14.9794 5.86977 15.4176 5.49754C15.7778 5.18836 16.2191 4.96323 16.6393 4.87317C16.9005 4.81914 17.3928 4.79813 17.6149 4.83115ZM16.9275 6.31703C16.6754 6.38307 16.4862 6.49714 16.2971 6.69526C15.8108 7.20556 15.8078 7.953 16.2881 8.47832C16.8885 9.13571 18.0052 8.97961 18.3984 8.18414C18.6595 7.65283 18.5845 7.1095 18.1883 6.69526C17.8461 6.33504 17.3868 6.19696 16.9275 6.31703Z" fill="#3E3E3E"/>
<path d="M5.68616 11.1109C7.16603 11.2489 8.53485 12.0444 9.42338 13.2811C9.66052 13.6083 10.0057 14.2897 10.1288 14.671C10.402 15.5205 10.456 16.475 10.2789 17.3396C10.0417 18.4892 9.25528 19.9271 8.01254 21.476C7.31012 22.3525 6.23548 23.5202 5.96832 23.6973C5.45202 24.0395 4.77662 24.0155 4.30534 23.6343C4.00816 23.3942 2.95153 22.2325 2.36318 21.497C1.07241 19.8911 0.312963 18.4922 0.0668163 17.2795C0.00678062 16.9883 -0.00222492 16.8563 0.000777245 16.2679C0.000777245 15.6856 0.00978279 15.5505 0.0698185 15.2773C0.421027 13.6293 1.44764 12.3116 2.93352 11.6001C3.51887 11.318 4.08621 11.1649 4.7556 11.1048C5.14583 11.0718 5.28392 11.0718 5.68616 11.1109ZM4.71958 13.8785C4.2483 13.9685 3.85507 14.1727 3.50086 14.5089C2.32716 15.6195 2.50126 17.4746 3.86407 18.3692C4.11922 18.5373 4.46443 18.6633 4.82164 18.7204C5.90529 18.8975 7.01895 18.2641 7.4512 17.2255C8.03655 15.8116 7.18705 14.2147 5.67115 13.8815C5.431 13.8275 4.98974 13.8275 4.71958 13.8785Z" fill="#3E3E3E"/>
<path d="M17.243 12.1585C17.3361 12.1975 17.3631 12.2365 17.3631 12.3566C17.3631 12.5157 17.273 12.5577 16.7117 12.6628C15.0757 12.972 14.3733 13.1431 13.7549 13.3832C13.1666 13.6143 12.7974 13.8905 12.6443 14.2117C12.5752 14.3588 12.5602 14.4308 12.5602 14.6169C12.5602 14.9922 12.7163 15.2473 13.0975 15.5025C13.7639 15.9437 14.8746 16.2289 17.0029 16.5081C18.4617 16.7002 20.0196 16.9913 20.9352 17.2435C23.3186 17.9009 24.4773 18.9035 24.4773 20.3113C24.4773 20.6565 24.4383 20.8456 24.3062 21.1308C23.7359 22.3795 21.6436 23.4602 18.0535 24.3577C15.4029 25.0211 12.6773 25.4654 7.72734 26.0387C6.21745 26.2128 5.95029 26.2308 5.68613 26.1588C5.28089 26.0507 5.05276 25.6965 5.1278 25.2943C5.17283 25.0481 5.53004 24.79 5.95929 24.6909C6.06736 24.6639 7.06995 24.5438 8.18962 24.4178C13.7399 23.8024 16.9338 23.2891 19.5214 22.5987C21.6496 22.0283 22.8323 21.419 23.1655 20.7196C23.2526 20.5365 23.2616 20.4884 23.2616 20.2453C23.2586 19.3838 22.6162 18.7384 21.2654 18.2401C20.4309 17.9309 18.885 17.5977 16.9128 17.3035C15.3068 17.0634 14.4093 16.8623 13.6258 16.5681C12.2931 16.0698 11.6537 15.3344 11.7767 14.4518C11.9118 13.4913 12.7733 12.9329 14.7365 12.5307C15.1267 12.4496 17.1349 12.1164 17.1619 12.1285C17.165 12.1285 17.201 12.1435 17.243 12.1585Z" fill="#3E3E3E"/>
<path d="M31.0002 5.22061H22.4702" stroke="#3E3E3E" stroke-width="1.5" stroke-linecap="round" stroke-linejoin="round"/>
<path d="M26.7351 9.48558V0.955566" stroke="#3E3E3E" stroke-width="1.5" stroke-linecap="round" stroke-linejoin="round"/>
</svg>
