<svg width="18" height="18" viewBox="0 0 18 18" fill="none" xmlns="http://www.w3.org/2000/svg">
<path d="M15.6989 17.6939C16.0822 18.0916 16.7152 18.1033 17.1129 17.7201C17.5106 17.3368 17.5223 16.7038 17.1391 16.3061L15.6989 17.6939ZM13.2843 12.3061C12.9011 11.9084 12.268 11.8967 11.8703 12.2799C11.4727 12.6632 11.4609 13.2962 11.8442 13.6939L13.2843 12.3061ZM17.1391 16.3061L13.2843 12.3061L11.8442 13.6939L15.6989 17.6939L17.1391 16.3061ZM13.4916 8C13.4916 11.3489 10.8846 14 7.74581 14V16C12.0582 16 15.4916 12.3831 15.4916 8H13.4916ZM7.74581 14C4.60703 14 2 11.3489 2 8H0C0 12.3831 3.43338 16 7.74581 16V14ZM2 8C2 4.65111 4.60703 2 7.74581 2V0C3.43338 0 0 3.61691 0 8H2ZM7.74581 2C10.8846 2 13.4916 4.65111 13.4916 8H15.4916C15.4916 3.61691 12.0582 0 7.74581 0V2Z" fill="#A91916"/>
</svg>
