<svg width="71" height="72" viewBox="0 0 71 72" fill="none" xmlns="http://www.w3.org/2000/svg">
<path d="M52.9122 53.6906C62.6525 43.9503 62.6525 28.1581 52.9122 18.4178C43.1718 8.67747 27.3797 8.67747 17.6393 18.4178C7.89902 28.1581 7.89902 43.9503 17.6393 53.6906C27.3797 63.4309 43.1718 63.4309 52.9122 53.6906Z" fill="#FFD05D"/>
<path d="M48.3222 14.7685C50.8064 18.6456 52.246 23.257 52.246 28.202C52.246 41.975 41.0802 53.1437 27.3044 53.1437C22.5203 53.1437 18.0522 51.7948 14.2571 49.4598C18.6901 56.3799 26.4471 60.965 35.275 60.965C49.0479 60.965 60.2166 49.7992 60.2166 36.0234C60.2166 27.0316 55.4588 19.1547 48.3251 14.7656L48.3222 14.7685Z" fill="#FDC453"/>
<path d="M13.7217 38.6863C13.7217 25.8965 24.0887 15.5295 36.8784 15.5295C44.3545 15.5295 50.9995 19.073 55.2335 24.571C51.2336 17.6304 43.74 12.9575 35.155 12.9575C22.3652 12.9575 11.9982 23.3245 11.9982 36.1143C11.9982 41.428 13.789 46.3233 16.7999 50.2295C14.8424 46.8324 13.7217 42.891 13.7217 38.6892V38.6863Z" fill="#FFD77F"/>
<path d="M27.9218 30.0044C27.9218 31.7162 27.0996 33.1031 26.0842 33.1031C25.0689 33.1031 24.2467 31.7162 24.2467 30.0044C24.2467 28.2927 25.0689 26.9058 26.0842 26.9058C27.0996 26.9058 27.9218 28.2927 27.9218 30.0044Z" fill="#303030"/>
<path d="M46.3003 30.0044C46.3003 31.7162 45.4781 33.1031 44.4628 33.1031C43.4474 33.1031 42.6252 31.7162 42.6252 30.0044C42.6252 28.2927 43.4474 26.9058 44.4628 26.9058C45.4781 26.9058 46.3003 28.2927 46.3003 30.0044Z" fill="#303030"/>
<path d="M35.2749 50.6856C37.762 50.6856 39.7781 47.2677 39.7781 43.0515C39.7781 38.8354 37.762 35.4175 35.2749 35.4175C32.7879 35.4175 30.7718 38.8354 30.7718 43.0515C30.7718 47.2677 32.7879 50.6856 35.2749 50.6856Z" fill="#695342"/>
<path d="M39.0759 47.1452C35.7899 45.3398 33.1155 46.3639 31.5676 47.388C32.3811 49.3807 33.7358 50.6886 35.2749 50.6886C36.814 50.6886 38.2771 49.2753 39.0759 47.1452Z" fill="#F06669"/>
</svg>
