<?xml version="1.0" standalone="no"?>
<!DOCTYPE svg PUBLIC "-//W3C//DTD SVG 20010904//EN"
 "http://www.w3.org/TR/2001/REC-SVG-20010904/DTD/svg10.dtd">
<svg version="1.0" xmlns="http://www.w3.org/2000/svg"
 width="1024.000000pt" height="1024.000000pt" viewBox="0 0 1024.000000 1024.000000"
 preserveAspectRatio="xMidYMid meet">

<g transform="translate(0.000000,1024.000000) scale(0.100000,-0.100000)"
fill="#000000" stroke="none">
<path d="M8326 7954 c-382 -69 -710 -322 -875 -675 -215 -457 -114 -1003 250
-1354 52 -50 122 -110 156 -133 133 -90 305 -162 463 -193 99 -20 348 -17 448
5 585 125 985 637 958 1226 -25 562 -435 1028 -990 1125 -109 19 -303 18 -410
-1z m-229 -534 c15 -6 121 -104 235 -218 l208 -207 212 212 c231 229 245 239
322 213 42 -14 92 -67 101 -109 15 -69 3 -86 -218 -308 l-211 -213 211 -212
c178 -180 212 -219 218 -250 19 -100 -73 -192 -173 -173 -31 6 -70 40 -249
218 l-213 211 -212 -211 c-180 -178 -219 -212 -250 -218 -100 -19 -192 73
-173 173 6 31 40 70 218 250 l212 212 -207 208 c-197 197 -228 236 -228 284 0
45 40 106 83 127 47 24 73 26 114 11z"/>
<path d="M4265 7910 c-1163 -95 -2202 -517 -3080 -1250 -247 -207 -581 -543
-642 -647 -79 -136 -5 -327 146 -378 64 -21 150 -16 202 10 18 10 146 131 284
270 137 139 295 289 350 334 808 664 1714 1035 2740 1122 177 15 599 15 770
-1 627 -55 1198 -211 1734 -475 95 -47 174 -85 175 -85 2 0 6 44 9 98 6 114
27 221 69 350 16 52 28 96 26 98 -11 10 -258 123 -378 171 -462 187 -956 310
-1485 369 -166 18 -755 27 -920 14z"/>
<path d="M4480 6329 c-1020 -39 -2014 -516 -2689 -1290 -103 -119 -121 -155
-121 -244 0 -113 53 -194 159 -243 45 -21 64 -24 121 -20 94 7 139 36 243 156
376 432 898 774 1448 951 591 190 1202 210 1803 59 493 -123 952 -362 1338
-695 76 -65 237 -226 363 -362 87 -94 188 -123 300 -84 69 23 139 95 159 164
45 151 6 221 -283 509 -549 547 -1233 904 -2001 1044 -264 48 -540 66 -840 55z"/>
<path d="M4390 4819 c-409 -46 -804 -208 -1155 -472 -103 -78 -334 -310 -408
-409 -73 -98 -89 -138 -89 -214 -1 -158 124 -273 286 -262 90 5 140 38 229
151 268 336 633 564 1040 648 456 94 938 -1 1328 -260 170 -113 281 -217 442
-414 108 -133 294 -144 405 -23 54 58 75 119 70 198 -2 35 -12 79 -21 98 -43
88 -250 313 -411 448 -131 109 -279 204 -451 288 -240 117 -461 184 -728 219
-127 16 -408 18 -537 4z"/>
<path d="M4450 3545 c-157 -31 -317 -106 -447 -210 -131 -103 -169 -171 -161
-285 7 -102 26 -125 351 -442 166 -162 318 -303 337 -313 19 -10 65 -20 101
-23 117 -8 135 5 471 333 169 166 304 306 320 333 37 62 45 134 23 208 -15 52
-27 69 -99 139 -132 129 -302 217 -491 256 -106 22 -305 24 -405 4z"/>
</g>
</svg>
