<?xml version="1.0" standalone="no"?>
<!DOCTYPE svg PUBLIC "-//W3C//DTD SVG 20010904//EN"
 "http://www.w3.org/TR/2001/REC-SVG-20010904/DTD/svg10.dtd">
<svg version="1.0" xmlns="http://www.w3.org/2000/svg"
 width="3000.000000pt" height="3000.000000pt" viewBox="0 0 3000.000000 3000.000000"
 preserveAspectRatio="xMidYMid meet">

<g transform="translate(0.000000,3000.000000) scale(0.100000,-0.100000)"
fill="#000000" stroke="none">
<path d="M27916 29979 c-88 -7 -124 -13 -138 -25 -10 -10 -37 -19 -60 -21 -24
-3 -47 -8 -53 -12 -5 -5 -34 -11 -62 -15 -29 -4 -82 -22 -119 -41 -36 -19 -82
-37 -101 -41 -19 -4 -64 -22 -100 -40 -35 -19 -77 -34 -92 -34 -15 0 -36 -9
-46 -19 -9 -11 -55 -39 -100 -61 -46 -23 -89 -47 -95 -55 -6 -7 -23 -16 -38
-20 -15 -3 -36 -15 -47 -25 -22 -20 -77 -54 -115 -71 -14 -6 -34 -16 -45 -22
-11 -6 -48 -25 -83 -43 -35 -18 -78 -44 -95 -57 -18 -13 -61 -39 -97 -57 -90
-44 -120 -61 -160 -91 -19 -14 -65 -40 -102 -58 -36 -17 -72 -38 -78 -46 -7
-8 -20 -15 -29 -15 -10 0 -33 -12 -52 -26 -19 -14 -47 -33 -64 -41 -64 -30
-184 -99 -216 -124 -19 -14 -59 -36 -89 -49 -30 -13 -64 -32 -76 -42 -11 -10
-26 -18 -34 -18 -7 0 -29 -12 -49 -27 -34 -27 -134 -83 -211 -119 -19 -9 -48
-26 -65 -39 -16 -12 -55 -36 -86 -52 -31 -17 -72 -42 -90 -56 -19 -14 -51 -30
-72 -35 -20 -6 -51 -22 -69 -37 -17 -15 -63 -42 -102 -61 -79 -39 -87 -44
-170 -96 -32 -21 -63 -38 -68 -38 -5 0 -26 -14 -47 -30 -21 -17 -55 -36 -77
-41 -21 -6 -52 -22 -68 -36 -15 -13 -42 -30 -60 -39 -17 -8 -56 -28 -86 -44
-30 -17 -59 -30 -65 -30 -6 0 -22 -11 -35 -25 -13 -14 -60 -43 -104 -66 -115
-58 -141 -73 -178 -101 -18 -14 -44 -29 -58 -33 -14 -4 -31 -12 -38 -18 -15
-12 -66 -41 -111 -62 -19 -9 -49 -27 -65 -40 -17 -13 -42 -28 -56 -34 -28 -12
-43 -21 -115 -67 -27 -18 -61 -38 -75 -44 -14 -6 -43 -21 -65 -34 -22 -13 -69
-38 -105 -56 -36 -18 -79 -43 -96 -56 -35 -27 -121 -74 -134 -74 -6 0 -30 -16
-55 -35 -25 -19 -61 -38 -80 -44 -19 -5 -52 -23 -72 -40 -21 -17 -41 -31 -46
-31 -4 0 -39 -18 -78 -40 -39 -22 -76 -40 -83 -40 -7 0 -23 -11 -35 -24 -13
-14 -46 -36 -75 -49 -28 -14 -62 -34 -75 -46 -13 -11 -39 -25 -57 -30 -18 -5
-48 -20 -66 -34 -18 -13 -63 -38 -100 -56 -36 -17 -72 -38 -78 -46 -7 -8 -20
-15 -30 -15 -9 0 -37 -15 -61 -32 -24 -18 -66 -44 -94 -58 -27 -14 -63 -36
-80 -49 -16 -13 -48 -32 -70 -42 -22 -10 -47 -23 -55 -27 -17 -10 -32 -18
-109 -62 -30 -16 -59 -30 -64 -30 -5 0 -23 -11 -39 -26 -33 -27 -120 -74 -139
-74 -6 0 -31 -17 -55 -39 -27 -23 -58 -41 -80 -44 -20 -4 -46 -15 -58 -26 -22
-21 -87 -60 -143 -86 -29 -13 -52 -28 -155 -97 -15 -10 -32 -18 -39 -18 -6 0
-28 -14 -49 -30 -21 -17 -53 -37 -72 -45 -18 -9 -41 -20 -50 -25 -10 -6 -26
-14 -35 -20 -44 -24 -121 -60 -130 -60 -6 0 -24 -14 -42 -31 -18 -16 -51 -39
-74 -49 -23 -11 -50 -24 -59 -30 -45 -26 -54 -31 -75 -39 -12 -6 -42 -26 -68
-45 -26 -20 -54 -36 -64 -36 -10 0 -26 -9 -36 -20 -10 -11 -25 -20 -32 -20 -8
0 -26 -9 -40 -20 -14 -11 -33 -20 -41 -20 -9 0 -25 -9 -37 -20 -23 -22 -80
-55 -175 -101 -36 -17 -83 -47 -104 -65 -22 -19 -46 -34 -54 -34 -7 0 -44 -18
-81 -40 -37 -22 -71 -40 -75 -40 -4 0 -24 -13 -44 -29 -20 -16 -48 -32 -62
-36 -14 -4 -30 -11 -36 -16 -6 -5 -37 -23 -70 -40 -32 -17 -75 -44 -94 -58
-19 -15 -84 -51 -143 -81 -59 -29 -110 -57 -113 -61 -3 -5 -12 -9 -21 -9 -8 0
-33 -15 -55 -34 -22 -19 -52 -37 -66 -41 -15 -4 -32 -11 -38 -16 -6 -5 -37
-23 -70 -40 -32 -17 -68 -39 -79 -49 -11 -10 -40 -27 -65 -38 -25 -11 -52 -27
-59 -36 -18 -21 -64 -46 -87 -46 -9 0 -37 -15 -63 -34 -45 -32 -80 -53 -131
-77 -14 -6 -32 -15 -40 -20 -8 -5 -26 -14 -40 -20 -14 -6 -34 -19 -45 -29 -20
-18 -118 -74 -210 -119 -27 -13 -56 -30 -64 -39 -8 -8 -33 -23 -55 -33 -42
-19 -61 -30 -108 -61 -15 -10 -33 -18 -39 -18 -7 0 -31 -16 -55 -35 -23 -19
-47 -35 -54 -35 -6 0 -46 -20 -89 -45 -43 -25 -83 -45 -88 -45 -6 0 -16 -7
-23 -15 -7 -8 -20 -15 -30 -15 -10 0 -37 -16 -60 -35 -23 -19 -48 -35 -55 -35
-7 0 -24 -9 -38 -20 -14 -11 -31 -20 -38 -20 -6 0 -31 -16 -55 -35 -23 -19
-48 -35 -54 -35 -7 0 -23 -9 -37 -20 -14 -11 -32 -20 -39 -20 -7 0 -29 -14
-48 -30 -19 -17 -55 -37 -80 -44 -25 -8 -62 -27 -83 -43 -21 -16 -49 -34 -63
-41 -14 -6 -32 -16 -40 -20 -8 -5 -37 -20 -65 -33 -27 -13 -68 -39 -89 -56
-22 -18 -47 -33 -56 -33 -8 0 -32 -14 -53 -31 -20 -17 -54 -35 -75 -41 -20 -6
-53 -23 -72 -38 -19 -15 -51 -35 -70 -44 -34 -15 -42 -19 -85 -45 -11 -6 -38
-20 -60 -30 -22 -10 -46 -26 -54 -34 -14 -18 -127 -77 -145 -77 -7 0 -19 -9
-29 -20 -9 -11 -23 -20 -30 -20 -8 0 -33 -14 -57 -31 -23 -17 -86 -53 -139
-80 -53 -28 -113 -63 -133 -79 -20 -17 -40 -30 -44 -30 -18 0 -111 -51 -128
-69 -11 -12 -41 -28 -68 -36 -27 -8 -67 -30 -90 -50 -23 -19 -50 -35 -59 -35
-10 0 -20 -4 -23 -9 -3 -4 -36 -23 -73 -42 -37 -19 -87 -49 -111 -66 -24 -18
-50 -33 -57 -33 -7 0 -32 -16 -55 -35 -23 -19 -53 -35 -67 -35 -13 0 -43 -15
-66 -33 -23 -18 -82 -53 -132 -78 -49 -24 -109 -59 -132 -76 -23 -18 -54 -35
-67 -39 -14 -3 -30 -12 -37 -20 -6 -8 -17 -14 -24 -14 -7 0 -24 -9 -38 -20
-14 -11 -32 -20 -40 -20 -8 0 -34 -15 -58 -34 -25 -18 -69 -46 -99 -61 -30
-14 -62 -31 -70 -36 -8 -5 -26 -14 -40 -21 -14 -6 -34 -20 -45 -30 -12 -10
-54 -34 -95 -54 -41 -20 -84 -44 -95 -54 -11 -10 -65 -42 -120 -70 -55 -29
-111 -60 -125 -68 -44 -28 -111 -62 -121 -62 -6 0 -30 -16 -53 -35 -24 -19
-47 -35 -53 -35 -5 0 -29 -13 -54 -28 -24 -15 -60 -34 -79 -42 -19 -7 -53 -28
-76 -46 -23 -18 -53 -36 -68 -40 -14 -3 -28 -10 -31 -14 -3 -4 -39 -25 -80
-45 -41 -21 -75 -41 -75 -46 0 -4 -24 -19 -54 -33 -30 -14 -58 -31 -61 -36 -3
-6 -14 -10 -24 -10 -10 0 -26 -9 -36 -20 -10 -11 -26 -20 -35 -20 -10 0 -40
-18 -68 -40 -27 -22 -57 -40 -65 -40 -8 0 -20 -7 -27 -15 -7 -8 -20 -15 -29
-15 -9 -1 -34 -14 -56 -30 -22 -16 -51 -34 -65 -40 -14 -6 -32 -17 -40 -24 -8
-6 -40 -23 -70 -36 -30 -14 -73 -39 -94 -57 -22 -18 -48 -33 -57 -33 -10 0
-21 -5 -25 -11 -3 -6 -25 -19 -48 -30 -45 -20 -60 -30 -121 -70 -22 -15 -56
-34 -75 -43 -69 -32 -185 -98 -205 -116 -11 -10 -38 -23 -60 -29 -22 -6 -58
-26 -80 -46 -22 -19 -46 -35 -54 -35 -7 0 -35 -15 -61 -34 -26 -18 -62 -37
-81 -41 -19 -4 -52 -23 -73 -41 -22 -19 -47 -34 -56 -34 -10 0 -29 -9 -43 -20
-14 -11 -27 -20 -30 -20 -3 0 -28 -16 -57 -35 -29 -19 -58 -35 -65 -35 -7 0
-18 -7 -25 -15 -7 -8 -42 -29 -79 -46 -36 -17 -75 -39 -86 -49 -11 -10 -69
-44 -130 -75 -60 -31 -117 -63 -126 -71 -18 -16 -77 -49 -169 -96 -36 -17 -83
-47 -106 -65 -23 -18 -46 -33 -52 -33 -12 0 -88 -39 -122 -63 -13 -9 -27 -14
-32 -11 -4 3 -24 -10 -43 -30 -20 -19 -48 -37 -62 -40 -14 -4 -37 -15 -52 -24
-42 -29 -64 -41 -99 -57 -18 -8 -50 -28 -70 -45 -20 -16 -44 -30 -54 -30 -9 0
-20 -4 -23 -10 -3 -5 -38 -26 -78 -45 -99 -50 -151 -79 -183 -104 -15 -12 -32
-21 -40 -21 -7 0 -26 -11 -42 -25 -17 -14 -34 -25 -38 -25 -15 0 -107 -50
-129 -69 -11 -10 -31 -22 -45 -26 -14 -4 -34 -15 -45 -25 -11 -10 -49 -32 -85
-49 -36 -17 -92 -49 -125 -71 -33 -22 -89 -54 -125 -72 -36 -17 -81 -44 -100
-59 -19 -15 -46 -30 -60 -34 -13 -4 -36 -15 -50 -24 -43 -29 -64 -41 -90 -52
-14 -6 -39 -21 -56 -34 -16 -13 -46 -30 -65 -39 -34 -16 -53 -26 -99 -57 -14
-9 -37 -20 -50 -24 -14 -4 -34 -15 -45 -25 -22 -20 -74 -50 -175 -100 -36 -18
-81 -45 -100 -60 -19 -14 -75 -46 -125 -70 -49 -23 -109 -57 -135 -74 -68 -46
-81 -55 -126 -75 -23 -11 -45 -24 -48 -30 -4 -6 -15 -11 -25 -11 -10 0 -24 -6
-30 -14 -7 -8 -24 -17 -38 -21 -15 -3 -40 -17 -56 -31 -16 -14 -46 -34 -66
-45 -20 -10 -43 -23 -51 -28 -8 -4 -37 -19 -65 -32 -27 -13 -66 -36 -87 -52
-20 -15 -51 -34 -70 -42 -35 -16 -57 -29 -100 -57 -15 -10 -32 -18 -38 -18 -5
0 -32 -16 -59 -35 -26 -19 -55 -35 -63 -35 -9 0 -21 -7 -28 -15 -7 -8 -46 -31
-87 -51 -41 -19 -83 -44 -92 -53 -10 -10 -53 -36 -96 -57 -117 -59 -127 -65
-166 -95 -20 -16 -41 -29 -46 -29 -4 0 -33 -13 -63 -30 -30 -16 -73 -38 -95
-49 -22 -10 -51 -30 -64 -45 -14 -14 -30 -26 -37 -26 -18 0 -94 -41 -137 -74
-19 -15 -53 -32 -74 -38 -21 -5 -47 -18 -58 -29 -23 -20 -75 -51 -175 -100
-36 -18 -82 -48 -103 -66 -20 -18 -47 -33 -58 -33 -12 0 -37 -13 -55 -30 -19
-16 -53 -34 -76 -40 -24 -7 -54 -22 -68 -35 -14 -13 -41 -31 -60 -40 -42 -19
-89 -45 -124 -68 -14 -10 -30 -17 -37 -17 -6 0 -28 -13 -48 -29 -36 -28 -67
-47 -128 -75 -17 -9 -34 -20 -37 -25 -3 -5 -18 -12 -33 -16 -15 -3 -43 -19
-62 -34 -20 -16 -65 -43 -101 -61 -119 -59 -148 -75 -168 -93 -10 -10 -48 -32
-83 -50 -36 -18 -78 -42 -93 -55 -16 -12 -47 -27 -70 -34 -22 -7 -59 -26 -81
-43 -22 -17 -71 -46 -108 -65 -37 -18 -70 -37 -73 -42 -3 -4 -12 -8 -21 -8 -8
0 -33 -15 -55 -34 -22 -19 -51 -37 -64 -40 -13 -4 -45 -22 -70 -41 -25 -19
-56 -35 -69 -35 -14 0 -39 -13 -57 -29 -18 -16 -49 -36 -68 -45 -87 -41 -182
-95 -203 -114 -12 -12 -38 -28 -57 -37 -19 -8 -42 -19 -50 -24 -34 -19 -67
-36 -95 -49 -16 -8 -43 -25 -60 -36 -40 -29 -131 -76 -147 -76 -7 0 -19 -9
-26 -20 -7 -11 -20 -20 -29 -20 -9 0 -32 -12 -51 -27 -34 -27 -85 -56 -147
-86 -16 -8 -36 -21 -44 -31 -7 -9 -50 -35 -95 -57 -151 -75 -223 -114 -257
-140 -19 -15 -63 -40 -99 -57 -36 -16 -76 -42 -89 -55 -13 -15 -40 -28 -63
-32 -21 -4 -51 -18 -66 -32 -14 -13 -58 -40 -97 -59 -113 -57 -150 -77 -188
-106 -20 -16 -40 -28 -46 -28 -12 0 -82 -60 -198 -171 -45 -43 -92 -83 -103
-89 -29 -16 -200 -192 -200 -207 0 -6 -16 -30 -35 -53 -19 -23 -35 -47 -35
-54 0 -7 -16 -31 -35 -53 -19 -23 -35 -45 -35 -50 0 -5 -15 -27 -34 -49 -18
-21 -47 -68 -65 -104 -17 -36 -35 -72 -40 -80 -20 -33 -51 -120 -51 -144 0
-14 -4 -27 -9 -30 -14 -9 -61 -112 -61 -135 0 -12 -9 -39 -20 -61 -14 -28 -20
-59 -20 -106 0 -48 -5 -73 -16 -85 -13 -15 -16 -51 -17 -226 -2 -184 0 -211
15 -233 10 -13 18 -37 18 -53 0 -15 7 -42 16 -59 10 -19 19 -68 22 -117 4 -80
9 -94 58 -190 30 -57 54 -108 54 -114 0 -6 6 -18 14 -26 17 -19 61 -96 111
-196 26 -51 65 -101 145 -185 61 -63 110 -120 110 -127 0 -7 11 -18 24 -25 14
-7 35 -29 48 -48 13 -19 38 -44 56 -55 18 -11 51 -35 73 -52 23 -18 47 -33 54
-33 7 0 37 -18 66 -40 30 -22 57 -40 62 -40 5 0 27 -16 50 -35 22 -19 50 -35
62 -35 21 0 96 -47 110 -69 3 -6 14 -11 24 -11 10 0 48 -16 85 -35 37 -19 75
-35 84 -35 10 0 34 -9 55 -20 20 -11 42 -20 48 -20 6 0 22 -9 36 -20 14 -11
36 -20 48 -20 26 0 130 -44 139 -59 3 -5 25 -12 49 -16 23 -4 60 -20 81 -36
22 -16 49 -29 61 -29 11 0 37 -9 58 -20 20 -11 42 -20 48 -20 6 0 22 -9 36
-20 14 -11 34 -20 45 -20 11 0 40 -9 66 -19 26 -11 54 -22 62 -25 8 -3 38 -19
65 -35 28 -16 66 -32 85 -36 36 -7 52 -14 127 -53 23 -12 53 -22 66 -22 13 0
32 -7 43 -15 32 -25 105 -55 133 -55 15 0 49 -17 80 -40 31 -24 64 -40 80 -40
15 0 36 -7 47 -15 10 -8 26 -15 35 -15 9 0 28 -9 42 -20 14 -11 38 -20 55 -20
16 0 41 -9 55 -20 14 -11 31 -20 39 -20 7 0 27 -9 43 -20 17 -11 44 -20 61
-20 17 0 37 -6 43 -14 7 -8 25 -18 41 -21 16 -3 34 -13 40 -20 6 -8 31 -17 55
-21 25 -3 50 -12 56 -20 6 -8 18 -14 27 -14 8 0 23 -7 33 -16 10 -9 38 -19 63
-21 32 -4 57 -15 85 -39 23 -20 50 -34 66 -34 15 0 39 -7 53 -15 15 -8 38 -20
52 -25 14 -6 36 -17 50 -25 14 -8 37 -15 51 -15 15 0 32 -7 39 -15 7 -8 20
-15 29 -15 9 0 30 -9 46 -20 17 -11 42 -20 57 -20 14 0 58 -18 97 -40 39 -22
80 -40 92 -40 11 0 33 -6 47 -13 15 -8 50 -24 77 -37 28 -13 66 -32 86 -42 20
-10 44 -18 53 -18 9 0 33 -9 53 -20 21 -11 45 -20 55 -20 9 0 19 -4 22 -9 8
-12 105 -57 141 -66 17 -3 62 -22 102 -41 40 -19 77 -34 81 -34 5 0 15 -7 22
-15 7 -8 27 -15 45 -15 18 0 44 -9 58 -20 14 -11 30 -20 36 -20 6 0 28 -9 48
-20 21 -11 46 -20 55 -20 10 0 32 -9 50 -20 18 -11 40 -20 49 -20 9 0 22 -7
29 -15 7 -8 28 -18 49 -21 20 -4 45 -13 56 -19 11 -7 31 -16 45 -20 14 -4 32
-13 40 -20 8 -7 32 -15 53 -18 21 -3 57 -20 79 -36 23 -17 53 -31 67 -31 15 0
40 -9 56 -20 17 -11 37 -20 46 -20 9 0 24 -9 34 -20 10 -12 31 -20 48 -20 31
0 131 -42 142 -60 3 -6 20 -10 36 -10 17 0 47 -9 67 -19 103 -53 121 -61 135
-61 18 0 125 -48 132 -60 2 -4 22 -11 42 -14 35 -6 84 -25 123 -47 8 -5 26
-14 40 -19 14 -6 56 -26 94 -45 37 -19 79 -35 92 -35 13 0 38 -9 56 -20 18
-11 40 -20 49 -20 9 0 24 -9 34 -20 10 -11 30 -20 45 -20 35 0 108 -53 121
-88 6 -15 17 -39 25 -54 8 -14 14 -34 14 -45 0 -10 18 -54 40 -98 22 -44 40
-87 40 -96 0 -10 16 -50 37 -90 66 -133 73 -149 73 -162 0 -7 9 -23 20 -37 11
-14 20 -37 20 -51 0 -15 9 -38 20 -52 11 -14 20 -31 20 -39 0 -8 9 -31 20 -53
11 -22 20 -45 20 -53 0 -7 22 -59 49 -115 27 -56 51 -118 55 -138 4 -21 13
-42 21 -49 8 -7 15 -17 15 -22 0 -9 64 -151 94 -208 7 -14 16 -41 20 -61 4
-21 13 -42 21 -49 8 -7 15 -18 15 -24 0 -7 9 -29 20 -51 11 -22 20 -50 20 -63
0 -13 9 -35 20 -49 11 -14 20 -32 20 -40 0 -8 9 -26 20 -40 11 -14 20 -40 20
-58 0 -18 7 -38 15 -45 8 -7 15 -18 15 -24 0 -6 18 -47 40 -91 22 -44 40 -85
40 -91 0 -6 7 -17 15 -24 8 -7 17 -28 21 -49 3 -20 21 -68 40 -107 19 -39 34
-78 34 -87 0 -22 21 -67 32 -67 4 0 8 -7 8 -16 0 -9 6 -28 14 -42 30 -56 56
-119 56 -136 0 -9 9 -34 19 -54 10 -20 33 -67 50 -104 17 -37 36 -70 41 -73 6
-3 10 -17 10 -31 0 -14 8 -42 19 -62 10 -20 26 -55 36 -77 9 -22 25 -57 36
-77 10 -20 19 -48 19 -62 0 -14 4 -27 9 -30 11 -7 61 -113 61 -130 0 -7 9 -25
20 -39 11 -14 20 -35 20 -47 0 -11 9 -38 20 -58 10 -20 29 -59 40 -87 12 -27
28 -62 36 -77 8 -14 14 -34 14 -43 0 -9 18 -50 40 -91 22 -41 40 -87 40 -102
0 -15 9 -38 20 -52 11 -14 20 -29 20 -35 0 -5 14 -37 30 -70 16 -33 30 -67 30
-76 0 -9 9 -28 20 -42 11 -14 23 -40 27 -59 3 -18 21 -62 40 -97 18 -35 33
-76 33 -90 0 -14 9 -37 20 -51 11 -14 20 -32 20 -40 0 -8 9 -26 20 -40 11 -14
20 -32 20 -41 0 -9 6 -22 14 -28 7 -6 16 -30 20 -53 4 -23 13 -53 20 -67 8
-14 19 -37 25 -51 6 -14 15 -32 19 -40 34 -61 52 -102 52 -119 0 -11 15 -49
34 -83 18 -35 36 -76 40 -93 4 -16 23 -63 42 -103 19 -40 34 -77 34 -82 0 -13
50 -109 60 -115 6 -3 10 -16 10 -27 0 -12 8 -40 19 -62 31 -70 50 -120 56
-153 4 -18 10 -35 15 -38 4 -2 19 -31 34 -62 15 -32 36 -76 46 -98 11 -22 20
-50 20 -61 0 -12 9 -33 20 -47 11 -14 20 -30 20 -35 0 -6 7 -25 16 -44 9 -18
25 -49 34 -68 9 -19 20 -51 24 -71 4 -21 13 -42 21 -49 8 -7 15 -19 15 -27 0
-8 10 -33 22 -56 43 -83 48 -95 48 -114 0 -10 18 -53 40 -96 22 -42 40 -86 40
-96 0 -10 15 -50 34 -87 18 -38 38 -80 45 -94 6 -14 15 -32 19 -40 26 -46 42
-84 42 -98 0 -9 20 -57 45 -107 24 -49 45 -98 45 -108 0 -19 5 -31 48 -114 12
-23 22 -51 22 -61 0 -19 16 -55 111 -245 21 -43 39 -89 39 -103 0 -23 32 -95
55 -124 7 -8 15 -32 18 -54 3 -21 13 -46 22 -56 8 -9 15 -23 15 -32 0 -8 9
-27 20 -41 11 -14 20 -32 20 -41 0 -9 6 -27 14 -39 8 -12 17 -38 21 -57 4 -19
13 -42 20 -50 15 -18 95 -200 95 -216 0 -17 48 -121 58 -128 6 -3 13 -18 17
-33 3 -16 17 -39 30 -53 13 -14 31 -41 40 -60 34 -73 55 -105 97 -147 23 -24
47 -43 52 -43 5 0 27 -12 48 -26 74 -52 263 -42 323 16 16 16 45 35 63 43 30
12 117 94 527 497 77 76 145 139 152 141 6 2 101 91 210 198 387 380 768 753
783 766 8 7 72 71 142 141 71 71 136 133 147 139 10 5 255 244 544 530 967
958 1532 1513 1572 1545 22 17 45 42 52 54 6 12 23 28 36 35 14 7 30 23 37 35
6 13 25 31 41 40 17 10 34 29 39 42 6 14 18 27 27 31 10 3 34 22 53 42 20 20
173 172 341 339 232 228 312 302 330 302 13 0 44 -11 69 -24 25 -13 61 -26 81
-30 20 -3 51 -20 69 -36 22 -20 44 -30 65 -30 17 0 39 -6 50 -14 11 -7 31 -17
43 -21 13 -4 33 -16 43 -26 10 -10 32 -19 48 -19 28 0 136 -44 146 -60 2 -4
20 -11 39 -14 40 -8 112 -39 140 -61 11 -8 27 -15 35 -15 9 0 48 -15 86 -34
39 -19 95 -42 125 -51 30 -9 67 -25 82 -36 15 -10 31 -19 35 -19 5 0 26 -9 48
-20 22 -11 52 -20 67 -20 15 0 30 -5 33 -10 10 -15 131 -70 156 -70 11 0 39
-14 60 -31 28 -22 55 -33 94 -38 39 -5 66 -17 93 -39 22 -17 56 -34 77 -38 20
-3 66 -22 102 -40 35 -19 71 -34 80 -34 9 0 48 -15 87 -34 39 -19 87 -38 107
-41 19 -4 55 -22 79 -41 24 -19 54 -34 69 -34 42 0 90 -17 121 -43 16 -14 44
-27 63 -31 20 -4 66 -23 104 -43 37 -20 78 -35 90 -35 22 2 86 -28 134 -61 13
-10 34 -17 46 -17 13 0 70 -22 128 -50 58 -27 111 -50 119 -50 7 0 19 -7 26
-15 7 -8 38 -23 69 -32 51 -14 68 -21 111 -44 53 -29 123 -58 151 -64 19 -4
62 -23 97 -41 34 -19 75 -34 90 -34 15 0 38 -9 52 -20 14 -11 31 -20 38 -20 6
0 29 -9 49 -20 21 -11 47 -20 59 -20 12 0 41 -16 64 -35 27 -22 52 -35 71 -35
16 0 46 -9 66 -20 21 -11 43 -20 49 -20 6 0 17 -6 23 -14 7 -8 27 -17 46 -20
19 -4 66 -22 104 -41 39 -19 79 -35 88 -35 10 0 54 -18 97 -40 43 -22 88 -40
100 -40 13 0 43 -14 67 -32 27 -19 63 -35 92 -39 27 -5 71 -22 97 -39 27 -17
64 -34 84 -37 20 -3 41 -12 47 -19 6 -8 20 -14 29 -14 10 0 32 -11 48 -25 17
-14 40 -25 53 -25 31 0 108 -29 138 -52 13 -10 34 -18 46 -18 12 0 54 -16 91
-35 38 -19 76 -35 85 -35 9 0 22 -7 29 -15 7 -8 20 -15 30 -15 9 0 29 -9 43
-20 14 -11 40 -23 59 -26 34 -7 52 -14 125 -52 23 -12 48 -22 56 -22 8 0 20
-6 26 -14 7 -8 31 -18 54 -21 23 -4 53 -16 66 -26 13 -11 29 -19 35 -19 7 0
29 -9 51 -20 22 -11 45 -20 53 -20 14 0 24 -4 107 -47 22 -11 56 -23 76 -27
20 -4 54 -20 74 -36 23 -19 50 -30 69 -30 36 0 105 -30 124 -53 7 -8 32 -19
55 -22 23 -4 51 -14 62 -21 11 -8 26 -14 33 -14 8 0 25 -9 39 -20 14 -11 36
-20 48 -20 21 0 91 -30 155 -66 14 -7 33 -14 43 -14 10 0 37 -10 60 -22 80
-41 92 -46 150 -53 32 -3 70 -13 85 -21 15 -7 37 -14 50 -14 13 0 37 -10 53
-22 29 -22 42 -23 222 -27 217 -4 514 15 537 34 8 7 44 15 79 19 35 3 69 10
75 15 6 6 36 13 66 16 30 4 67 15 82 26 15 10 32 19 39 19 6 0 23 6 37 14 15
8 43 17 63 21 21 3 42 12 49 20 7 8 20 15 29 15 9 0 25 6 36 14 11 7 31 17 45
21 14 4 43 23 64 41 22 19 45 34 52 34 6 0 34 18 60 40 27 22 54 40 60 40 18
0 201 185 220 222 9 18 45 62 79 98 109 114 145 160 145 187 0 15 15 44 35 69
19 23 35 47 35 52 0 14 60 131 71 137 5 4 9 20 9 36 0 16 9 47 20 69 11 22 20
49 20 60 0 11 7 31 15 44 9 13 18 48 22 77 3 30 12 66 19 81 8 15 14 39 14 54
0 15 8 41 19 58 15 24 20 57 23 151 3 66 10 130 16 142 7 12 12 59 12 105 0
63 5 90 18 113 13 20 21 61 26 122 4 51 13 105 21 120 10 19 15 60 15 127 0
79 4 105 19 130 12 20 21 61 25 115 4 46 10 91 15 100 5 9 11 69 13 134 4 90
9 122 22 135 11 13 16 38 16 83 1 42 7 78 20 104 16 33 19 62 20 159 0 97 3
123 17 138 11 13 18 44 22 97 4 43 11 84 18 92 6 8 14 73 18 151 6 97 12 141
21 149 9 8 14 34 14 81 0 40 6 80 14 96 9 17 19 89 25 179 7 93 17 163 26 180
8 15 15 47 15 71 0 23 6 53 14 65 9 15 16 71 21 172 5 101 12 156 21 170 8 11
14 42 14 70 0 33 7 60 20 80 17 26 20 47 20 163 0 85 4 141 12 155 7 12 15 50
19 85 3 34 13 70 22 80 11 13 17 55 22 167 5 100 12 157 21 170 8 11 14 42 14
69 0 30 7 61 19 80 15 25 20 60 24 180 4 83 11 154 17 161 6 8 14 40 17 72 3
32 12 67 20 79 9 14 15 70 20 165 3 90 11 154 19 171 8 15 14 48 14 74 0 28 8
59 19 78 15 25 20 60 25 176 4 79 11 149 16 155 5 6 13 45 16 86 4 41 12 83
17 94 6 11 17 74 23 140 7 66 17 140 23 165 5 25 10 72 11 104 0 42 5 65 17
79 13 14 19 43 23 116 3 54 10 104 16 112 6 8 15 66 19 129 3 63 12 124 19
135 7 11 16 59 20 108 4 48 14 103 22 122 9 22 14 70 14 132 0 81 4 103 20
128 15 22 20 47 20 93 0 35 6 75 14 90 8 16 16 80 20 155 4 81 11 136 20 150
8 12 17 56 21 96 3 41 13 84 21 95 9 13 14 48 15 101 1 124 30 334 51 370 12
19 17 57 34 250 4 44 11 85 16 92 6 7 12 41 15 75 3 35 12 72 19 83 10 14 14
58 14 160 0 112 3 145 16 163 8 12 18 48 21 80 3 31 11 66 18 77 8 13 16 79
20 170 5 94 13 160 21 177 8 15 14 48 14 73 0 29 7 56 19 73 16 22 20 52 25
170 4 98 10 151 21 172 8 16 15 50 15 75 0 25 7 56 15 68 10 15 16 68 21 172
5 100 11 157 20 170 8 11 14 41 14 68 0 33 6 57 19 73 16 20 20 49 26 172 5
92 13 157 21 174 8 15 14 49 14 75 0 27 6 58 14 68 9 14 16 68 21 165 5 92 13
155 22 173 7 15 14 58 15 95 0 46 5 73 17 85 11 13 19 58 28 155 19 212 33
315 48 338 7 11 16 63 20 115 4 52 14 103 21 114 10 13 14 52 14 125 0 88 3
110 20 135 16 24 20 47 20 113 0 53 5 91 14 105 8 13 17 67 21 132 4 73 12
118 22 134 9 14 18 56 21 95 2 39 11 83 18 98 10 18 14 65 14 143 0 96 3 121
20 152 14 27 20 57 20 102 0 42 5 70 14 80 11 12 17 58 22 166 4 94 12 160 20
177 8 15 14 48 14 73 0 29 7 56 19 73 16 23 20 51 24 174 4 111 10 153 21 170
9 13 16 43 16 71 0 26 6 58 14 70 9 15 16 72 21 172 5 102 11 156 21 169 8 11
14 43 14 70 0 30 7 61 19 80 15 25 20 59 24 171 4 98 10 149 21 170 9 17 16
52 16 79 0 30 6 56 15 66 12 13 17 53 22 166 4 102 10 154 19 164 7 9 16 43
20 75 3 33 12 74 20 91 8 18 16 87 20 168 3 82 12 152 20 172 8 18 14 51 14
73 0 22 8 55 19 73 15 27 20 62 24 191 4 88 11 164 16 171 5 6 11 34 12 61 1
28 10 68 20 90 12 29 19 75 23 163 3 68 10 130 16 136 5 7 13 49 16 92 4 50
13 86 22 97 12 14 18 51 22 150 3 74 11 142 18 154 7 12 12 53 12 91 0 52 5
75 18 93 15 19 20 49 25 138 4 62 12 120 18 127 6 7 13 55 16 106 3 59 11 108
23 133 11 25 18 67 19 113 1 47 7 82 16 95 11 16 15 50 15 126 0 84 4 110 19
135 12 21 21 60 25 119 3 49 10 96 15 105 5 10 12 76 16 147 4 76 12 138 19
150 7 11 16 47 21 79 4 33 13 69 20 80 9 14 15 68 19 163 3 101 9 150 20 172
9 16 16 51 16 76 0 25 7 56 15 69 11 17 17 63 21 167 4 89 11 152 19 164 7 12
15 47 18 79 4 32 13 68 20 80 10 15 16 64 19 161 4 100 10 151 21 177 10 21
17 57 17 80 0 26 8 55 20 73 17 26 20 47 20 165 0 108 3 140 16 158 9 13 18
51 22 85 3 34 11 71 17 82 8 12 15 83 19 184 5 118 11 170 22 185 8 11 14 35
14 53 0 17 9 47 19 65 15 26 20 54 21 128 0 52 5 122 11 155 5 33 13 85 17
115 4 30 15 66 24 80 12 19 18 64 23 184 4 97 13 172 21 192 8 18 14 54 14 79
0 25 6 56 14 68 8 12 19 80 25 156 7 74 16 142 21 151 5 9 11 68 14 130 3 82
9 117 20 129 13 15 16 50 16 213 0 179 -2 196 -19 212 -14 12 -21 36 -25 79
-10 127 -34 278 -46 292 -7 8 -25 51 -40 95 -15 44 -32 86 -37 93 -5 6 -22 41
-38 77 -31 70 -52 103 -160 240 -38 49 -79 104 -90 122 -19 30 -119 121 -237
216 -29 23 -73 60 -97 82 -24 22 -77 56 -118 76 -40 20 -76 41 -79 45 -3 5
-12 9 -21 9 -9 0 -35 16 -59 35 -23 19 -51 35 -61 35 -10 0 -35 9 -56 20 -20
11 -44 20 -52 20 -9 0 -28 9 -43 19 -15 10 -51 22 -81 25 -30 3 -59 10 -65 16
-5 5 -17 10 -27 10 -9 0 -28 9 -43 21 -43 34 -298 46 -560 28z m-132 -4012 c8
-13 4 -44 -17 -124 -33 -131 -57 -286 -57 -369 0 -36 -12 -110 -30 -176 -21
-82 -32 -157 -39 -262 -6 -81 -14 -153 -19 -159 -5 -7 -12 -30 -15 -52 -3 -22
-13 -71 -22 -110 -8 -38 -22 -135 -29 -215 -8 -80 -26 -199 -41 -265 -14 -66
-30 -176 -35 -245 -5 -69 -18 -157 -29 -197 -29 -104 -51 -243 -52 -321 0 -73
-4 -99 -42 -272 -14 -63 -31 -173 -37 -244 -6 -71 -13 -133 -16 -137 -14 -23
-57 -295 -69 -433 -3 -38 -15 -108 -26 -155 -26 -107 -48 -260 -49 -326 0 -53
-22 -179 -39 -230 -15 -41 -30 -149 -41 -284 -5 -63 -18 -146 -29 -185 -11
-40 -27 -137 -35 -216 -20 -186 -36 -288 -48 -320 -13 -33 -37 -202 -38 -265
0 -57 -24 -197 -39 -238 -14 -37 -28 -127 -41 -267 -6 -63 -22 -168 -35 -234
-14 -65 -30 -171 -35 -235 -6 -64 -15 -135 -20 -158 -41 -178 -48 -219 -60
-350 -10 -114 -23 -191 -54 -335 -8 -37 -19 -117 -25 -177 -6 -61 -24 -181
-40 -268 -17 -87 -35 -207 -41 -268 -6 -60 -17 -139 -25 -175 -26 -120 -44
-234 -56 -350 -6 -63 -18 -142 -26 -175 -26 -108 -42 -208 -53 -330 -6 -65
-13 -122 -15 -126 -7 -10 -35 -182 -55 -339 -21 -161 -48 -318 -56 -332 -5 -8
-10 -48 -34 -263 -6 -55 -17 -126 -25 -159 -13 -51 -51 -296 -70 -456 -4 -30
-11 -71 -15 -90 -5 -19 -16 -84 -25 -145 -40 -289 -48 -341 -56 -356 -4 -9
-15 -76 -23 -150 -19 -165 -33 -255 -51 -339 -8 -36 -21 -121 -30 -190 -9 -69
-23 -165 -32 -215 -23 -136 -30 -178 -47 -325 -9 -74 -20 -148 -25 -165 -19
-63 -53 -283 -66 -430 -4 -38 -11 -86 -16 -105 -10 -36 -29 -152 -54 -340 -7
-58 -20 -136 -29 -175 -8 -38 -17 -99 -21 -135 -7 -78 -40 -288 -60 -385 -8
-38 -21 -128 -30 -200 -9 -71 -27 -193 -40 -270 -27 -160 -55 -334 -62 -385
-2 -19 -13 -87 -23 -150 -11 -63 -26 -167 -35 -230 -19 -147 -41 -286 -59
-375 -8 -38 -18 -101 -21 -139 -7 -82 -50 -346 -65 -396 -5 -19 -10 -57 -10
-85 -1 -27 -5 -70 -11 -95 -15 -74 -49 -279 -60 -370 -15 -125 -59 -399 -68
-424 -5 -12 -14 -73 -20 -137 -7 -63 -21 -167 -31 -230 -11 -62 -27 -161 -35
-219 -18 -122 -44 -285 -56 -350 -5 -25 -18 -112 -29 -195 -20 -148 -41 -277
-58 -365 -5 -25 -15 -92 -22 -150 -15 -130 -35 -260 -49 -320 -6 -25 -20 -117
-31 -205 -12 -88 -30 -198 -40 -245 -10 -47 -21 -121 -25 -165 -8 -103 -33
-265 -50 -335 -8 -30 -23 -127 -34 -215 -19 -150 -27 -198 -66 -423 -9 -48
-20 -125 -26 -172 -5 -47 -13 -105 -18 -130 -17 -89 -49 -307 -60 -405 -12
-103 -29 -145 -59 -145 -10 0 -55 16 -99 35 -45 19 -87 35 -95 35 -7 0 -35 12
-61 26 -27 14 -82 37 -124 51 -41 13 -97 36 -123 49 -26 13 -56 24 -66 24 -11
0 -57 18 -104 40 -47 22 -91 40 -98 40 -7 0 -41 13 -77 29 -35 16 -90 37 -122
46 -32 9 -72 25 -89 36 -17 10 -73 34 -125 53 -195 71 -259 96 -296 114 -21
11 -69 30 -108 43 -38 12 -81 31 -95 40 -14 10 -54 25 -89 34 -36 9 -85 27
-110 39 -25 13 -70 31 -100 41 -30 10 -68 26 -85 35 -17 10 -58 26 -90 35 -33
9 -85 29 -115 45 -31 15 -72 31 -91 35 -19 4 -61 20 -93 36 -32 16 -76 33 -99
40 -22 6 -67 23 -98 38 -31 15 -79 33 -106 40 -27 7 -67 23 -89 35 -22 13 -71
33 -110 46 -38 13 -91 33 -117 46 -26 13 -55 24 -65 24 -9 0 -51 15 -93 34
-88 39 -179 76 -307 122 -50 18 -109 41 -130 52 -21 11 -63 27 -93 37 -30 10
-76 29 -101 42 -26 12 -53 23 -60 23 -8 0 -59 20 -115 44 -56 24 -116 47 -135
51 -19 4 -58 21 -88 36 -30 16 -61 29 -69 29 -8 0 -56 18 -106 39 -50 21 -110
44 -134 50 -23 7 -57 21 -75 31 -18 11 -58 28 -88 39 -30 10 -81 31 -113 45
-33 15 -73 30 -90 33 -17 3 -56 18 -88 34 -31 15 -76 33 -100 39 -23 7 -75 27
-115 45 -39 18 -87 36 -105 40 -18 4 -60 20 -93 35 -68 32 -170 72 -265 105
-36 13 -92 35 -125 50 -33 15 -94 40 -135 55 -41 15 -122 46 -180 70 -58 23
-143 57 -190 75 -47 18 -112 45 -145 59 -33 14 -66 26 -72 26 -7 0 -41 13 -76
29 -35 16 -87 36 -116 45 -29 8 -67 24 -84 35 -18 11 -59 27 -92 36 -33 10
-87 31 -120 48 -33 17 -76 34 -95 38 -19 4 -66 20 -105 37 -126 54 -179 75
-261 102 -45 15 -92 35 -105 43 -13 8 -63 29 -111 46 -48 17 -102 38 -119 47
-17 9 -55 23 -83 31 -28 8 -69 24 -91 36 -22 11 -73 31 -113 43 -41 13 -90 32
-110 43 -35 18 -111 48 -285 112 -42 16 -91 36 -108 45 -17 9 -55 23 -83 31
-28 8 -76 28 -108 43 -31 15 -81 35 -111 44 -31 9 -77 27 -104 40 -26 13 -68
30 -93 36 -24 7 -65 22 -90 35 -25 13 -72 31 -103 40 -31 9 -77 27 -101 41
-24 13 -68 31 -97 40 -30 9 -78 27 -107 40 -29 13 -58 24 -65 24 -20 0 -57 30
-57 47 0 8 22 39 49 69 27 30 70 84 95 121 25 38 65 94 88 125 24 31 68 92 98
134 30 42 91 125 135 185 44 60 96 132 115 160 53 77 115 160 148 199 16 19
48 64 72 100 24 36 66 95 94 132 80 105 112 151 126 178 7 14 31 45 52 70 45
53 107 138 146 199 15 24 43 63 62 86 19 24 63 83 97 131 35 49 95 132 134
184 38 52 82 113 97 135 15 22 59 83 97 134 39 52 99 136 135 186 36 51 92
129 125 172 33 44 78 106 100 137 22 31 72 99 110 151 39 52 90 124 115 161
25 36 59 82 76 102 17 20 48 63 68 95 21 32 58 83 82 115 98 129 149 199 286
391 29 40 69 95 88 122 121 166 186 257 208 289 9 14 57 79 106 145 49 66 117
157 150 203 34 46 77 104 96 130 19 25 44 61 55 78 11 18 47 67 79 111 33 43
85 114 115 159 31 45 83 117 116 160 34 43 91 122 128 174 37 52 87 120 110
151 23 32 67 92 97 134 30 43 73 101 95 129 22 28 63 84 90 124 98 143 113
164 135 187 12 13 52 66 88 119 144 205 278 391 308 425 17 20 44 56 60 81 48
71 74 108 154 216 41 55 125 170 185 254 136 189 265 365 296 404 13 16 33 46
45 66 12 20 33 50 47 66 30 34 53 66 138 189 35 50 81 113 103 142 23 28 57
74 76 102 55 80 107 151 154 211 24 30 64 87 90 125 25 39 71 102 101 140 30
39 80 107 110 153 31 45 68 97 83 115 16 17 61 79 102 137 40 58 96 134 124
170 28 36 57 76 65 90 8 14 46 67 85 119 39 51 105 142 146 200 41 59 102 143
135 186 33 44 73 98 88 120 15 22 40 56 55 76 29 38 111 153 184 256 23 34 70
98 103 142 96 128 174 236 258 355 43 61 96 131 116 156 21 25 59 77 84 115
25 39 61 88 80 110 19 22 74 98 122 169 48 70 104 148 124 172 20 23 56 72 81
108 25 36 74 105 110 153 36 48 91 125 123 171 32 46 81 114 110 150 29 37 77
103 106 147 30 44 73 103 96 130 24 28 63 82 88 120 25 39 68 99 97 135 28 36
67 90 87 120 20 30 45 64 55 74 10 11 18 25 18 31 0 7 23 38 52 71 28 32 71
88 95 124 64 97 112 162 137 190 13 14 44 57 70 95 25 39 70 102 100 140 30
39 89 120 131 180 41 61 94 133 116 160 22 28 67 91 101 140 33 50 75 106 93
125 17 19 59 77 94 128 34 51 93 132 130 180 38 48 76 102 85 119 9 18 36 56
59 85 24 29 84 111 135 181 51 71 107 148 125 170 18 23 41 53 50 67 33 50
103 149 150 211 26 35 83 112 125 171 199 279 278 387 312 428 21 25 53 70 72
100 20 30 52 75 72 98 20 24 36 47 36 51 0 3 14 21 30 40 17 18 54 69 82 114
29 45 68 101 89 124 20 23 79 104 131 180 53 76 106 147 118 158 12 11 29 33
38 50 8 16 59 89 112 160 53 72 120 165 149 207 28 43 61 86 72 97 12 11 29
31 38 44 87 130 175 253 191 267 8 7 100 137 131 185 14 22 41 58 59 78 18 21
59 79 91 130 84 134 97 145 123 104z m-3859 -297 c13 -22 -9 -52 -81 -110
-131 -106 -294 -248 -344 -299 -56 -57 -199 -185 -271 -243 -93 -74 -372 -320
-444 -391 -33 -33 -132 -121 -219 -196 -204 -174 -421 -366 -511 -452 -38 -37
-115 -104 -170 -150 -128 -106 -266 -226 -330 -286 -156 -148 -249 -231 -430
-384 -169 -143 -373 -325 -440 -393 -17 -17 -55 -51 -85 -76 -29 -25 -79 -67
-110 -95 -31 -27 -95 -81 -141 -120 -46 -38 -119 -103 -164 -144 -170 -158
-223 -205 -364 -326 -51 -44 -168 -147 -260 -229 -91 -81 -206 -184 -256 -227
-49 -44 -94 -84 -100 -89 -5 -6 -48 -43 -95 -82 -47 -40 -87 -75 -90 -78 -3
-3 -25 -23 -50 -44 -25 -22 -92 -83 -150 -136 -98 -90 -181 -163 -520 -458
-74 -64 -152 -133 -175 -153 -85 -77 -139 -126 -188 -173 -29 -27 -92 -83
-142 -124 -104 -88 -322 -279 -380 -333 -104 -97 -228 -208 -305 -273 -47 -39
-128 -109 -181 -156 -54 -47 -108 -94 -121 -105 -12 -11 -102 -92 -199 -180
-97 -88 -237 -212 -310 -275 -73 -63 -206 -180 -294 -260 -89 -80 -215 -191
-280 -248 -167 -143 -207 -178 -284 -248 -122 -112 -286 -258 -466 -414 -98
-85 -210 -185 -249 -221 -75 -70 -191 -172 -406 -359 -112 -97 -353 -312 -425
-379 -11 -10 -90 -78 -175 -151 -188 -162 -216 -186 -352 -313 -59 -55 -117
-106 -130 -115 -13 -8 -41 -32 -63 -52 -103 -96 -169 -155 -280 -250 -66 -56
-158 -137 -205 -180 -47 -43 -130 -117 -185 -165 -55 -48 -169 -149 -254 -224
-84 -75 -182 -161 -217 -191 -82 -72 -478 -423 -573 -508 -86 -77 -201 -178
-432 -380 -90 -79 -200 -176 -244 -216 -157 -143 -302 -272 -389 -346 -116
-99 -177 -152 -256 -225 -84 -78 -163 -148 -230 -205 -30 -25 -70 -60 -89 -78
-20 -18 -71 -63 -115 -100 -101 -86 -176 -153 -310 -277 -60 -55 -119 -107
-131 -115 -13 -9 -39 -31 -58 -50 -18 -19 -73 -69 -122 -110 -116 -100 -375
-328 -401 -354 -11 -12 -42 -40 -70 -62 -27 -23 -65 -57 -85 -75 -20 -19 -81
-72 -135 -119 -54 -47 -138 -121 -187 -165 -125 -111 -268 -237 -442 -390
-131 -114 -191 -168 -396 -352 -42 -38 -52 -43 -95 -43 -56 0 -109 17 -174 54
-25 14 -54 26 -65 26 -12 0 -58 18 -103 40 -44 22 -87 40 -95 40 -7 0 -49 17
-93 38 -43 21 -94 42 -113 45 -19 4 -55 20 -80 36 -25 16 -68 34 -96 40 -27 7
-64 21 -82 32 -17 11 -62 30 -100 43 -37 13 -90 35 -117 50 -27 14 -57 26 -66
26 -9 0 -39 12 -65 26 -27 14 -82 36 -123 50 -41 13 -89 33 -108 44 -18 11
-56 28 -86 36 -29 9 -67 25 -85 35 -17 11 -60 29 -95 40 -34 11 -82 31 -105
45 -22 13 -67 30 -98 39 -31 8 -71 23 -88 34 -18 11 -66 32 -107 47 -41 15
-84 32 -95 39 -11 7 -50 23 -87 35 -37 12 -83 32 -102 45 -19 13 -62 31 -96
39 -34 9 -75 25 -91 36 -15 12 -52 28 -81 37 -29 8 -78 28 -108 43 -30 15 -71
31 -90 35 -19 4 -62 22 -95 40 -33 18 -76 36 -95 40 -19 4 -64 22 -100 41 -36
18 -78 36 -95 40 -16 4 -52 18 -79 31 -27 14 -72 32 -100 40 -28 8 -69 25 -91
38 -22 12 -56 28 -75 33 -61 19 -105 37 -131 54 -14 9 -49 23 -79 32 -29 9
-72 27 -96 41 -23 14 -50 25 -60 25 -9 0 -58 20 -109 44 -50 24 -109 46 -130
50 -22 4 -52 17 -67 27 -15 11 -58 30 -95 43 -38 13 -91 35 -120 50 -29 14
-58 26 -66 26 -7 0 -50 18 -95 39 -45 22 -97 43 -117 47 -20 3 -51 16 -69 29
-18 12 -64 33 -102 45 -38 13 -94 35 -124 50 -30 15 -69 30 -85 34 -52 11 -95
43 -95 70 0 19 13 32 63 60 34 20 69 41 77 46 69 43 178 104 207 117 20 8 51
25 67 38 17 12 72 45 121 71 50 27 112 63 140 81 27 18 53 33 57 33 5 0 27 12
51 27 23 15 76 46 117 69 208 116 331 185 390 219 36 21 99 57 140 80 41 23
131 75 200 115 69 40 154 89 190 108 36 20 79 45 95 58 17 12 53 33 80 46 73
35 241 129 307 171 31 21 60 37 63 37 3 0 32 17 63 37 31 21 75 46 97 56 22
10 60 31 85 46 25 15 113 66 195 112 83 46 170 97 195 115 25 17 60 36 79 43
19 6 48 22 65 35 17 13 59 37 92 54 69 35 221 122 304 175 30 19 73 44 95 55
74 37 270 147 302 170 17 12 36 22 41 22 6 0 43 22 84 48 40 27 96 60 123 73
61 31 133 71 245 138 47 28 108 62 135 77 28 14 58 34 69 43 10 9 50 32 90 52
112 56 247 131 298 167 26 18 71 43 98 56 28 13 60 32 70 41 11 10 48 32 82
50 100 50 272 146 289 161 15 14 121 74 248 141 36 19 76 42 90 51 14 10 44
26 66 36 22 10 79 44 126 76 48 32 103 63 123 70 20 6 38 16 42 21 7 11 99 59
114 59 6 0 28 13 48 29 20 16 73 48 117 72 44 23 96 54 115 70 20 15 63 39 95
54 33 14 68 34 78 43 11 9 51 33 91 53 109 55 265 145 290 168 11 11 48 32 81
46 33 15 67 33 75 40 8 8 47 30 85 50 98 50 293 165 335 196 19 15 46 29 60
32 14 4 50 22 80 42 30 19 59 35 65 35 6 0 39 18 74 41 35 23 98 59 140 82 42
22 87 51 102 63 14 13 54 35 89 49 35 14 73 33 84 44 12 10 48 31 81 48 33 16
89 48 125 72 36 24 85 52 109 63 24 10 59 32 77 48 19 16 49 33 68 38 19 6 50
21 68 35 18 13 54 34 79 45 26 11 85 44 130 74 93 61 170 105 271 155 37 18
70 37 73 43 4 6 34 24 68 40 34 16 89 48 122 70 33 22 84 51 114 65 30 14 74
40 98 56 24 17 58 35 76 41 17 6 57 29 88 50 31 21 60 38 63 38 11 0 158 90
181 110 11 10 38 23 61 29 22 6 51 22 64 36 12 13 45 32 72 41 27 9 61 26 76
38 15 12 52 36 82 53 122 67 156 87 175 104 11 10 42 27 70 39 27 12 64 32 81
45 17 13 55 33 83 44 28 10 64 30 80 42 16 13 66 44 111 69 45 25 97 57 117
72 20 16 52 32 72 38 20 5 55 25 79 44 24 19 57 38 74 41 16 4 58 26 91 50 34
23 94 59 132 80 39 21 86 51 105 65 19 15 50 31 68 35 18 3 45 18 61 31 16 13
56 36 88 50 32 14 65 32 73 39 8 7 39 25 68 40 29 15 55 31 58 36 3 5 28 21
56 35 28 14 62 36 76 49 14 13 42 27 62 30 19 3 55 21 79 40 23 19 59 39 79
46 20 6 46 19 57 29 25 22 146 96 200 123 22 11 52 30 67 42 15 13 42 26 60
30 18 4 49 20 69 35 20 16 53 36 75 45 21 9 55 26 74 39 109 73 151 97 181
107 19 7 53 27 76 46 23 19 64 40 91 48 27 8 57 24 68 36 10 12 39 30 63 40
24 11 57 31 73 44 16 14 35 25 42 25 7 0 34 16 60 35 25 20 64 42 87 50 23 8
56 28 74 44 19 16 48 32 67 36 18 4 57 25 87 46 30 22 59 39 65 39 6 0 33 16
60 35 27 19 54 35 60 35 7 0 28 14 48 30 20 17 56 37 79 45 24 9 57 27 75 40
18 14 38 25 44 25 17 0 85 37 100 55 7 8 34 26 59 39 84 42 166 89 201 117 19
15 49 30 65 33 17 4 46 20 67 36 20 16 56 37 80 47 23 9 63 32 87 50 24 18 49
33 55 33 7 0 28 11 47 26 19 14 52 33 75 43 22 10 52 30 66 44 14 14 45 31 69
37 24 7 56 23 72 36 15 13 56 37 90 54 34 16 94 50 132 75 39 24 93 55 120 69
28 13 59 33 69 45 11 12 38 26 60 32 22 6 55 24 72 39 18 15 49 33 68 40 20 6
59 26 86 43 126 81 167 105 188 112 13 4 38 20 56 35 18 16 51 33 74 39 25 5
59 24 82 45 22 20 46 36 53 36 12 0 120 62 222 128 28 17 56 32 64 32 8 0 33
18 57 40 30 28 53 40 73 40 17 0 42 11 60 26 17 14 55 39 84 54 28 15 79 42
112 60 33 17 71 42 85 55 14 12 43 28 65 35 22 7 54 25 71 42 17 16 48 33 70
39 21 6 53 21 69 34 17 12 53 34 80 49 28 15 74 41 104 57 29 16 67 41 83 54
16 13 46 29 66 35 21 5 51 23 66 39 15 16 47 34 70 40 24 6 55 21 71 33 32 26
118 76 185 109 25 12 61 35 81 51 20 16 52 33 72 39 20 5 57 28 83 49 25 22
55 40 66 40 12 0 37 12 57 28 19 15 53 37 76 48 22 12 72 38 110 58 39 20 78
46 87 57 10 12 39 27 65 35 26 8 59 25 73 38 31 29 63 46 86 46 10 0 28 10 41
22 26 24 107 72 190 112 28 14 65 38 81 54 17 17 47 33 68 37 22 4 54 21 76
41 21 18 50 36 65 40 16 4 42 16 58 29 29 21 97 59 203 116 29 15 68 41 88 58
19 17 44 31 55 31 27 0 58 17 92 52 16 15 37 28 47 28 10 0 41 15 69 34 28 19
61 38 73 42 13 4 39 19 58 34 19 15 51 33 71 39 20 6 46 23 59 36 13 13 44 32
69 41 25 10 62 29 81 43 19 14 57 38 85 52 105 55 143 77 176 101 19 14 51 31
72 38 21 6 54 27 72 46 19 19 45 34 57 34 25 0 88 35 88 48 0 5 19 17 43 27
23 10 56 28 72 40 69 50 126 68 140 45z m-1726 -4154 c16 -18 -1 -51 -61 -123
-24 -28 -63 -84 -88 -124 -25 -40 -58 -87 -75 -105 -52 -55 -71 -78 -87 -104
-60 -97 -109 -168 -127 -185 -28 -24 -102 -128 -126 -175 -10 -19 -26 -44 -36
-55 -68 -75 -170 -213 -200 -270 -11 -22 -35 -54 -52 -71 -40 -39 -83 -97
-148 -198 -28 -44 -61 -87 -73 -97 -19 -15 -40 -45 -159 -224 -22 -33 -55 -76
-74 -95 -20 -19 -55 -66 -79 -105 -52 -84 -95 -143 -150 -204 -23 -25 -51 -64
-63 -86 -11 -22 -40 -65 -63 -96 -24 -31 -60 -80 -81 -108 -22 -28 -43 -51
-49 -51 -5 0 -19 -21 -30 -47 -21 -49 -54 -95 -118 -168 -19 -22 -53 -67 -74
-100 -22 -33 -51 -77 -65 -99 -14 -21 -48 -65 -76 -96 -27 -32 -68 -87 -90
-122 -47 -74 -148 -209 -170 -228 -9 -7 -22 -28 -30 -47 -14 -33 -44 -74 -116
-157 -44 -51 -102 -133 -123 -175 -9 -17 -47 -67 -84 -111 -37 -43 -85 -109
-107 -145 -22 -37 -60 -91 -85 -120 -61 -73 -91 -112 -115 -150 -49 -78 -94
-142 -110 -155 -9 -8 -32 -37 -50 -65 -86 -129 -141 -204 -180 -245 -24 -25
-48 -57 -54 -71 -5 -14 -51 -82 -103 -149 -51 -68 -118 -161 -149 -207 -32
-46 -72 -101 -90 -122 -46 -53 -100 -126 -125 -170 -21 -39 -38 -60 -94 -124
-19 -22 -44 -54 -55 -72 -11 -18 -34 -52 -52 -76 -18 -24 -56 -76 -84 -116
-29 -40 -58 -74 -66 -77 -7 -3 -22 -25 -32 -48 -10 -24 -47 -79 -82 -124 -35
-45 -86 -114 -114 -153 -27 -40 -79 -110 -115 -157 -36 -46 -85 -114 -110
-149 -25 -36 -73 -101 -107 -145 -34 -43 -77 -102 -97 -132 -46 -70 -97 -140
-174 -239 -34 -44 -69 -93 -77 -107 -8 -15 -35 -52 -60 -82 -38 -47 -110 -145
-165 -224 -22 -32 -70 -95 -111 -146 -20 -25 -48 -67 -63 -93 -15 -26 -46 -69
-69 -96 -23 -26 -64 -80 -92 -120 -27 -40 -74 -104 -104 -144 -29 -40 -79
-107 -110 -150 -31 -42 -84 -114 -118 -160 -35 -45 -91 -122 -124 -172 -34
-49 -95 -131 -135 -181 -41 -51 -74 -96 -74 -102 0 -8 -109 -154 -177 -236 -8
-10 -29 -42 -45 -70 -17 -28 -44 -67 -62 -87 -49 -56 -87 -107 -145 -194 -29
-44 -65 -93 -80 -110 -34 -39 -79 -97 -121 -160 -19 -27 -72 -102 -119 -166
-47 -64 -111 -151 -141 -194 -30 -43 -69 -95 -86 -114 -17 -20 -56 -74 -87
-121 -31 -47 -79 -112 -107 -145 -27 -33 -62 -78 -77 -100 -14 -22 -42 -64
-61 -92 -20 -29 -39 -53 -43 -53 -4 0 -55 -69 -113 -154 -58 -84 -113 -160
-122 -167 -9 -7 -33 -38 -53 -69 -69 -103 -114 -165 -170 -235 -31 -38 -81
-106 -111 -151 -30 -45 -80 -112 -110 -150 -31 -38 -78 -103 -105 -144 -27
-41 -70 -100 -96 -130 -25 -30 -66 -85 -90 -121 -24 -36 -93 -132 -154 -213
-208 -279 -261 -351 -305 -416 -24 -36 -59 -84 -79 -106 -20 -23 -60 -77 -90
-120 -30 -44 -98 -137 -151 -209 -53 -71 -142 -191 -197 -265 -144 -193 -231
-370 -270 -545 -9 -44 -27 -95 -40 -114 -13 -19 -23 -48 -23 -65 0 -17 -7 -42
-17 -55 -16 -23 -28 -67 -40 -141 -3 -19 -13 -46 -23 -60 -10 -14 -20 -41 -23
-60 -16 -99 -42 -197 -56 -214 -7 -8 -16 -36 -21 -63 -5 -26 -14 -68 -20 -93
-7 -25 -14 -55 -15 -67 -3 -21 -16 -67 -37 -128 -10 -31 -22 -78 -33 -130 -4
-16 -15 -48 -25 -70 -10 -22 -24 -67 -30 -100 -7 -33 -18 -72 -26 -87 -8 -14
-14 -36 -14 -49 0 -21 -9 -56 -32 -124 -11 -33 -26 -94 -35 -140 -3 -16 -10
-36 -16 -43 -10 -12 -19 -53 -34 -142 -3 -19 -13 -46 -23 -60 -9 -14 -20 -41
-23 -60 -4 -19 -11 -54 -17 -77 -5 -24 -14 -60 -18 -80 -5 -21 -14 -49 -21
-62 -7 -13 -14 -36 -16 -50 -3 -25 -43 -175 -63 -236 -24 -71 -32 -103 -32
-128 0 -14 -4 -29 -10 -32 -5 -3 -10 -18 -10 -33 0 -15 -9 -45 -19 -67 -19
-39 -48 -146 -58 -215 -3 -19 -12 -44 -19 -55 -8 -11 -14 -34 -14 -52 0 -17
-4 -35 -10 -38 -5 -3 -10 -16 -10 -28 0 -28 -36 -133 -44 -129 -3 1 -10 2 -15
2 -5 0 -17 24 -27 53 -9 28 -23 61 -31 73 -12 18 -37 77 -113 264 -12 30 -35
82 -51 115 -16 33 -29 64 -29 70 0 5 -18 48 -39 95 -48 102 -121 277 -121 287
0 5 -18 44 -40 87 -22 43 -40 85 -40 94 0 8 -13 40 -30 71 -16 31 -43 92 -60
136 -18 44 -38 91 -45 105 -7 14 -21 48 -31 75 -9 28 -25 61 -34 75 -10 14
-23 45 -30 70 -6 25 -24 68 -39 95 -16 28 -36 75 -46 105 -10 30 -31 78 -46
106 -16 28 -29 57 -29 66 0 8 -18 51 -40 94 -22 43 -40 86 -40 94 0 8 -18 52
-40 98 -22 45 -40 88 -40 96 0 8 -13 38 -28 67 -16 30 -36 78 -46 108 -9 29
-28 69 -41 90 -13 20 -28 55 -34 77 -14 51 -48 131 -61 139 -4 3 -12 20 -15
38 -4 17 -21 59 -37 92 -17 33 -37 82 -45 108 -8 26 -27 68 -43 93 -16 25 -34
68 -39 96 -6 27 -22 66 -36 86 -14 20 -33 62 -42 92 -9 30 -28 78 -44 105 -15
28 -31 67 -34 87 -4 21 -22 62 -40 92 -17 29 -37 75 -44 101 -7 27 -21 61 -32
76 -11 16 -27 52 -35 81 -9 29 -31 80 -49 113 -18 33 -35 76 -39 95 -4 19 -18
51 -32 71 -14 21 -32 62 -40 93 -8 31 -28 77 -43 102 -16 24 -32 61 -36 82 -3
20 -19 60 -35 89 -16 28 -35 72 -41 97 -6 26 -24 64 -39 85 -15 21 -33 63 -40
94 -6 31 -23 73 -37 94 -14 20 -31 61 -39 90 -8 29 -25 70 -38 92 -27 43 -76
179 -76 213 0 25 22 46 250 241 190 163 379 329 506 447 44 41 120 109 169
150 48 41 102 88 119 103 17 15 50 41 73 58 23 16 46 35 50 42 11 17 319 295
479 432 71 61 198 173 283 250 160 144 351 312 456 400 59 49 153 133 250 224
94 87 310 277 370 324 33 26 76 62 95 80 64 59 244 223 284 258 21 19 57 52
80 74 23 22 109 96 191 165 82 69 251 217 375 330 124 113 277 249 340 303
124 104 301 262 477 422 61 55 161 143 223 195 114 95 364 319 472 421 31 30
100 90 154 134 54 44 109 91 123 105 14 14 39 35 55 47 16 13 77 67 135 121
132 123 280 254 396 352 151 127 256 220 352 311 77 73 238 216 359 319 144
122 255 220 377 332 149 138 199 182 328 289 71 60 435 383 470 418 8 9 78 70
154 136 77 66 184 161 240 210 205 185 432 385 506 447 42 35 127 110 190 167
150 137 187 171 369 331 437 385 530 467 580 514 31 28 100 89 154 136 162
139 280 242 301 264 12 12 47 44 79 71 32 28 88 78 125 111 36 34 104 94 151
134 47 40 108 94 135 119 28 25 105 93 172 149 67 57 123 107 125 111 3 6 181
164 424 376 75 66 194 172 264 235 149 136 237 213 342 303 137 116 344 300
373 331 11 12 49 47 85 78 36 31 94 84 130 117 69 64 80 70 99 47z m-8361
-15327 c37 -12 92 -34 122 -49 30 -15 80 -35 110 -45 30 -10 77 -29 103 -42
27 -13 85 -37 130 -54 45 -17 86 -34 92 -38 5 -5 37 -16 70 -26 32 -9 80 -27
105 -40 25 -13 66 -28 90 -35 67 -18 90 -35 90 -71 0 -32 -2 -35 -125 -148
-66 -60 -271 -254 -525 -496 -64 -60 -196 -186 -295 -280 -98 -93 -193 -183
-209 -200 -17 -16 -72 -66 -121 -110 -49 -44 -125 -113 -168 -154 -59 -56 -81
-71 -89 -63 -9 9 -6 25 10 64 12 29 26 76 31 103 5 28 18 70 29 95 10 25 22
65 25 90 3 25 15 66 26 90 11 25 21 62 21 83 0 21 11 63 24 95 13 31 29 82 34
112 6 31 20 79 31 108 12 29 21 67 21 85 0 18 11 55 24 83 13 28 27 75 31 105
4 30 15 72 26 95 10 22 22 67 28 100 5 32 18 79 29 104 10 25 22 66 25 92 4
26 18 75 32 107 14 33 25 78 25 100 0 50 49 161 71 161 5 0 40 -10 77 -21z"/>
</g>
</svg>
