<svg width="19" height="19" viewBox="0 0 19 19" fill="none" xmlns="http://www.w3.org/2000/svg">
<path d="M9.3445 11.5523C10.5862 11.5523 11.5928 10.5457 11.5928 9.30398C11.5928 8.06227 10.5862 7.05566 9.3445 7.05566C8.10279 7.05566 7.09619 8.06227 7.09619 9.30398C7.09619 10.5457 8.10279 11.5523 9.3445 11.5523Z" stroke="#3E3E3E" stroke-width="1.5" stroke-miterlimit="10" stroke-linecap="round" stroke-linejoin="round"/>
<path d="M1.85022 9.96359V8.64458C1.85022 7.86517 2.48724 7.22065 3.27415 7.22065C4.63063 7.22065 5.18521 6.26137 4.50323 5.08476C4.11352 4.41026 4.34584 3.53342 5.02783 3.14371L6.32436 2.40177C6.91641 2.04954 7.68084 2.25938 8.03307 2.85143L8.11551 2.99383C8.79001 4.17044 9.89917 4.17044 10.5812 2.99383L10.6636 2.85143C11.0158 2.25938 11.7803 2.04954 12.3723 2.40177L13.6688 3.14371C14.3508 3.53342 14.5832 4.41026 14.1934 5.08476C13.5115 6.26137 14.066 7.22065 15.4225 7.22065C16.2019 7.22065 16.8465 7.85767 16.8465 8.64458V9.96359C16.8465 10.743 16.2094 11.3875 15.4225 11.3875C14.066 11.3875 13.5115 12.3468 14.1934 13.5234C14.5832 14.2054 14.3508 15.0748 13.6688 15.4645L12.3723 16.2064C11.7803 16.5586 11.0158 16.3488 10.6636 15.7567L10.5812 15.6143C9.90667 14.4377 8.7975 14.4377 8.11551 15.6143L8.03307 15.7567C7.68084 16.3488 6.91641 16.5586 6.32436 16.2064L5.02783 15.4645C4.34584 15.0748 4.11352 14.1979 4.50323 13.5234C5.18521 12.3468 4.63063 11.3875 3.27415 11.3875C2.48724 11.3875 1.85022 10.743 1.85022 9.96359Z" stroke="#3E3E3E" stroke-width="1.5" stroke-miterlimit="10" stroke-linecap="round" stroke-linejoin="round"/>
</svg>
