<?xml version="1.0" standalone="no"?>
<!DOCTYPE svg PUBLIC "-//W3C//DTD SVG 20010904//EN"
 "http://www.w3.org/TR/2001/REC-SVG-20010904/DTD/svg10.dtd">
<svg version="1.0" xmlns="http://www.w3.org/2000/svg"
 width="3000.000000pt" height="3000.000000pt" viewBox="0 0 3000.000000 3000.000000"
 preserveAspectRatio="xMidYMid meet">

<g transform="translate(0.000000,3000.000000) scale(0.100000,-0.100000)"
fill="#000000" stroke="none">
<path d="M14785 29743 c-724 -853 -1302 -1404 -2015 -1919 -1037 -750 -2201
-1246 -3390 -1444 -149 -25 -179 -29 -265 -40 -49 -6 -121 -15 -160 -20 -38
-5 -101 -12 -140 -15 -38 -2 -158 -11 -265 -20 -225 -17 -803 -20 -997 -5
-422 32 -497 40 -783 80 -978 139 -2009 468 -2918 932 -117 60 -243 126 -279
148 -36 22 -67 40 -70 40 -8 0 -200 115 -347 209 -148 94 -217 142 -660 458
-126 91 -234 162 -240 160 -7 -3 -22 -63 -35 -133 -13 -71 -34 -192 -48 -269
-13 -77 -37 -212 -53 -300 -16 -88 -40 -227 -55 -310 -14 -82 -39 -224 -55
-315 -62 -360 -82 -473 -115 -680 -32 -203 -92 -618 -115 -795 -6 -44 -15
-111 -20 -150 -5 -38 -14 -110 -20 -160 -6 -49 -15 -124 -20 -165 -26 -209
-55 -503 -100 -1005 -22 -257 -46 -623 -60 -940 -14 -300 -14 -1577 0 -1860
21 -449 49 -817 96 -1280 37 -366 46 -440 94 -800 65 -485 157 -1001 280
-1585 68 -318 206 -881 291 -1185 66 -235 96 -339 150 -515 22 -74 43 -144 46
-155 16 -64 286 -877 313 -940 4 -11 13 -36 20 -55 7 -19 16 -44 20 -55 4 -11
17 -46 29 -77 12 -32 30 -84 42 -115 12 -32 25 -67 30 -78 4 -11 27 -69 49
-130 23 -60 46 -118 51 -127 5 -10 9 -22 9 -28 0 -6 9 -32 21 -58 23 -52 37
-85 50 -119 18 -47 30 -76 160 -383 73 -173 147 -346 165 -385 17 -38 53 -117
79 -175 26 -58 70 -152 97 -210 27 -58 77 -163 111 -235 116 -247 546 -1087
577 -1130 4 -5 29 -50 55 -100 79 -147 324 -576 450 -785 64 -107 126 -210
136 -228 26 -44 44 -74 96 -154 24 -37 43 -70 43 -73 0 -3 24 -42 54 -88 29
-45 89 -138 132 -206 534 -843 1156 -1707 1883 -2620 230 -289 294 -366 550
-671 504 -599 1130 -1289 1681 -1855 346 -356 904 -908 1175 -1165 339 -320
621 -582 683 -634 24 -20 51 -44 60 -54 17 -19 381 -346 458 -412 22 -19 110
-96 195 -170 281 -247 718 -619 904 -770 37 -30 73 -60 79 -66 13 -12 182
-150 426 -347 96 -78 180 -145 185 -149 31 -26 399 -318 505 -401 69 -54 132
-103 140 -110 103 -85 277 -204 342 -236 325 -155 708 -126 993 77 152 107
946 737 1345 1066 113 93 227 188 255 210 477 393 1313 1128 1855 1631 668
620 1380 1327 1960 1945 96 102 195 208 221 235 184 196 612 676 863 969 1079
1256 2004 2508 2819 3816 22 36 51 83 65 104 24 38 67 111 102 171 10 17 54
90 99 164 44 73 81 135 81 136 0 2 18 33 41 70 22 37 49 83 60 101 10 19 29
51 40 72 12 20 33 57 47 82 14 25 44 79 67 120 24 41 53 93 65 115 203 360
554 1041 722 1400 25 55 66 143 91 195 24 52 54 118 67 145 12 28 33 74 46
102 13 29 35 77 48 105 13 29 38 87 56 128 18 41 41 95 52 120 11 25 26 60 34
78 8 17 20 47 28 65 8 17 29 68 46 112 18 44 41 100 52 124 50 111 298 752
372 964 8 23 33 94 56 157 90 254 253 752 310 950 12 41 26 86 31 100 8 25 95
328 124 435 9 33 20 74 25 90 66 240 133 509 215 865 14 63 33 144 41 179 9
35 19 85 24 110 4 25 22 116 40 201 18 85 36 175 41 200 4 25 22 119 39 210
141 760 256 1699 310 2535 53 812 55 1949 5 2715 -15 233 -36 526 -45 615 -5
55 -14 156 -20 225 -36 399 -90 868 -170 1455 -20 144 -84 566 -110 718 -6 31
-14 84 -20 117 -17 103 -31 183 -40 230 -5 25 -14 74 -19 110 -10 62 -40 234
-61 350 -18 100 -69 383 -85 475 -9 50 -20 115 -25 145 -5 30 -13 80 -19 110
-5 30 -17 96 -25 145 -22 124 -25 135 -37 135 -5 0 -158 -106 -340 -235 -472
-337 -667 -464 -994 -645 -377 -208 -881 -439 -1285 -587 -294 -108 -812 -266
-1020 -313 -19 -4 -105 -23 -190 -43 -224 -51 -484 -100 -680 -127 -224 -31
-350 -46 -470 -55 -41 -3 -158 -13 -260 -20 -412 -32 -1093 -13 -1535 44 -169
22 -233 31 -315 45 -47 8 -123 22 -170 30 -539 95 -1191 299 -1740 544 -298
133 -783 390 -1010 536 -640 412 -1121 794 -1644 1306 -293 287 -510 525 -886
968 -107 127 -200 231 -205 231 -6 1 -105 -110 -220 -246z m362 -1383 c190
-199 503 -502 678 -656 705 -622 1465 -1137 2215 -1501 242 -118 404 -193 415
-193 3 0 27 -10 53 -21 81 -37 105 -47 177 -74 39 -15 84 -33 100 -40 17 -7
113 -42 215 -78 164 -57 286 -97 510 -166 251 -77 655 -161 774 -161 23 0 53
-6 68 -14 14 -8 30 -10 35 -6 4 4 32 6 61 3 46 -5 53 -8 49 -24 -3 -11 -3 -19
-1 -19 2 0 59 -9 127 -19 67 -10 167 -24 222 -31 55 -6 127 -15 160 -20 33 -5
128 -14 210 -20 83 -6 206 -15 275 -20 165 -13 805 -13 995 0 271 19 419 31
485 40 36 5 110 14 165 20 237 26 671 100 1000 171 43 9 392 97 490 124 64 17
188 54 295 87 36 11 79 23 95 28 17 5 71 22 120 39 50 18 128 44 175 60 80 27
149 52 195 71 11 4 70 27 130 50 61 23 124 48 140 55 17 8 55 23 85 35 30 12
70 28 88 36 17 8 47 20 65 28 228 98 668 314 877 430 84 47 158 86 162 86 9 0
11 -7 49 -247 6 -38 14 -90 19 -118 5 -27 14 -80 20 -117 5 -38 15 -97 20
-133 6 -36 15 -94 20 -130 18 -118 29 -189 40 -270 6 -44 15 -107 20 -140 8
-55 34 -254 60 -460 14 -111 27 -232 40 -355 6 -58 15 -143 20 -190 5 -47 14
-141 20 -210 6 -69 15 -174 20 -235 5 -60 12 -141 15 -180 2 -38 11 -160 19
-270 69 -945 64 -2110 -14 -3095 -23 -287 -73 -779 -100 -985 -5 -38 -14 -106
-20 -150 -5 -44 -17 -129 -26 -190 -9 -60 -20 -139 -25 -175 -4 -36 -27 -173
-50 -305 -22 -132 -45 -262 -49 -290 -5 -27 -15 -86 -24 -130 -9 -44 -21 -105
-27 -135 -6 -30 -15 -73 -20 -95 -5 -22 -16 -76 -24 -120 -9 -44 -25 -120 -36
-170 -11 -49 -24 -110 -29 -135 -20 -108 -123 -529 -216 -880 -84 -321 -317
-1093 -364 -1205 -4 -11 -15 -42 -23 -70 -20 -66 -106 -315 -117 -340 -5 -11
-23 -60 -40 -110 -44 -127 -71 -198 -245 -645 -97 -248 -347 -833 -470 -1095
-148 -317 -254 -534 -399 -820 -163 -320 -227 -441 -366 -695 -32 -58 -71
-130 -88 -160 -35 -65 -41 -75 -167 -294 -535 -929 -1122 -1817 -1790 -2711
-456 -609 -868 -1124 -1315 -1644 -63 -74 -131 -154 -152 -178 -20 -23 -67
-78 -105 -120 -203 -230 -329 -372 -357 -403 -18 -19 -72 -80 -121 -135 -50
-55 -92 -102 -96 -105 -3 -3 -77 -81 -164 -175 -314 -338 -508 -538 -945 -975
-392 -392 -544 -540 -899 -875 -47 -44 -97 -91 -111 -105 -14 -14 -48 -45 -75
-69 -28 -24 -79 -72 -115 -106 -142 -134 -603 -548 -875 -785 -66 -58 -122
-107 -125 -110 -4 -5 -174 -151 -414 -355 -463 -394 -1586 -1300 -1801 -1453
l-34 -24 -153 118 c-209 162 -350 274 -637 503 -134 108 -255 205 -270 216
-38 27 -134 106 -146 119 -5 6 -30 27 -55 46 -63 49 -581 481 -725 605 -742
638 -1347 1188 -1985 1804 -1468 1418 -2781 2907 -3845 4362 -98 134 -195 267
-215 294 -216 293 -818 1192 -1021 1527 -188 309 -309 512 -419 703 -256 443
-473 845 -713 1320 -55 110 -267 550 -314 655 -14 30 -39 84 -55 120 -62 135
-147 328 -236 535 -57 134 -170 410 -207 505 -20 52 -52 134 -71 183 -135 345
-328 898 -454 1297 -87 278 -181 596 -225 765 -8 28 -23 86 -35 130 -47 173
-139 548 -169 685 -17 80 -36 161 -41 180 -12 45 -67 303 -87 410 -3 14 -13
68 -23 120 -56 282 -120 659 -160 945 -5 33 -13 94 -20 135 -28 189 -83 674
-110 965 -21 229 -40 486 -50 658 -5 97 -15 257 -21 355 -6 99 -11 496 -11
907 0 842 18 1259 82 1945 5 58 15 157 20 220 24 263 48 488 80 750 11 91 25
199 30 240 5 41 11 89 14 105 3 17 10 68 16 115 11 85 23 167 40 270 5 30 14
93 20 140 7 47 25 164 41 260 15 96 33 207 39 245 7 39 16 89 21 112 5 23 9
54 9 68 0 35 23 41 59 16 16 -12 31 -21 34 -21 3 0 36 -17 74 -39 139 -78 182
-101 348 -184 175 -87 323 -158 410 -197 28 -12 74 -33 103 -46 29 -13 55 -24
57 -24 3 0 24 -9 48 -19 23 -10 62 -26 87 -36 25 -9 61 -23 80 -32 19 -8 45
-19 58 -24 12 -5 32 -13 45 -19 109 -47 475 -175 687 -240 58 -18 116 -36 130
-41 87 -29 529 -148 630 -169 25 -5 88 -19 140 -30 335 -73 565 -112 900 -154
293 -37 358 -43 685 -66 192 -13 839 -13 1015 0 335 25 409 32 475 41 39 5
142 18 230 29 88 11 185 25 215 30 574 99 930 187 1405 346 226 76 310 106
433 155 12 5 33 14 47 19 14 6 35 14 48 19 12 5 43 18 69 30 26 12 50 21 53
21 2 0 28 11 57 24 29 13 76 34 103 46 140 62 436 205 545 265 47 25 123 67
170 92 226 123 634 380 878 554 565 403 941 724 1447 1235 160 161 295 291
302 291 6 -1 69 -63 140 -137z"/>
<path d="M14876 23159 c-241 -11 -490 -47 -681 -99 -454 -123 -922 -363 -1300
-666 -206 -165 -480 -447 -642 -660 -310 -408 -587 -975 -667 -1369 -78 -382
-91 -1191 -25 -1545 40 -211 126 -485 216 -690 70 -160 88 -196 153 -315 65
-121 74 -135 115 -200 251 -396 532 -721 830 -958 55 -44 100 -85 100 -90 0
-5 -54 -29 -120 -52 -497 -175 -1233 -568 -1740 -930 -537 -382 -1126 -978
-1526 -1545 -537 -759 -920 -1613 -1118 -2495 -18 -77 -34 -149 -37 -160 -40
-166 -92 -541 -123 -890 -27 -300 -50 -575 -53 -625 l-3 -55 515 0 514 0 7 40
c6 35 15 121 35 325 2 25 9 101 14 170 6 69 15 160 20 203 36 294 37 301 81
532 10 48 15 72 40 183 22 99 32 139 50 207 11 39 24 86 29 105 33 124 153
498 178 560 6 14 27 68 47 120 124 323 326 697 572 1058 665 979 1583 1714
2666 2136 143 56 450 158 572 191 100 28 128 35 170 45 22 5 58 14 80 19 219
59 634 126 930 151 269 22 678 2 1010 -50 33 -5 78 -12 100 -15 73 -11 317
-59 435 -86 291 -67 702 -191 895 -269 11 -5 63 -25 115 -45 52 -20 127 -51
165 -68 102 -46 448 -221 530 -268 207 -120 335 -164 452 -157 156 10 259 99
390 338 16 30 35 64 41 75 58 99 69 222 28 311 -49 105 -114 159 -401 329
-347 206 -731 383 -1255 580 -19 7 -36 19 -37 26 -1 8 24 33 57 57 248 180
574 534 797 867 237 352 445 819 524 1170 59 264 79 497 79 910 0 376 -15 557
-65 800 -99 482 -403 1064 -804 1540 -215 255 -530 541 -758 688 -24 15 -60
38 -80 51 -44 28 -281 155 -335 179 -90 40 -107 47 -183 76 -212 78 -411 137
-615 181 -177 39 -403 67 -596 75 -82 3 -165 7 -184 9 -19 1 -111 -1 -204 -5z
m394 -1074 c182 -7 322 -20 440 -42 93 -17 239 -60 255 -74 5 -5 15 -9 22 -9
34 0 374 -169 510 -254 406 -253 672 -554 910 -1031 131 -260 192 -423 213
-565 16 -104 23 -829 11 -1027 -17 -267 -55 -387 -236 -740 -298 -579 -619
-890 -1229 -1187 -216 -105 -324 -143 -476 -167 -121 -19 -1039 -19 -1160 0
-90 14 -214 48 -277 77 -318 141 -540 265 -730 408 -285 215 -542 539 -713
901 -227 481 -222 457 -222 1135 0 614 8 677 104 909 238 571 548 970 978
1258 171 114 472 261 690 336 110 38 259 65 395 72 66 4 122 9 125 12 3 3 57
3 120 -1 63 -3 185 -8 270 -11z"/>
<path d="M18645 14569 c-108 -20 -138 -31 -190 -64 -92 -58 -125 -138 -144
-340 -17 -185 -22 -374 -22 -822 l0 -413 -777 0 c-427 0 -783 -4 -790 -8 -10
-7 -12 -118 -10 -523 l3 -514 787 -3 788 -2 0 -786 c0 -432 2 -790 5 -795 10
-15 1078 -12 1093 3 9 9 12 199 12 795 l0 783 783 2 782 3 3 514 c2 405 0 516
-10 523 -7 4 -360 8 -784 8 l-771 0 -6 58 c-4 31 -7 138 -7 237 -1 99 -3 227
-5 285 -8 177 -25 799 -25 900 0 52 -4 101 -9 108 -8 14 -55 20 -351 42 -223
17 -303 19 -355 9z"/>
</g>
</svg>
