<svg width="40" height="40" viewBox="0 0 40 40" fill="none" xmlns="http://www.w3.org/2000/svg">
<path d="M17.9166 4.08333C19.0833 3.09999 20.9666 3.09999 22.1 4.08333L24.7333 6.33332C25.2333 6.74999 26.1833 7.09999 26.85 7.09999H29.6833C31.45 7.09999 32.9 8.54999 32.9 10.3167V13.15C32.9 13.8167 33.25 14.75 33.6666 15.25L35.9166 17.8833C36.9 19.05 36.9 20.9333 35.9166 22.0667L33.6666 24.7C33.25 25.2 32.9 26.1333 32.9 26.8V29.6333C32.9 31.4 31.45 32.85 29.6833 32.85H26.85C26.1833 32.85 25.25 33.2 24.75 33.6167L22.1166 35.8667C20.95 36.85 19.0666 36.85 17.9333 35.8667L15.3 33.6167C14.8 33.2 13.85 32.85 13.2 32.85H10.2833C8.51664 32.85 7.06664 31.4 7.06664 29.6333V26.7833C7.06664 26.1333 6.73331 25.1833 6.31664 24.7L4.06664 22.05C3.09998 20.9 3.09998 19.0333 4.06664 17.8833L6.31664 15.2333C6.73331 14.7333 7.06664 13.8 7.06664 13.15V10.3333C7.06664 8.56666 8.51664 7.11666 10.2833 7.11666H13.1666C13.8333 7.11666 14.7666 6.76666 15.2666 6.34999L17.9166 4.08333Z" stroke="#A91916" stroke-width="1.5" stroke-linecap="round" stroke-linejoin="round"/>
<path d="M20 13.55V21.6" stroke="#A91916" stroke-width="1.5" stroke-linecap="round" stroke-linejoin="round"/>
<path d="M19.9909 26.6667H20.0058" stroke="#A91916" stroke-width="2" stroke-linecap="round" stroke-linejoin="round"/>
</svg>
