<?xml version="1.0" standalone="no"?>
<!DOCTYPE svg PUBLIC "-//W3C//DTD SVG 20010904//EN"
 "http://www.w3.org/TR/2001/REC-SVG-20010904/DTD/svg10.dtd">
<svg version="1.0" xmlns="http://www.w3.org/2000/svg"
 width="3000.000000pt" height="3000.000000pt" viewBox="0 0 3000.000000 3000.000000"
 preserveAspectRatio="xMidYMid meet">

<g transform="translate(0.000000,3000.000000) scale(0.100000,-0.100000)"
fill="#000000" stroke="none">
<path d="M11945 29981 c-6 -6 -86 -12 -180 -16 -93 -3 -237 -8 -320 -11 -82
-3 -154 -9 -159 -15 -6 -5 -18 -9 -27 -9 -9 0 -22 -6 -29 -14 -9 -12 -63 -15
-294 -18 -248 -3 -285 -5 -309 -20 -15 -11 -46 -18 -74 -18 -32 0 -56 -7 -73
-20 -21 -17 -41 -20 -131 -20 -77 0 -110 -4 -125 -15 -12 -9 -42 -14 -82 -15
-40 0 -78 -7 -105 -19 -31 -14 -70 -20 -149 -23 -67 -2 -112 -8 -120 -16 -7
-7 -40 -12 -83 -12 -59 0 -75 -4 -90 -20 -15 -17 -31 -20 -105 -20 -60 0 -92
-4 -106 -15 -10 -8 -40 -17 -66 -21 -26 -4 -53 -13 -59 -20 -6 -8 -22 -14 -36
-14 -13 0 -40 -7 -61 -16 -20 -9 -63 -20 -96 -24 -32 -5 -61 -13 -65 -18 -3
-5 -25 -15 -48 -21 -23 -6 -45 -15 -47 -20 -3 -5 -40 -12 -81 -16 -41 -4 -75
-10 -75 -15 0 -5 -15 -11 -32 -15 -18 -4 -44 -14 -57 -22 -13 -9 -54 -18 -90
-21 -38 -3 -78 -13 -96 -24 -16 -10 -42 -18 -56 -18 -15 0 -32 -7 -39 -15 -7
-9 -29 -15 -50 -15 -21 0 -51 -7 -67 -15 -55 -29 -122 -55 -142 -55 -11 0 -23
-4 -26 -10 -3 -5 -21 -10 -38 -10 -18 0 -43 -9 -57 -20 -14 -11 -32 -20 -41
-20 -9 0 -22 -6 -28 -14 -6 -7 -29 -16 -50 -20 -22 -3 -63 -18 -93 -33 -59
-30 -60 -31 -105 -39 -18 -3 -38 -12 -44 -20 -6 -8 -21 -14 -34 -14 -12 0 -30
-9 -40 -20 -10 -11 -30 -20 -45 -20 -15 0 -63 -18 -106 -40 -43 -22 -84 -40
-90 -40 -6 0 -17 -6 -23 -14 -6 -7 -33 -16 -59 -18 -32 -3 -62 -15 -93 -37
-27 -20 -63 -35 -90 -38 -24 -3 -48 -12 -52 -19 -4 -8 -16 -14 -25 -14 -9 -1
-35 -9 -57 -20 -22 -11 -47 -19 -56 -20 -9 0 -22 -7 -29 -15 -7 -8 -18 -15
-24 -15 -6 0 -49 -25 -95 -55 -46 -30 -89 -55 -96 -55 -17 0 -93 -38 -100 -51
-6 -9 -50 -31 -67 -33 -4 -1 -13 -7 -19 -13 -7 -7 -17 -13 -23 -13 -5 0 -24
-11 -41 -25 -18 -13 -35 -21 -38 -18 -4 3 -22 -6 -41 -21 -19 -14 -41 -26 -48
-26 -7 0 -24 -9 -38 -20 -14 -11 -30 -20 -37 -20 -6 0 -24 -10 -40 -22 -39
-32 -70 -48 -89 -48 -9 0 -38 -18 -64 -40 -26 -22 -56 -40 -67 -40 -11 0 -32
-13 -47 -29 -16 -16 -44 -32 -64 -36 -20 -4 -48 -15 -63 -26 -15 -10 -31 -19
-37 -19 -5 0 -15 -7 -22 -15 -7 -8 -19 -15 -28 -15 -8 0 -29 -15 -46 -32 -17
-18 -51 -43 -76 -56 -40 -21 -107 -67 -150 -104 -43 -37 -94 -72 -107 -74 -9
-2 -30 -16 -47 -33 -18 -17 -37 -31 -42 -31 -6 0 -24 -13 -40 -30 -16 -16 -33
-30 -38 -30 -4 0 -31 -21 -59 -46 -28 -25 -64 -52 -81 -59 -45 -21 -96 -54
-155 -102 -29 -24 -57 -43 -61 -43 -5 0 -30 -18 -55 -40 -25 -22 -52 -40 -59
-40 -13 0 -49 -32 -217 -197 -63 -62 -119 -113 -124 -113 -4 0 -22 -16 -41
-35 -18 -19 -37 -35 -42 -35 -5 0 -69 -58 -143 -128 -74 -71 -142 -131 -152
-135 -11 -4 -21 -16 -24 -27 -3 -11 -11 -20 -19 -20 -7 0 -66 -49 -129 -110
-64 -60 -122 -110 -128 -110 -13 0 -167 -150 -167 -163 0 -4 -12 -20 -28 -35
-15 -15 -34 -36 -42 -48 -8 -12 -53 -62 -100 -113 -46 -50 -88 -99 -94 -109
-5 -9 -51 -63 -103 -118 -51 -56 -93 -104 -93 -108 0 -3 -24 -32 -54 -63 -30
-32 -63 -67 -73 -79 -10 -11 -71 -77 -135 -146 -65 -69 -118 -129 -118 -133 0
-4 -16 -29 -35 -55 -19 -26 -35 -52 -35 -57 0 -6 -25 -34 -55 -64 -31 -30 -58
-65 -62 -79 -3 -14 -21 -43 -40 -66 -18 -23 -33 -45 -33 -50 0 -5 -16 -29 -35
-53 -19 -24 -35 -48 -35 -52 0 -5 -7 -9 -15 -9 -8 0 -15 -7 -15 -16 0 -9 -18
-38 -40 -64 -22 -26 -40 -52 -40 -58 0 -5 -37 -59 -83 -119 -90 -120 -101
-136 -120 -173 -6 -14 -24 -37 -40 -52 -15 -15 -27 -31 -27 -35 0 -5 -13 -25
-29 -44 -17 -20 -38 -56 -47 -80 -9 -24 -30 -58 -45 -74 -16 -17 -29 -37 -29
-44 0 -23 -33 -85 -67 -125 -18 -22 -33 -47 -33 -55 0 -18 -51 -124 -62 -129
-5 -2 -8 -8 -8 -13 0 -15 -71 -159 -81 -165 -5 -3 -9 -13 -9 -23 0 -10 -11
-28 -25 -41 -14 -13 -25 -33 -25 -45 0 -12 -9 -30 -19 -39 -11 -10 -31 -43
-46 -74 -14 -32 -30 -64 -35 -72 -21 -34 -60 -112 -60 -120 0 -8 -53 -98 -83
-140 -9 -13 -17 -39 -17 -56 0 -17 -7 -37 -15 -44 -8 -7 -15 -22 -15 -34 0
-11 -9 -32 -20 -46 -11 -14 -20 -37 -20 -52 0 -15 -4 -29 -10 -33 -18 -11 -70
-126 -70 -155 0 -27 -22 -76 -56 -125 -8 -11 -14 -32 -14 -47 0 -16 -4 -28 -9
-28 -5 0 -13 -15 -17 -32 -3 -18 -15 -44 -25 -57 -11 -13 -19 -35 -19 -50 0
-22 -22 -79 -52 -131 -4 -8 -10 -21 -13 -27 -12 -30 -18 -49 -21 -60 -5 -25
-29 -73 -36 -73 -5 0 -8 -7 -8 -15 0 -9 -7 -27 -16 -40 -9 -13 -13 -29 -10
-34 4 -5 2 -12 -4 -16 -5 -3 -10 -13 -10 -21 0 -8 -8 -34 -19 -57 -29 -67 -34
-81 -32 -91 1 -4 -2 -13 -7 -20 -5 -6 -12 -37 -16 -69 -3 -32 -13 -68 -20 -80
-8 -12 -18 -43 -21 -70 -4 -26 -11 -50 -16 -53 -5 -3 -9 -18 -9 -33 0 -15 -7
-36 -15 -47 -8 -11 -15 -41 -15 -70 0 -36 -6 -59 -20 -77 -11 -14 -20 -38 -20
-54 0 -15 -9 -41 -20 -58 -13 -20 -20 -47 -20 -81 0 -31 -5 -56 -13 -63 -8 -6
-19 -29 -26 -51 -6 -22 -16 -40 -21 -40 -6 0 -10 -28 -10 -62 0 -36 -6 -75
-15 -92 -8 -15 -15 -34 -15 -40 0 -6 -9 -28 -19 -49 -13 -25 -21 -71 -26 -139
-4 -60 -13 -111 -21 -123 -8 -11 -14 -44 -14 -75 0 -37 -6 -64 -17 -80 -14
-20 -19 -51 -22 -145 -2 -81 -8 -126 -17 -140 -8 -11 -14 -35 -14 -55 0 -19
-8 -48 -17 -65 -10 -18 -20 -67 -25 -125 -13 -168 -20 -215 -29 -224 -5 -6 -9
-29 -9 -52 0 -25 -6 -47 -15 -54 -8 -7 -15 -20 -15 -30 0 -9 -2 -19 -5 -22 -3
-3 -8 -111 -10 -239 -2 -129 -9 -250 -15 -269 -5 -19 -10 -73 -10 -120 0 -47
-4 -90 -9 -95 -13 -14 -21 -112 -27 -345 -3 -113 -10 -209 -15 -214 -12 -13
-12 -459 0 -471 5 -6 12 -104 15 -220 6 -232 13 -325 27 -340 5 -5 9 -38 9
-75 0 -36 4 -90 9 -122 5 -31 12 -150 16 -265 6 -203 18 -303 36 -303 5 0 9
-22 9 -49 0 -27 5 -62 11 -78 13 -33 17 -66 25 -193 4 -67 10 -100 22 -113 9
-11 17 -42 20 -80 2 -34 10 -69 17 -77 8 -10 14 -59 17 -142 3 -97 8 -131 20
-145 9 -11 17 -45 21 -86 2 -37 9 -73 15 -80 5 -6 13 -55 17 -107 4 -53 14
-104 21 -115 8 -11 14 -29 14 -40 0 -11 7 -33 16 -50 9 -16 18 -55 21 -85 3
-31 14 -66 24 -79 11 -13 19 -32 19 -41 0 -10 7 -23 15 -30 10 -8 15 -30 15
-61 0 -30 8 -64 20 -86 11 -21 20 -53 20 -71 0 -19 9 -45 20 -59 11 -14 20
-36 20 -48 0 -13 7 -36 15 -51 8 -16 15 -44 15 -62 0 -18 4 -41 10 -52 5 -11
15 -29 20 -40 6 -11 10 -29 10 -39 0 -11 4 -22 9 -26 5 -3 12 -31 16 -63 3
-31 10 -65 16 -75 5 -10 7 -22 4 -26 -2 -5 2 -14 10 -21 8 -7 15 -23 15 -36 0
-12 4 -25 9 -28 5 -4 12 -24 16 -46 4 -22 11 -42 15 -45 5 -3 7 -11 4 -18 -2
-7 9 -33 26 -58 16 -24 37 -67 46 -96 8 -28 21 -57 29 -63 8 -7 15 -27 15 -45
0 -18 9 -44 20 -58 11 -14 20 -31 20 -39 0 -7 11 -34 25 -60 14 -26 25 -57 25
-70 0 -13 20 -63 45 -111 25 -49 45 -98 45 -110 0 -12 9 -37 20 -55 11 -18 20
-37 20 -43 0 -6 9 -22 20 -36 12 -15 20 -41 20 -63 0 -24 7 -43 20 -55 11 -10
20 -25 20 -34 0 -9 7 -25 15 -35 8 -11 15 -34 15 -52 0 -17 8 -42 18 -55 10
-13 36 -59 57 -102 21 -43 42 -80 46 -83 4 -2 22 -32 38 -67 33 -66 57 -109
84 -151 9 -14 17 -30 17 -37 0 -6 10 -25 22 -42 13 -18 31 -48 41 -67 10 -19
33 -62 52 -95 19 -33 39 -71 45 -85 5 -14 15 -32 20 -40 6 -8 15 -26 21 -40 6
-14 15 -32 20 -40 5 -8 16 -29 24 -47 9 -17 25 -39 36 -49 10 -9 19 -25 19
-34 0 -9 11 -31 25 -50 14 -19 25 -39 25 -46 0 -6 7 -17 15 -24 8 -7 15 -20
15 -30 0 -10 18 -40 40 -66 22 -27 40 -52 40 -57 0 -5 13 -27 28 -50 16 -23
41 -61 57 -84 15 -24 31 -43 36 -43 4 0 11 -10 15 -22 3 -13 21 -41 39 -63 18
-22 39 -53 48 -70 8 -16 39 -57 69 -90 30 -33 62 -77 71 -97 10 -20 24 -44 33
-52 20 -20 84 -116 84 -125 0 -5 9 -16 20 -26 11 -10 20 -23 20 -30 0 -6 10
-20 23 -32 43 -38 78 -85 111 -148 14 -27 69 -97 125 -162 25 -28 71 -82 101
-118 30 -37 65 -77 78 -88 12 -11 22 -25 22 -30 0 -4 26 -35 58 -67 31 -32 71
-76 87 -96 17 -21 64 -74 106 -119 42 -44 78 -85 80 -91 4 -13 367 -392 414
-433 16 -14 68 -63 115 -109 48 -45 90 -82 95 -82 4 0 36 -26 70 -57 34 -32
115 -107 180 -168 66 -60 138 -129 161 -152 23 -24 47 -43 53 -43 7 0 21 -16
32 -35 12 -19 29 -35 38 -35 9 0 50 -34 91 -75 41 -41 79 -75 85 -75 6 0 35
-25 65 -55 30 -30 59 -55 65 -55 6 0 30 -20 55 -45 41 -42 75 -64 107 -71 12
-2 63 -41 133 -102 21 -17 41 -32 45 -32 4 0 31 -20 59 -45 29 -25 58 -45 64
-45 6 0 34 -20 63 -45 29 -25 57 -45 62 -45 5 0 33 -20 61 -45 29 -25 57 -45
61 -45 17 0 102 -59 175 -123 43 -37 84 -67 90 -67 7 0 29 -12 49 -27 46 -36
70 -50 101 -64 14 -6 32 -15 40 -20 8 -5 34 -18 56 -30 23 -11 59 -35 80 -53
22 -18 53 -36 71 -40 17 -4 49 -20 70 -35 22 -16 56 -34 76 -42 20 -7 37 -17
37 -21 0 -4 6 -8 14 -8 7 0 19 -7 27 -16 7 -9 33 -25 58 -36 25 -11 53 -24 61
-29 8 -5 34 -19 57 -30 23 -11 45 -24 48 -29 3 -6 15 -10 26 -10 10 0 36 -16
58 -35 21 -19 47 -35 58 -35 11 0 31 -8 44 -18 53 -38 154 -92 173 -92 7 0 21
-9 31 -20 10 -11 28 -20 41 -20 13 0 25 -4 28 -9 4 -5 24 -12 46 -16 22 -4 40
-11 40 -16 0 -6 4 -8 9 -5 5 3 14 -1 21 -9 7 -8 17 -15 23 -15 16 0 115 -49
122 -60 3 -6 17 -10 30 -10 13 0 26 -4 29 -9 3 -4 21 -11 41 -14 19 -3 56 -20
81 -36 25 -17 57 -31 71 -31 22 0 115 -39 226 -96 16 -8 33 -14 39 -14 6 0 36
-12 67 -26 82 -38 92 -42 131 -50 19 -4 46 -15 59 -25 13 -11 31 -19 40 -19 9
0 25 -7 35 -15 11 -8 32 -15 48 -15 15 0 45 -9 65 -20 21 -11 50 -20 64 -20
15 0 32 -6 38 -14 6 -7 34 -16 63 -19 28 -4 56 -11 62 -17 5 -5 21 -10 33 -10
13 0 36 -9 52 -21 17 -12 49 -22 87 -25 32 -3 73 -12 91 -20 17 -8 35 -14 40
-14 5 0 28 -9 51 -20 24 -12 61 -20 91 -20 27 0 52 -4 55 -9 3 -5 21 -12 39
-15 18 -3 49 -15 70 -26 20 -11 46 -20 56 -20 11 0 23 -5 26 -10 3 -6 21 -10
39 -10 19 0 39 -7 46 -15 7 -8 16 -12 21 -10 4 3 26 -6 48 -20 33 -20 53 -25
109 -25 101 0 244 -30 287 -61 6 -3 78 -10 160 -14 101 -4 157 -11 172 -21 12
-8 34 -14 49 -14 14 0 38 -7 52 -15 17 -9 78 -18 165 -23 77 -6 144 -15 150
-21 6 -6 36 -11 67 -11 43 0 61 -5 74 -19 14 -16 39 -19 189 -25 94 -4 176
-11 182 -16 6 -5 105 -12 220 -15 141 -5 217 -11 230 -20 14 -9 101 -15 285
-20 179 -5 267 -11 272 -19 5 -7 69 -12 193 -14 151 -3 191 0 209 11 17 11 78
17 262 22 169 5 243 11 254 20 10 8 75 15 200 20 102 4 190 11 195 15 6 5 81
12 168 16 124 5 166 11 195 25 21 11 57 19 88 19 33 0 54 5 56 13 3 8 36 13
104 15 54 2 106 6 114 9 8 3 34 5 57 4 26 -2 52 4 65 13 13 9 43 16 69 16 27
0 49 5 51 11 3 8 60 15 163 21 103 5 171 14 192 23 17 8 42 15 55 15 13 0 43
9 66 20 29 14 61 20 111 20 44 0 85 6 108 17 21 9 56 25 79 35 22 10 57 18 77
18 20 0 37 5 37 10 0 6 20 10 44 10 26 0 66 10 98 25 29 14 65 25 81 25 15 0
27 5 27 10 0 6 29 10 68 10 48 0 79 6 107 20 22 11 48 20 58 20 10 0 33 6 50
14 18 8 61 16 97 19 47 3 80 13 122 35 31 17 73 34 95 37 21 4 48 13 60 21 12
8 29 14 36 14 8 0 26 9 40 20 14 11 37 20 51 20 14 0 43 9 63 20 21 11 47 20
58 20 11 0 31 9 45 20 14 11 39 20 56 20 17 0 62 16 100 35 37 19 77 35 89 35
11 0 28 7 38 15 11 7 36 16 57 20 22 4 44 13 51 21 6 8 22 14 35 14 12 0 25 4
28 9 3 4 33 14 66 21 33 7 60 17 60 21 0 5 6 9 14 9 7 0 19 7 26 15 7 8 18 14
24 13 18 -3 61 17 169 79 33 18 63 33 67 33 4 0 35 15 68 34 33 19 74 37 91
41 16 3 35 13 42 21 6 8 17 14 24 14 7 0 18 7 25 15 7 8 27 15 45 15 23 0 46
11 74 34 43 36 52 40 114 51 22 3 37 11 37 20 0 18 42 40 93 49 21 4 59 23 83
42 28 21 57 34 75 34 16 0 29 5 29 10 0 6 5 10 11 10 6 0 25 10 42 23 37 26
63 42 97 59 14 6 44 27 67 45 23 18 47 33 53 33 6 0 26 11 44 25 18 14 38 25
45 25 7 0 36 20 64 43 29 24 73 54 99 66 25 12 65 35 87 51 23 17 46 30 51 30
6 0 13 6 16 14 3 8 18 18 34 21 16 3 31 13 34 21 3 8 14 14 24 14 10 0 33 16
52 35 19 19 41 35 51 35 9 0 28 9 42 20 14 11 31 20 39 20 8 0 27 14 43 30 16
17 33 30 37 30 5 0 32 17 61 38 82 58 91 63 130 76 9 3 22 17 27 31 5 14 21
30 35 35 14 5 28 17 31 25 4 8 12 15 20 15 8 0 14 7 14 15 0 8 6 15 13 15 7 0
31 15 53 33 21 18 71 55 109 82 39 27 74 55 78 62 4 7 13 13 19 13 6 0 35 23
64 50 29 28 58 50 64 50 11 0 116 82 178 140 18 16 36 30 41 30 4 0 18 11 31
25 16 17 34 25 58 25 34 0 80 -45 837 -801 440 -440 812 -806 825 -812 14 -7
30 -23 36 -36 15 -29 85 -101 99 -101 14 0 231 -220 238 -243 4 -9 15 -20 24
-24 25 -8 533 -515 533 -531 0 -7 10 -16 23 -21 26 -11 159 -145 176 -178 7
-13 17 -23 24 -23 13 0 629 -610 2045 -2022 440 -439 805 -798 811 -798 6 0
11 -7 11 -15 0 -8 6 -15 13 -15 6 0 25 -18 40 -40 16 -22 33 -40 38 -40 8 0
49 -36 49 -43 0 -6 302 -307 309 -308 3 0 28 -27 55 -60 27 -34 60 -66 73 -72
12 -5 23 -16 23 -22 0 -17 33 -45 52 -45 9 0 25 -17 35 -37 11 -24 27 -40 42
-43 14 -3 31 -19 40 -38 9 -17 20 -32 26 -32 11 0 21 -10 680 -664 961 -955
1228 -1216 1242 -1216 8 0 29 -11 47 -25 18 -14 36 -25 40 -25 4 0 23 -12 42
-26 19 -15 34 -23 34 -19 0 4 19 -7 42 -24 23 -17 49 -31 58 -31 8 0 24 -6 35
-14 11 -7 34 -17 52 -20 17 -4 37 -14 44 -22 8 -10 33 -14 84 -14 52 0 76 -4
85 -15 15 -18 61 -20 77 -4 6 6 48 15 92 19 45 5 91 16 103 24 12 9 37 16 54
16 17 0 37 7 44 15 7 8 21 15 31 15 10 0 34 13 52 30 19 16 37 27 41 23 3 -3
6 -1 6 5 0 7 7 12 15 12 8 0 32 16 54 35 21 19 43 35 48 35 15 0 98 93 133
150 19 30 40 59 47 63 7 4 13 13 13 19 0 7 11 23 24 37 36 38 62 84 101 176 6
17 23 53 36 80 21 45 24 64 24 180 0 72 -4 139 -9 150 -5 11 -10 22 -11 25 -4
10 -25 56 -34 70 -5 8 -22 45 -39 81 -17 36 -38 72 -47 79 -8 7 -15 19 -15 27
0 14 -23 55 -47 83 -56 66 -74 90 -80 108 -7 18 -1522 1550 -2165 2190 -142
141 -258 259 -258 262 0 3 -158 165 -352 359 -194 194 -357 363 -363 374 -6
12 -20 26 -31 32 -29 14 -104 87 -104 100 0 13 -42 55 -55 55 -7 0 -670 663
-712 711 -6 8 -28 27 -47 44 -20 16 -36 35 -36 42 0 7 -4 13 -10 13 -12 0
-132 120 -178 178 -18 23 -39 42 -45 42 -14 0 -47 35 -47 50 0 6 -11 15 -25
20 -14 5 -25 15 -25 23 0 15 -61 77 -76 77 -12 0 -48 39 -57 63 -3 9 -12 17
-18 17 -13 0 -59 41 -59 53 0 14 -223 237 -237 237 -7 0 -13 5 -13 11 0 15
-221 239 -236 239 -7 0 -14 7 -16 15 -2 8 -690 703 -1530 1545 l-1528 1530 0
55 c0 42 5 60 20 75 11 11 20 24 20 28 0 4 27 36 60 71 33 35 60 69 60 75 0 6
22 36 50 66 27 30 50 61 50 68 0 6 5 12 10 12 6 0 13 8 17 17 4 10 28 43 55
74 26 31 48 62 48 68 0 6 7 11 14 11 14 0 32 26 58 83 7 15 18 27 25 27 6 0
15 9 18 20 3 11 10 20 15 20 4 0 19 19 33 43 14 23 39 55 56 71 17 17 31 35
31 41 0 6 14 24 31 41 17 16 37 44 44 61 8 18 18 33 24 33 5 0 26 33 46 74 20
41 43 80 51 86 8 7 14 18 14 25 0 6 9 20 20 30 11 10 20 26 20 35 0 9 9 25 19
34 11 10 22 29 26 44 3 14 22 43 41 64 19 21 34 43 34 49 0 5 16 31 35 56 19
25 35 51 35 58 0 6 16 30 35 52 19 23 35 48 35 56 0 8 7 20 15 27 8 6 17 22
21 33 4 12 22 40 40 61 19 22 34 47 34 56 0 9 14 29 30 45 17 16 30 36 30 45
0 10 15 37 34 61 18 25 37 60 41 79 4 19 15 46 24 60 9 14 25 43 35 65 25 53
34 71 57 112 10 18 19 41 19 51 0 9 9 28 20 42 11 14 20 33 20 42 0 9 11 29
24 45 31 37 56 87 56 111 0 11 7 25 15 32 8 7 15 18 15 24 0 6 11 31 24 56 30
56 69 136 104 215 14 33 31 67 37 75 16 20 55 107 55 120 0 6 9 24 21 39 12
16 22 43 24 60 1 17 5 34 9 38 3 3 6 19 6 33 0 15 7 33 15 40 8 7 15 19 15 27
0 7 7 25 16 39 9 13 21 46 25 71 5 26 19 67 30 92 33 72 37 84 43 118 5 28 32
99 57 145 5 10 9 29 9 44 0 14 9 37 20 51 11 14 20 39 20 56 0 17 7 38 16 48
9 10 19 39 21 63 3 25 12 51 19 57 8 6 14 19 14 28 0 9 9 30 20 46 12 19 20
47 20 75 0 26 5 51 12 58 7 7 9 12 6 12 -4 0 0 16 8 35 7 19 14 47 14 63 0 15
9 47 20 70 11 22 20 59 20 81 0 22 4 42 9 45 5 3 12 36 16 73 4 38 13 75 20
83 7 8 15 35 19 59 4 24 13 53 21 64 10 15 15 47 15 103 0 68 3 84 20 99 11
10 20 27 20 37 0 10 8 31 17 45 13 19 18 53 21 127 2 59 9 114 18 133 8 17 14
45 14 61 0 17 5 34 10 37 6 3 10 23 10 44 0 20 4 41 9 46 5 6 12 62 15 125 10
175 21 277 33 292 11 13 15 41 28 178 3 36 10 74 15 85 5 11 11 73 13 137 2
65 9 124 15 131 12 14 21 140 28 417 3 107 9 199 14 204 6 6 10 107 10 241 0
188 3 235 15 251 21 28 21 280 0 320 -12 23 -15 70 -15 221 0 117 -4 194 -10
198 -6 4 -10 75 -10 180 0 105 -4 176 -10 180 -6 4 -10 63 -10 144 0 93 -4
141 -12 149 -8 8 -13 60 -15 149 -2 76 -8 147 -13 158 -9 20 -16 65 -27 165
-3 30 -11 64 -19 75 -8 10 -14 41 -14 67 0 26 -3 49 -7 51 -5 3 -10 43 -11 88
-2 46 -8 91 -13 101 -5 9 -9 28 -9 42 0 14 -4 28 -10 31 -5 3 -10 23 -10 44 0
21 -6 44 -13 50 -9 6 -14 35 -15 73 -4 136 -14 228 -28 239 -9 7 -14 32 -14
69 0 43 -5 61 -19 74 -14 13 -20 35 -23 95 -3 50 -10 86 -21 102 -9 13 -17 35
-17 49 0 14 -7 36 -16 48 -8 12 -18 48 -21 80 -3 31 -12 66 -19 77 -6 11 -15
35 -19 53 -4 17 -10 32 -14 32 -5 0 -11 23 -14 50 -3 28 -13 60 -22 72 -8 13
-15 39 -15 59 0 20 -7 42 -15 49 -8 7 -17 28 -20 49 -3 20 -12 50 -20 68 -8
17 -17 58 -21 92 -3 33 -13 66 -20 72 -8 6 -14 19 -14 28 0 9 -7 26 -15 39 -9
12 -18 45 -21 74 -6 55 -7 60 -43 141 -12 27 -24 62 -28 78 -3 16 -10 32 -14
35 -5 3 -9 12 -9 21 0 8 -11 37 -25 65 -14 27 -25 58 -25 68 0 10 -5 22 -10
25 -6 4 -9 12 -8 18 2 7 -7 26 -20 44 -12 17 -22 37 -22 45 0 8 -4 18 -10 24
-5 5 -10 26 -12 47 -1 24 -10 45 -25 59 -13 12 -23 28 -23 35 0 8 -9 33 -20
55 -11 23 -20 52 -20 64 0 12 -7 27 -14 34 -23 19 -53 91 -61 144 -4 33 -17
62 -36 85 -16 20 -29 45 -29 56 0 11 -9 37 -20 58 -11 20 -20 43 -20 51 0 7
-6 19 -14 25 -8 7 -17 28 -21 47 -6 34 -47 120 -66 139 -5 5 -9 16 -9 26 0 9
-9 28 -20 42 -11 14 -20 30 -20 36 0 6 -20 41 -43 78 -24 37 -58 97 -76 133
-18 36 -39 76 -46 90 -8 14 -23 46 -35 72 -11 25 -27 49 -34 51 -13 5 -58 87
-57 104 0 4 -9 17 -19 28 -27 29 -70 112 -70 136 0 12 -16 39 -35 62 -19 22
-35 46 -35 53 0 6 -7 17 -15 24 -8 7 -15 23 -15 35 0 12 -6 28 -14 34 -7 6
-29 42 -47 79 -19 37 -54 90 -78 117 -24 28 -49 61 -54 75 -6 14 -26 43 -44
64 -18 22 -33 45 -33 52 0 7 -13 25 -29 41 -15 16 -32 40 -36 53 -4 14 -34 53
-66 88 -33 34 -59 69 -59 76 0 8 -18 36 -40 62 -22 27 -40 53 -40 57 0 5 -22
35 -50 67 -27 31 -53 66 -58 76 -17 42 -76 124 -88 124 -8 0 -14 6 -14 14 0 8
-18 36 -40 61 -22 25 -40 51 -40 58 0 6 -13 25 -29 42 -16 16 -38 45 -48 64
-10 18 -23 33 -28 33 -14 -1 -75 60 -75 75 0 7 -7 13 -15 13 -9 0 -19 9 -23
20 -4 11 -100 117 -212 236 -113 119 -208 224 -212 235 -4 10 -14 19 -23 19
-8 0 -15 7 -15 15 0 8 -40 57 -90 108 -49 52 -90 98 -90 103 0 14 -143 154
-157 154 -7 0 -13 6 -13 13 0 15 -41 57 -56 57 -5 1 -70 59 -143 130 -74 72
-139 130 -144 130 -11 0 -37 26 -37 38 0 5 -9 13 -19 18 -11 5 -95 81 -186
169 -92 88 -172 162 -178 164 -5 2 -23 19 -40 37 -16 19 -34 34 -41 34 -7 0
-28 16 -47 36 -18 20 -63 56 -99 79 -36 24 -83 62 -105 84 -21 23 -46 41 -53
41 -8 0 -34 16 -58 35 -23 19 -45 35 -49 35 -4 0 -30 18 -57 40 -28 22 -56 40
-63 40 -7 0 -39 25 -71 55 -33 30 -66 55 -74 55 -9 0 -41 23 -72 50 -31 28
-59 50 -62 50 -9 0 -70 44 -101 73 -16 15 -37 27 -46 27 -9 0 -35 18 -57 40
-22 22 -45 40 -51 40 -6 0 -11 5 -11 10 0 6 -7 10 -15 10 -9 0 -34 17 -58 39
-23 21 -55 41 -70 45 -16 4 -41 19 -56 35 -17 18 -43 30 -70 35 -30 4 -50 15
-68 36 -14 17 -33 30 -43 30 -10 0 -23 6 -29 14 -7 8 -25 18 -41 21 -16 3 -34
12 -40 20 -6 8 -26 17 -43 21 -18 3 -49 22 -70 40 -20 19 -45 34 -55 34 -9 0
-30 11 -47 25 -30 25 -87 55 -114 61 -8 1 -26 11 -40 21 -14 11 -56 33 -92 51
-36 17 -72 38 -79 47 -7 8 -19 15 -27 15 -8 0 -29 11 -47 25 -18 14 -39 25
-45 25 -7 0 -25 8 -39 18 -54 35 -68 43 -99 57 -17 8 -34 19 -38 25 -3 5 -15
10 -26 10 -10 0 -36 9 -56 20 -21 11 -46 20 -56 20 -11 0 -31 7 -45 14 -44 24
-123 56 -139 56 -8 0 -26 9 -40 20 -14 11 -38 20 -53 20 -15 0 -30 6 -33 14
-3 7 -20 16 -37 19 -17 4 -43 16 -57 27 -14 11 -31 20 -39 20 -7 0 -14 5 -16
11 -2 6 -26 13 -53 16 -28 3 -61 14 -74 24 -13 11 -32 19 -41 19 -10 0 -23 7
-30 15 -7 8 -23 15 -36 15 -12 0 -26 5 -29 10 -4 6 -10 8 -14 6 -4 -3 -38 10
-76 29 -38 19 -81 35 -96 35 -14 0 -32 7 -39 15 -7 8 -22 15 -35 15 -12 0 -30
9 -40 20 -11 12 -31 20 -52 20 -18 0 -41 4 -51 9 -47 23 -91 41 -127 51 -22 7
-44 16 -50 21 -5 5 -25 9 -45 9 -19 0 -48 7 -64 15 -15 8 -38 15 -49 15 -11 0
-39 9 -61 19 -23 10 -63 21 -89 24 -26 2 -56 12 -66 21 -10 9 -33 16 -52 16
-19 0 -44 6 -55 14 -12 8 -45 18 -75 22 -30 4 -65 12 -79 19 -82 41 -121 55
-152 55 -19 0 -38 3 -42 8 -4 4 -11 7 -14 8 -4 0 -14 3 -22 7 -8 3 -32 8 -54
11 -21 3 -43 12 -50 19 -6 9 -37 17 -71 20 -33 3 -73 12 -90 21 -18 10 -55 16
-94 16 -43 0 -70 5 -81 15 -10 9 -49 17 -105 21 -49 4 -100 13 -114 21 -16 7
-59 13 -107 13 -56 0 -91 5 -115 17 -19 10 -65 19 -104 21 -38 3 -73 9 -77 16
-5 7 -52 12 -125 14 -97 3 -121 7 -141 23 -17 13 -41 19 -74 19 -30 0 -59 7
-75 18 -24 15 -61 17 -309 20 -231 3 -285 6 -294 18 -7 8 -30 14 -51 14 -21 0
-41 5 -44 10 -4 6 -62 10 -140 10 -78 0 -136 4 -140 10 -4 6 -70 10 -165 10
-95 0 -161 4 -165 10 -8 13 -367 13 -380 1z m380 -1911 c50 -6 110 -14 135
-20 44 -9 208 -21 560 -41 310 -17 333 -19 453 -44 65 -14 164 -29 220 -34 56
-6 146 -21 200 -35 54 -14 144 -30 200 -37 93 -10 239 -36 342 -60 22 -5 81
-15 132 -23 51 -8 141 -30 200 -49 59 -19 142 -42 183 -52 41 -9 102 -28 136
-41 33 -13 69 -24 79 -24 10 0 48 -9 84 -20 36 -11 120 -36 186 -54 66 -19
134 -39 150 -44 17 -6 57 -18 90 -27 33 -10 81 -28 108 -41 26 -13 66 -28 89
-34 22 -7 78 -29 123 -51 46 -21 89 -39 97 -39 7 0 46 -16 87 -35 40 -19 77
-35 82 -35 9 0 132 -50 319 -130 36 -16 76 -31 90 -35 14 -4 48 -20 75 -35 28
-16 70 -39 95 -53 112 -60 168 -92 210 -117 50 -31 253 -143 313 -172 21 -11
63 -35 92 -54 30 -19 58 -34 64 -34 5 0 33 -16 62 -36 30 -20 74 -46 99 -59
25 -13 92 -57 149 -99 57 -42 109 -76 115 -76 6 0 47 -27 91 -60 92 -68 122
-89 185 -130 158 -103 378 -262 455 -329 50 -43 118 -101 153 -130 35 -29 112
-99 172 -155 59 -57 175 -159 257 -227 167 -140 320 -289 473 -463 446 -504
548 -628 649 -792 28 -44 72 -108 98 -142 26 -33 70 -94 96 -134 27 -40 86
-127 132 -193 128 -184 231 -346 291 -460 20 -38 44 -79 53 -90 10 -11 24 -36
31 -55 8 -19 28 -60 46 -90 52 -92 125 -221 170 -304 24 -44 50 -86 58 -95 7
-9 17 -26 21 -39 3 -12 24 -52 46 -89 21 -37 39 -74 39 -81 0 -8 18 -55 40
-104 22 -50 40 -96 40 -103 0 -6 11 -34 26 -61 14 -27 34 -78 45 -114 12 -36
26 -74 33 -85 7 -11 29 -63 50 -115 21 -52 44 -108 52 -125 53 -115 184 -499
184 -541 0 -7 18 -70 40 -139 22 -69 40 -135 40 -145 0 -11 15 -64 34 -119 19
-54 39 -130 45 -169 6 -38 22 -92 35 -118 15 -31 31 -91 42 -159 9 -60 25
-140 35 -176 10 -37 23 -107 28 -155 16 -142 40 -288 55 -332 8 -22 17 -66 21
-98 16 -144 37 -282 49 -333 18 -70 33 -241 47 -536 6 -126 15 -255 20 -285
15 -89 32 -335 33 -475 0 -124 -5 -187 -38 -495 -8 -74 -17 -205 -21 -290 -9
-221 -24 -405 -40 -475 -7 -33 -20 -114 -29 -180 -26 -190 -38 -259 -47 -277
-11 -20 -36 -180 -49 -308 -6 -52 -19 -120 -30 -152 -11 -32 -20 -71 -20 -87
0 -51 -37 -217 -58 -257 -11 -22 -25 -69 -32 -105 -6 -35 -26 -103 -45 -152
-19 -48 -35 -97 -35 -109 0 -12 -18 -74 -39 -137 -22 -64 -42 -132 -46 -151
-4 -19 -25 -88 -46 -153 -21 -65 -39 -127 -39 -138 0 -11 -11 -41 -24 -67 -13
-26 -49 -112 -80 -192 -31 -80 -69 -172 -85 -205 -16 -33 -37 -82 -46 -110
-10 -27 -28 -72 -41 -99 -13 -28 -24 -58 -24 -68 0 -10 -15 -49 -34 -86 -19
-37 -39 -87 -46 -111 -10 -38 -116 -242 -240 -461 -24 -41 -56 -100 -73 -130
-16 -30 -48 -86 -70 -125 -84 -147 -157 -279 -157 -283 0 -12 -130 -205 -205
-307 -45 -60 -89 -124 -98 -141 -9 -17 -35 -55 -60 -85 -24 -30 -59 -76 -78
-103 -59 -83 -142 -203 -203 -294 -33 -48 -125 -159 -205 -247 -80 -88 -163
-180 -186 -205 -305 -341 -519 -562 -644 -664 -140 -114 -285 -243 -451 -400
-128 -122 -335 -286 -465 -369 -67 -43 -201 -143 -210 -156 -3 -6 -25 -21 -48
-33 -23 -11 -55 -31 -72 -45 -156 -124 -317 -233 -440 -299 -49 -26 -97 -53
-105 -60 -8 -7 -44 -27 -80 -44 -36 -18 -72 -39 -81 -47 -9 -7 -45 -28 -80
-47 -59 -30 -184 -99 -284 -156 -22 -12 -74 -41 -115 -62 -41 -22 -79 -44 -85
-48 -11 -8 -160 -71 -270 -115 -38 -15 -75 -31 -81 -36 -6 -5 -40 -18 -75 -30
-35 -11 -91 -33 -124 -49 -85 -41 -217 -97 -305 -130 -41 -16 -102 -40 -135
-54 -33 -14 -74 -26 -90 -26 -17 0 -39 -6 -50 -13 -32 -21 -105 -46 -170 -57
-33 -6 -96 -24 -140 -40 -44 -15 -118 -38 -165 -50 -215 -54 -250 -63 -320
-87 -41 -13 -108 -31 -148 -38 -40 -8 -77 -17 -82 -20 -4 -3 -43 -10 -86 -16
-43 -6 -86 -15 -96 -20 -10 -5 -102 -21 -204 -34 -102 -14 -189 -27 -193 -30
-21 -12 -209 -45 -313 -54 -65 -6 -126 -15 -137 -20 -22 -12 -262 -50 -306
-48 -71 2 -455 -16 -510 -24 -221 -34 -533 -58 -631 -48 -43 5 -149 14 -234
22 -86 7 -160 16 -166 19 -17 11 -95 16 -344 23 -249 7 -457 30 -530 59 -19 8
-83 17 -142 21 -92 5 -276 36 -299 51 -5 3 -90 16 -191 30 -100 13 -198 29
-218 35 -19 5 -69 16 -110 24 -41 8 -100 20 -130 26 -30 6 -68 19 -85 29 -16
9 -43 20 -60 23 -119 25 -168 38 -202 55 -21 11 -68 25 -104 32 -35 6 -93 23
-129 37 -36 14 -101 34 -145 44 -44 10 -118 32 -165 48 -47 17 -95 31 -108 31
-12 0 -41 9 -63 20 -22 12 -75 34 -119 50 -43 16 -100 40 -127 53 -26 14 -64
28 -83 32 -19 4 -62 22 -95 41 -33 18 -87 40 -119 48 -33 9 -69 22 -82 31 -13
8 -58 28 -101 44 -236 88 -397 168 -695 343 -68 40 -101 59 -210 117 -35 18
-92 51 -128 71 -37 21 -91 51 -120 67 -72 38 -241 150 -360 239 -52 39 -106
77 -120 84 -14 7 -48 32 -76 54 -28 23 -77 59 -109 81 -31 22 -79 56 -106 75
-27 19 -92 64 -144 100 -53 36 -115 81 -140 100 -40 32 -266 235 -405 364 -30
28 -125 115 -210 193 -203 184 -392 383 -541 568 -40 50 -110 128 -154 175
-203 212 -351 389 -463 558 -69 104 -115 167 -151 208 -20 23 -43 54 -51 70
-8 16 -24 41 -35 56 -11 15 -39 54 -63 85 -121 164 -189 270 -287 448 -49 88
-99 178 -113 200 -48 81 -175 310 -239 434 -25 47 -53 96 -63 110 -10 14 -31
60 -48 101 -16 41 -51 125 -77 185 -26 61 -54 128 -62 150 -16 45 -76 187
-133 320 -94 219 -148 371 -195 550 -14 55 -35 129 -46 165 -10 36 -19 71 -19
79 0 7 -18 66 -39 130 -22 64 -45 145 -51 181 -7 36 -25 99 -40 140 -16 41
-36 125 -45 185 -9 61 -27 151 -40 200 -12 50 -26 133 -30 185 -4 52 -15 129
-25 170 -24 100 -46 233 -60 355 -7 55 -18 118 -25 140 -18 54 -24 115 -35
350 -14 286 -36 565 -48 600 -21 61 -33 341 -21 514 6 91 15 182 21 201 12 46
35 331 48 600 11 235 12 248 40 365 10 44 24 128 29 188 6 59 24 165 40 235
16 70 32 169 36 220 4 52 18 139 32 195 13 56 31 147 39 202 16 114 19 122 49
190 13 28 28 81 34 119 7 38 26 110 42 160 17 50 40 125 51 166 11 41 28 104
38 140 10 36 28 102 39 147 34 130 102 320 161 448 19 41 85 199 139 335 16
41 50 125 76 185 26 61 61 144 77 185 17 41 34 80 38 85 8 11 92 162 168 305
24 47 50 92 57 100 7 8 27 44 45 79 18 36 40 76 50 90 9 14 59 103 110 196 52
94 114 199 139 235 25 36 59 85 76 110 16 25 47 68 68 95 21 28 67 91 102 140
55 77 169 236 240 335 11 15 35 50 54 76 68 96 144 186 296 349 141 152 168
182 294 333 57 67 107 122 112 122 5 0 15 12 23 28 14 27 147 161 307 308 460
426 642 588 707 630 32 21 82 57 112 80 30 23 65 45 78 49 12 3 26 15 32 25 5
10 33 32 62 49 29 17 82 54 118 81 36 27 84 62 108 77 23 15 67 47 98 70 91
69 279 195 357 239 86 48 157 88 254 142 40 22 85 50 99 61 15 12 36 21 47 21
11 0 36 12 55 27 33 24 74 48 257 148 33 18 90 49 126 69 64 35 272 124 355
151 22 7 67 26 100 43 32 16 72 32 89 36 16 4 60 23 98 42 37 19 80 34 94 34
14 0 49 14 79 30 29 17 83 41 121 54 37 13 97 37 133 54 36 16 85 32 110 35
25 3 68 15 95 25 45 18 207 65 385 113 36 9 94 29 129 43 35 14 91 31 125 37
34 6 90 23 126 39 36 15 97 33 135 39 93 15 169 31 230 47 50 13 120 24 290
45 50 6 113 17 140 25 84 23 196 42 285 49 47 3 119 15 161 25 96 25 214 37
459 50 328 16 533 30 575 39 22 5 49 9 60 9 11 1 45 5 75 10 76 13 168 14 275
2z"/>
</g>
</svg>
