<svg width="19" height="19" viewBox="0 0 19 19" fill="none" xmlns="http://www.w3.org/2000/svg">
<path d="M5.35164 17.4166H13.6483C15.8333 17.4166 16.7041 16.0787 16.8071 14.4478L17.2187 7.90867C17.3296 6.19867 15.9679 4.74992 14.25 4.74992C13.7671 4.74992 13.3237 4.47284 13.1021 4.04534L12.5321 2.89742C12.1679 2.177 11.2179 1.58325 10.4104 1.58325H8.59747C7.78205 1.58325 6.83205 2.177 6.46789 2.89742L5.89789 4.04534C5.67622 4.47284 5.23289 4.74992 4.74997 4.74992C3.03205 4.74992 1.67039 6.19867 1.78122 7.90867L2.19289 14.4478C2.28789 16.0787 3.16664 17.4166 5.35164 17.4166Z" stroke="white" stroke-width="1.5" stroke-linecap="round" stroke-linejoin="round"/>
<path d="M8.3125 6.33325H10.6875" stroke="white" stroke-width="1.5" stroke-linecap="round" stroke-linejoin="round"/>
<path d="M9.50016 14.2501C10.9172 14.2501 12.0731 13.0942 12.0731 11.6772C12.0731 10.2601 10.9172 9.10425 9.50016 9.10425C8.08308 9.10425 6.92725 10.2601 6.92725 11.6772C6.92725 13.0942 8.08308 14.2501 9.50016 14.2501Z" stroke="white" stroke-width="1.5" stroke-linecap="round" stroke-linejoin="round"/>
</svg>
