<?xml version="1.0" standalone="no"?>
<!DOCTYPE svg PUBLIC "-//W3C//DTD SVG 20010904//EN"
 "http://www.w3.org/TR/2001/REC-SVG-20010904/DTD/svg10.dtd">
<svg version="1.0" xmlns="http://www.w3.org/2000/svg"
 width="3000.000000pt" height="3000.000000pt" viewBox="0 0 3000.000000 3000.000000"
 preserveAspectRatio="xMidYMid meet">

<g transform="translate(0.000000,3000.000000) scale(0.100000,-0.100000)"
fill="#000000" stroke="none">
<path d="M1535 18090 c-82 -16 -175 -35 -205 -44 -30 -8 -82 -22 -115 -31 -33
-9 -89 -32 -125 -51 -37 -19 -71 -34 -76 -34 -12 0 -119 -78 -154 -113 -14
-13 -35 -27 -47 -31 -12 -4 -25 -15 -28 -25 -3 -10 -20 -35 -38 -54 -84 -94
-137 -175 -137 -207 0 -7 -8 -19 -18 -28 -19 -17 -35 -59 -47 -122 -4 -19 -11
-39 -15 -45 -4 -5 -11 -25 -15 -43 -3 -18 -13 -45 -20 -60 -8 -15 -17 -72 -21
-125 -4 -54 -11 -100 -15 -103 -5 -3 -9 -200 -9 -439 0 -385 -2 -434 -16 -439
-9 -3 -105 -6 -214 -6 -197 0 -198 0 -204 -22 -10 -39 -7 -995 4 -1022 l10
-26 187 0 c104 0 198 -3 210 -6 l23 -6 0 -1511 0 -1510 26 -23 25 -24 593 0
c590 0 593 0 612 21 19 21 19 58 15 1529 l-3 1508 20 11 c14 7 148 11 411 11
l389 0 21 33 c16 26 22 57 26 142 4 61 9 117 12 125 3 8 5 26 4 39 -2 13 2 33
7 45 17 36 31 153 43 361 8 139 16 205 25 216 21 24 17 53 -11 79 l-24 23
-434 -2 c-276 -1 -444 2 -461 9 l-27 10 7 352 c6 318 9 356 25 388 11 19 19
44 19 56 0 21 37 65 75 89 52 33 172 45 460 45 l283 0 51 26 51 27 0 483 c0
472 0 484 -21 518 l-21 36 -481 -1 -482 -1 -150 -28z"/>
<path d="M15270 17975 c-25 -8 -63 -14 -85 -14 -22 -1 -55 -5 -73 -11 -19 -5
-88 -14 -154 -20 -71 -7 -130 -17 -143 -26 -19 -13 -105 -26 -349 -54 -43 -5
-83 -14 -90 -19 -13 -10 -94 -27 -178 -37 -51 -6 -59 -10 -73 -37 -13 -27 -15
-349 -15 -2847 l0 -2816 33 -25 c17 -13 52 -27 77 -31 25 -3 77 -11 115 -17
39 -6 102 -15 140 -21 39 -7 86 -14 105 -16 171 -23 266 -34 330 -40 41 -3 80
-9 85 -12 6 -4 37 -8 70 -9 32 -2 84 -11 115 -20 49 -15 111 -17 565 -18 466
0 513 2 540 18 17 9 47 17 68 17 21 0 46 4 55 9 9 5 53 14 97 20 75 10 104 16
216 40 186 40 437 153 568 256 21 17 51 39 67 50 53 37 150 140 163 172 7 17
21 33 30 36 10 2 21 17 25 33 4 15 18 41 32 57 13 16 24 34 24 40 0 7 9 23 20
37 11 14 20 32 20 41 0 9 7 30 15 45 8 16 15 37 15 46 0 9 5 20 10 23 6 4 8
10 5 15 -3 5 -1 11 4 14 5 3 12 23 16 43 3 21 13 58 20 83 34 110 53 286 54
492 1 93 5 159 11 163 12 8 14 1005 1 1005 -4 0 -10 107 -13 238 -3 145 -10
247 -17 259 -6 12 -15 58 -20 104 -5 46 -14 85 -20 87 -6 2 -11 21 -11 41 0
23 -8 48 -20 64 -11 14 -20 33 -20 42 0 9 -12 37 -27 63 -45 80 -53 97 -53
109 0 7 -9 18 -20 25 -11 7 -20 18 -20 24 0 15 -166 184 -182 184 -7 0 -26 14
-42 30 -16 17 -37 30 -46 30 -9 0 -25 9 -35 20 -10 11 -24 20 -31 20 -7 0 -25
6 -41 14 -15 8 -55 22 -88 32 -33 9 -72 23 -87 30 -34 18 -110 33 -227 45 -66
6 -100 14 -114 26 -17 16 -47 18 -321 18 -260 0 -306 -2 -336 -17 -19 -9 -85
-21 -145 -27 -136 -14 -253 -35 -268 -50 -6 -6 -20 -11 -32 -11 -11 0 -38 -7
-60 -15 -58 -21 -132 -20 -143 3 -5 10 -8 415 -6 962 4 1001 5 993 -41 996
-11 1 -40 -4 -65 -11z m894 -2916 c34 -6 79 -19 101 -29 22 -10 51 -22 65 -28
86 -33 157 -141 189 -287 15 -67 9 -1289 -7 -1360 -22 -102 -38 -143 -70 -179
-17 -20 -32 -42 -32 -49 0 -7 -12 -20 -27 -29 -16 -10 -41 -28 -57 -43 -16
-14 -35 -25 -43 -25 -7 0 -21 -4 -31 -10 -32 -18 -107 -42 -167 -52 -33 -6
-189 -10 -346 -10 -245 0 -290 2 -317 16 l-32 17 0 942 0 941 37 33 c20 18 46
33 58 33 12 0 30 9 40 20 10 11 31 20 46 20 15 0 30 4 34 9 3 6 27 13 53 17
26 3 61 15 78 25 18 11 50 19 75 19 24 0 51 5 59 10 20 13 220 13 294 -1z"/>
<path d="M27520 17978 c-25 -5 -73 -13 -108 -18 -35 -5 -67 -12 -71 -15 -5 -2
-64 -10 -131 -15 -68 -6 -132 -17 -144 -25 -23 -14 -285 -55 -357 -55 -24 0
-57 -7 -73 -15 -15 -8 -71 -21 -122 -29 -102 -15 -139 -33 -155 -72 -6 -16 -8
-1072 -7 -2886 l3 -2860 28 -24 29 -24 593 2 c471 2 597 6 607 16 10 10 13
194 15 933 2 506 5 925 8 930 11 17 36 9 45 -16 5 -13 18 -30 30 -37 11 -7 20
-17 20 -23 0 -17 41 -89 55 -98 8 -4 21 -28 31 -55 10 -26 26 -56 37 -66 11
-11 28 -39 39 -63 10 -23 30 -54 43 -68 14 -13 25 -31 25 -39 0 -17 37 -83 58
-105 8 -8 18 -24 23 -35 9 -22 30 -57 39 -66 3 -3 14 -23 25 -45 11 -22 27
-47 35 -55 8 -9 26 -38 40 -65 14 -27 39 -70 56 -95 17 -25 34 -53 37 -62 4
-10 11 -18 17 -18 5 0 10 -7 10 -15 0 -23 50 -114 70 -128 9 -6 21 -27 24 -44
4 -18 13 -36 20 -40 13 -8 30 -36 60 -98 8 -17 24 -39 35 -49 12 -11 21 -25
21 -33 0 -16 23 -54 58 -97 13 -17 28 -39 33 -50 5 -12 20 -39 34 -61 14 -22
30 -51 37 -65 7 -14 25 -43 40 -64 16 -21 28 -44 28 -50 0 -6 17 -24 38 -41
l37 -30 560 -2 c347 -2 566 1 575 7 12 8 15 37 15 163 l0 153 -37 55 c-21 30
-38 59 -38 65 0 7 -7 18 -17 25 -9 8 -27 39 -40 69 -14 30 -38 69 -54 87 -16
19 -29 42 -29 53 0 11 -13 34 -29 52 -15 18 -36 49 -46 68 -9 19 -25 44 -34
55 -10 11 -26 40 -37 65 -10 25 -38 73 -61 108 -24 34 -43 69 -43 77 0 8 -9
19 -19 24 -10 6 -24 25 -30 43 -6 18 -22 44 -35 58 -12 14 -29 41 -36 60 -8
19 -22 46 -31 60 -28 40 -73 113 -87 140 -19 38 -34 62 -63 100 -14 19 -36 58
-49 85 -13 28 -30 54 -37 58 -7 4 -13 16 -13 25 0 10 -16 35 -35 57 -19 22
-35 45 -35 50 0 12 -40 88 -50 95 -4 3 -23 35 -43 71 -43 77 -49 135 -17 164
11 10 20 22 20 26 0 5 20 39 45 76 25 37 45 75 45 85 0 9 8 22 18 27 10 5 27
28 37 50 10 23 23 41 29 41 6 0 22 25 36 56 14 31 35 67 47 81 13 13 23 27 23
31 0 3 18 32 40 63 22 32 40 60 40 64 0 4 13 24 29 44 15 20 36 52 46 71 10
19 31 50 46 68 16 18 29 39 29 47 0 7 10 26 23 42 25 32 39 54 66 104 11 19
27 41 35 48 9 8 16 21 16 31 0 10 18 42 40 71 22 30 46 68 52 86 6 17 21 36
34 42 13 5 25 23 29 40 4 17 22 49 40 71 19 22 37 50 41 63 4 12 26 50 50 84
24 35 44 66 44 70 0 4 10 17 23 31 21 22 22 32 22 177 0 84 -3 156 -6 159 -3
3 -190 6 -415 6 -784 1 -717 3 -754 -22 -18 -13 -38 -32 -44 -43 -6 -11 -26
-39 -43 -64 -18 -24 -33 -50 -33 -57 0 -7 -13 -29 -30 -47 -16 -19 -30 -39
-30 -45 0 -5 -18 -34 -40 -63 -22 -30 -40 -59 -40 -65 0 -6 -14 -29 -31 -50
-18 -22 -39 -55 -48 -74 -9 -19 -28 -48 -43 -63 -14 -15 -29 -39 -32 -52 -3
-13 -17 -35 -29 -49 -13 -14 -34 -45 -47 -70 -13 -26 -27 -46 -32 -46 -4 0 -8
-5 -8 -12 0 -13 -121 -201 -132 -206 -5 -2 -8 -10 -8 -19 0 -8 -11 -29 -25
-47 -14 -18 -25 -36 -25 -41 0 -4 -11 -20 -25 -37 -14 -16 -25 -35 -25 -42 0
-7 -9 -21 -20 -31 -12 -10 -30 -39 -40 -63 -11 -25 -36 -62 -55 -83 -19 -22
-35 -45 -35 -53 0 -8 -11 -28 -25 -44 -14 -17 -34 -51 -46 -76 -11 -25 -26
-49 -33 -53 -8 -4 -24 -28 -37 -53 -38 -74 -70 -111 -93 -108 l-21 3 -5 1828
c-4 1610 -7 1829 -20 1837 -17 11 -28 11 -90 -2z"/>
<path d="M8190 16143 c-41 -2 -89 -10 -105 -18 -17 -8 -79 -19 -139 -25 -134
-14 -198 -26 -239 -45 -18 -8 -52 -19 -77 -25 -25 -6 -61 -15 -80 -20 -52 -13
-109 -35 -122 -48 -7 -7 -16 -12 -22 -12 -12 0 -99 -41 -106 -50 -3 -4 -30
-18 -61 -33 -31 -14 -62 -33 -69 -42 -8 -9 -27 -23 -44 -32 -17 -9 -43 -29
-57 -44 -14 -16 -29 -29 -34 -29 -12 0 -175 -173 -175 -186 0 -5 -13 -23 -30
-39 -16 -16 -30 -34 -30 -40 0 -7 -9 -20 -21 -31 -12 -10 -30 -37 -41 -59 -12
-22 -25 -43 -31 -46 -9 -7 -33 -67 -64 -164 -9 -27 -22 -57 -28 -65 -18 -23
-24 -43 -40 -153 -9 -56 -19 -109 -22 -117 -4 -8 -7 -17 -8 -20 -1 -3 -4 -12
-7 -20 -21 -55 -28 -236 -28 -750 0 -564 8 -762 35 -810 7 -14 16 -43 20 -65
23 -137 40 -211 51 -220 12 -9 45 -99 58 -157 3 -14 17 -40 31 -56 14 -17 25
-33 25 -36 0 -3 18 -32 40 -63 22 -32 40 -63 40 -70 0 -6 14 -24 30 -40 17
-15 30 -32 30 -37 0 -17 245 -246 264 -246 3 0 36 -20 73 -45 37 -25 72 -45
79 -45 7 0 17 -6 21 -14 8 -14 93 -56 113 -56 6 0 21 -6 33 -14 48 -31 341
-116 399 -116 15 0 29 -4 32 -9 3 -4 29 -11 57 -15 29 -4 68 -14 88 -22 29
-12 102 -15 411 -14 382 0 433 3 460 25 8 7 38 15 65 18 131 14 317 44 470 77
28 5 79 15 115 21 36 6 76 18 90 28 14 9 33 20 43 24 17 7 18 29 11 489 -7
562 -1 529 -100 510 -32 -7 -73 -12 -92 -12 -19 0 -55 -7 -81 -15 -81 -25
-124 -33 -226 -45 -55 -6 -155 -17 -222 -25 -67 -8 -148 -15 -182 -15 -33 0
-62 -3 -64 -7 -12 -19 -523 1 -556 21 -5 4 -36 11 -67 17 -31 6 -73 19 -93 30
-20 10 -40 19 -46 19 -6 0 -16 9 -23 20 -7 11 -19 20 -26 20 -14 0 -76 82 -76
100 0 4 -6 21 -14 37 -8 15 -22 67 -30 115 -13 72 -16 188 -16 702 0 406 3
617 10 621 6 4 8 11 4 16 -7 12 24 133 46 174 32 61 55 95 66 95 6 0 23 13 37
29 15 17 45 35 69 42 24 6 59 19 78 29 64 33 173 43 455 42 279 0 586 -23 614
-46 8 -6 64 -16 125 -22 153 -16 263 -33 318 -49 44 -13 47 -12 67 9 21 22 21
29 21 492 l1 469 -34 31 c-28 26 -46 33 -98 39 -35 3 -96 13 -136 21 -40 8
-86 14 -103 14 -17 0 -41 7 -53 15 -28 18 -128 33 -306 46 -81 5 -146 15 -164
24 -24 12 -84 16 -281 19 -138 2 -285 2 -326 -1z"/>
<path d="M11625 16143 c-33 -2 -74 -10 -90 -18 -17 -7 -80 -19 -140 -25 -111
-11 -231 -36 -250 -50 -5 -5 -39 -16 -75 -25 -85 -21 -151 -45 -171 -62 -8 -7
-23 -13 -32 -13 -9 0 -19 -5 -23 -11 -3 -6 -25 -19 -48 -30 -75 -36 -121 -64
-148 -89 -14 -14 -47 -41 -74 -60 -62 -46 -174 -156 -174 -172 0 -7 -16 -31
-36 -53 -20 -21 -43 -54 -50 -72 -8 -18 -23 -37 -34 -43 -11 -6 -19 -14 -18
-18 4 -16 -27 -98 -44 -118 -10 -11 -18 -27 -18 -36 0 -9 -4 -18 -9 -20 -5 -1
-16 -34 -25 -73 -8 -38 -22 -88 -30 -110 -8 -22 -15 -54 -16 -70 0 -17 -4 -35
-9 -40 -22 -24 -34 -256 -38 -765 -4 -441 -2 -574 12 -755 9 -121 21 -224 26
-229 5 -6 9 -24 9 -41 0 -17 4 -35 8 -41 12 -14 29 -72 43 -141 6 -35 15 -63
19 -63 4 0 11 -11 14 -25 4 -14 10 -25 15 -25 5 0 14 -23 21 -51 7 -27 22 -62
34 -77 13 -15 33 -53 46 -84 13 -32 30 -58 37 -58 7 0 13 -6 13 -13 0 -29 150
-198 247 -277 10 -8 36 -30 58 -47 22 -18 47 -33 57 -33 9 0 21 -6 25 -13 4
-8 31 -27 58 -42 28 -16 57 -34 65 -41 17 -14 167 -77 235 -98 148 -47 189
-58 260 -72 44 -8 100 -18 125 -21 25 -3 52 -11 60 -18 8 -7 27 -15 42 -19 15
-3 252 -6 526 -6 470 0 502 1 558 20 32 11 82 20 111 20 28 0 55 5 58 10 3 6
26 10 50 10 24 0 124 14 222 30 98 17 188 30 200 30 13 0 31 4 41 9 9 5 45 15
79 22 35 6 68 18 74 25 6 8 17 14 24 14 7 0 16 7 19 16 3 9 6 228 6 487 0 357
-3 473 -12 485 -10 12 -31 13 -117 7 -57 -3 -115 -11 -130 -17 -73 -30 -455
-73 -751 -84 -85 -4 -159 -10 -165 -14 -16 -11 -420 -5 -535 8 -90 10 -153 21
-267 49 -12 3 -34 16 -48 29 -14 13 -32 24 -40 24 -8 0 -34 25 -59 56 -35 44
-47 71 -61 132 -9 43 -20 86 -25 97 -13 30 -21 81 -27 173 -9 137 -152 122
1155 122 l1124 0 30 21 30 22 -5 571 c-3 327 -10 592 -15 621 -24 115 -33 155
-58 245 -15 52 -33 102 -40 111 -8 8 -14 23 -14 31 0 22 -18 61 -69 148 -77
131 -108 173 -193 258 -129 129 -132 132 -146 132 -6 0 -17 9 -24 20 -7 11
-46 37 -86 57 -41 20 -76 42 -79 50 -3 7 -17 13 -33 13 -15 0 -35 9 -45 20
-10 11 -27 20 -37 20 -10 0 -29 6 -41 14 -12 7 -60 21 -107 31 -47 10 -94 25
-105 32 -11 7 -29 13 -40 13 -12 0 -25 4 -30 9 -6 5 -66 14 -135 20 -78 7
-133 17 -148 27 -19 12 -70 16 -280 18 -141 2 -284 2 -317 -1z m440 -982 c104
-22 189 -73 233 -139 14 -20 28 -39 32 -42 17 -14 43 -90 56 -168 19 -104 16
-281 -4 -305 -12 -15 -64 -16 -485 -16 -297 0 -484 3 -504 10 -39 12 -45 29
-47 133 -3 138 48 324 104 379 16 16 32 36 35 46 3 9 17 22 32 28 16 7 39 21
53 33 14 11 48 25 75 30 28 5 66 13 85 19 46 13 259 8 335 -8z"/>
<path d="M19862 16143 c-67 -2 -112 -9 -125 -18 -12 -8 -60 -17 -107 -20 -115
-9 -258 -33 -290 -50 -32 -16 -131 -45 -156 -45 -11 0 -29 -7 -40 -15 -10 -8
-26 -15 -35 -15 -9 0 -22 -7 -29 -15 -7 -8 -27 -17 -46 -21 -18 -3 -55 -21
-81 -40 -26 -19 -55 -34 -63 -34 -23 0 -134 -84 -224 -170 -74 -71 -196 -210
-196 -225 0 -4 -16 -25 -35 -48 -19 -22 -35 -47 -35 -54 0 -8 -11 -29 -24 -46
-13 -18 -27 -45 -30 -62 -4 -16 -14 -46 -23 -65 -8 -19 -19 -44 -24 -55 -4
-11 -15 -49 -24 -85 -9 -36 -20 -69 -25 -74 -6 -6 -10 -26 -10 -46 0 -19 -6
-66 -14 -105 -29 -137 -36 -297 -36 -794 0 -518 10 -761 36 -843 7 -26 14 -62
14 -81 0 -18 3 -37 7 -41 9 -9 32 -95 33 -123 0 -12 8 -37 19 -55 10 -18 27
-58 37 -88 10 -30 29 -68 41 -83 13 -16 23 -36 23 -45 1 -9 14 -35 30 -57 16
-22 36 -53 43 -70 8 -16 26 -40 41 -52 14 -13 26 -28 26 -34 0 -27 258 -259
288 -259 6 0 15 -6 19 -13 12 -20 78 -57 100 -57 11 0 30 -11 42 -24 12 -13
48 -32 79 -41 31 -10 68 -26 82 -35 14 -10 39 -20 55 -23 17 -3 84 -19 150
-35 66 -17 165 -38 220 -47 55 -9 118 -21 140 -27 109 -28 539 -33 640 -6 22
6 65 14 95 20 30 5 91 15 135 23 103 17 303 68 341 87 16 8 56 23 89 34 33 10
74 27 90 36 17 10 49 27 72 39 24 11 55 31 69 44 15 14 31 25 35 25 41 0 339
293 339 334 0 6 12 25 26 41 26 30 64 104 64 124 0 6 4 11 8 11 10 0 47 83 57
128 3 17 11 32 16 32 5 0 9 4 9 9 0 5 5 22 11 38 7 15 13 35 14 43 10 53 36
174 49 225 9 34 16 101 16 157 0 54 4 100 10 103 6 4 10 205 10 570 0 365 -4
566 -10 570 -5 3 -10 41 -10 83 0 42 -7 111 -16 152 -8 41 -20 104 -25 140 -6
36 -17 79 -24 95 -7 17 -16 45 -20 63 -4 17 -10 32 -15 32 -4 0 -11 17 -15 38
-6 37 -40 112 -55 122 -4 3 -15 29 -25 58 -9 29 -26 58 -36 65 -10 6 -19 17
-19 23 0 6 -9 19 -20 29 -11 10 -20 21 -20 26 0 39 -341 349 -384 349 -8 0
-28 11 -44 25 -17 14 -35 25 -40 25 -6 0 -37 14 -69 30 -31 17 -63 30 -70 30
-7 0 -27 6 -45 14 -36 16 -131 44 -163 49 -11 2 -29 8 -40 14 -30 16 -168 41
-269 47 -50 4 -102 13 -118 20 -30 15 -310 26 -496 19z m393 -1087 c28 -8 77
-28 109 -45 33 -17 63 -31 67 -31 15 0 95 -89 127 -141 59 -94 61 -126 62
-805 0 -352 -4 -642 -10 -688 -7 -59 -18 -92 -42 -133 -18 -30 -39 -67 -47
-82 -7 -15 -33 -38 -57 -52 -24 -13 -44 -26 -44 -30 0 -8 -71 -38 -150 -65
-46 -16 -84 -19 -225 -19 -159 1 -175 3 -253 29 -115 39 -216 125 -274 232
-38 71 -41 132 -45 769 -4 665 -2 705 48 812 32 67 142 179 197 199 26 10 54
23 62 30 27 22 103 32 265 33 108 0 176 -4 210 -13z"/>
<path d="M23947 16143 c-62 -2 -107 -9 -121 -18 -11 -8 -59 -17 -106 -20 -139
-10 -293 -37 -314 -56 -6 -5 -20 -9 -33 -9 -13 0 -31 -4 -41 -9 -9 -6 -43 -18
-75 -27 -79 -23 -344 -158 -373 -189 -13 -14 -29 -25 -36 -25 -8 0 -25 -12
-39 -27 -14 -16 -37 -38 -50 -50 -13 -12 -30 -27 -37 -35 -7 -7 -35 -35 -63
-63 -28 -27 -57 -63 -66 -80 -9 -16 -33 -51 -54 -76 -21 -25 -55 -84 -76 -130
-20 -46 -44 -95 -53 -109 -9 -14 -22 -52 -29 -85 -7 -33 -17 -67 -22 -75 -5
-8 -12 -22 -15 -30 -3 -8 -10 -24 -14 -35 -8 -18 -26 -165 -37 -310 -3 -33 -9
-64 -14 -70 -13 -13 -12 -1182 2 -1190 5 -4 9 -30 8 -58 0 -29 4 -81 11 -117
6 -36 18 -103 27 -150 8 -47 21 -96 28 -110 7 -14 18 -50 25 -80 7 -30 21 -71
30 -90 10 -19 35 -71 56 -115 20 -44 47 -93 60 -108 13 -16 24 -33 24 -39 0
-9 26 -42 78 -101 102 -115 318 -292 381 -312 12 -3 27 -12 33 -18 17 -15 102
-57 117 -57 6 0 19 -4 29 -9 9 -5 40 -17 67 -26 28 -9 59 -20 70 -25 11 -5 31
-11 45 -13 14 -3 51 -12 83 -21 54 -15 156 -34 304 -56 35 -5 73 -15 85 -22
17 -9 97 -12 293 -12 227 0 278 3 320 17 28 10 71 19 95 21 25 2 68 9 95 15
28 6 75 16 105 23 30 6 87 20 125 30 39 11 85 23 102 28 18 4 51 17 73 29 22
12 47 21 56 21 19 0 96 39 109 55 5 7 23 16 39 19 16 4 49 23 74 42 25 18 51
34 58 34 7 0 25 15 39 34 14 19 39 39 55 46 17 7 30 19 30 26 0 8 14 23 31 33
17 11 36 30 43 43 6 12 24 29 39 36 15 7 27 21 27 32 0 10 13 29 29 42 16 13
39 45 52 72 37 76 43 86 51 86 5 0 8 5 8 10 0 9 14 43 61 145 23 51 49 134 49
160 0 11 7 34 16 50 51 94 66 384 61 1115 -4 560 -5 602 -26 720 -12 68 -26
129 -30 135 -4 5 -18 51 -31 100 -12 50 -28 97 -35 105 -7 8 -16 26 -20 40
-11 36 -42 100 -65 135 -11 17 -28 48 -39 71 -10 23 -26 44 -35 47 -9 4 -20
16 -24 26 -6 17 -88 104 -232 246 -14 14 -30 25 -36 25 -6 0 -23 14 -39 30
-16 17 -33 30 -38 30 -15 0 -107 48 -123 65 -9 8 -21 15 -29 15 -7 0 -30 9
-52 19 -80 40 -130 58 -198 71 -38 7 -79 19 -90 26 -25 16 -103 30 -269 49
-71 9 -134 20 -140 24 -13 11 -335 20 -479 14z m382 -1088 c31 -8 74 -24 96
-35 21 -11 45 -20 52 -20 7 0 42 -27 77 -61 72 -67 122 -156 133 -235 3 -24
10 -47 14 -50 13 -7 11 -1236 -1 -1268 -5 -14 -12 -47 -16 -73 -3 -27 -11 -57
-18 -68 -7 -11 -16 -32 -19 -47 -8 -29 -138 -155 -177 -171 -143 -57 -173 -62
-350 -61 -134 0 -172 3 -199 17 -19 9 -42 17 -52 17 -23 0 -109 41 -109 52 0
4 -18 17 -40 28 -21 11 -45 30 -51 43 -6 12 -20 30 -29 39 -10 9 -26 38 -35
65 -9 26 -22 57 -28 68 -9 15 -13 207 -15 703 -2 599 -1 687 13 714 8 17 15
39 15 48 0 60 137 218 209 241 20 6 45 17 57 24 12 8 43 20 70 29 68 20 325
21 403 1z"/>
<path d="M3147 16077 c-32 -10 -48 -58 -54 -165 -3 -51 -10 -95 -14 -98 -5 -3
-9 -38 -9 -78 0 -39 -4 -76 -9 -82 -5 -5 -12 -54 -15 -109 -7 -142 -33 -444
-41 -481 -5 -22 -3 -34 7 -40 7 -5 342 -12 743 -15 758 -6 787 -8 846 -49 15
-11 32 -20 39 -20 42 0 140 -131 140 -186 0 -19 7 -48 15 -64 13 -24 15 -65
13 -212 l-3 -183 -325 -2 c-536 -3 -867 -13 -898 -28 -15 -7 -69 -16 -120 -20
-51 -3 -105 -13 -120 -21 -15 -8 -35 -14 -44 -14 -9 0 -37 -9 -63 -20 -26 -11
-57 -20 -69 -20 -13 0 -35 -11 -50 -25 -15 -14 -33 -25 -40 -25 -8 0 -19 -7
-26 -15 -7 -9 -32 -25 -54 -35 -33 -16 -103 -71 -149 -117 -34 -35 -77 -89
-77 -97 0 -5 -11 -23 -24 -40 -32 -42 -86 -145 -86 -164 0 -9 -6 -23 -13 -31
-15 -18 -31 -95 -48 -234 -6 -53 -15 -100 -20 -103 -12 -7 -12 -287 0 -300 5
-5 14 -49 20 -99 17 -133 33 -208 48 -226 7 -8 13 -24 13 -34 0 -10 14 -48 31
-84 17 -36 35 -75 40 -86 34 -76 195 -269 258 -309 20 -13 47 -35 60 -50 14
-14 32 -26 42 -26 10 0 20 -4 23 -9 16 -25 242 -121 286 -121 16 0 32 -4 35
-10 3 -5 16 -10 28 -10 12 0 39 -9 60 -20 34 -18 56 -20 276 -20 192 0 244 3
267 15 16 8 47 15 69 15 22 0 49 6 60 14 11 7 43 17 70 21 50 7 101 19 205 50
30 9 75 22 100 29 25 7 65 22 90 33 25 11 66 28 93 37 26 10 47 21 47 26 0 5
17 14 38 21 20 6 46 18 57 25 27 19 71 18 79 -2 3 -9 6 -31 6 -50 0 -22 6 -37
15 -40 10 -4 15 -20 15 -44 0 -21 4 -50 10 -64 l10 -26 505 0 c330 0 513 4
526 10 10 6 19 19 19 30 0 10 4 22 10 25 6 4 5 13 -3 25 -9 16 -9 24 0 40 8
12 9 21 3 25 -15 9 -13 188 2 203 10 10 10 17 0 32 -6 11 -12 50 -12 88 0 40
5 73 12 80 10 10 10 17 0 32 -15 25 -16 172 -1 187 8 8 8 13 0 17 -14 9 -15
173 -1 181 8 5 7 11 0 21 -8 8 -10 34 -6 71 8 69 8 90 0 206 -4 61 -2 93 6
103 8 9 9 18 3 27 -13 16 -16 144 -3 152 7 4 7 12 0 25 -14 27 -13 203 2 218
9 9 9 15 0 24 -15 15 -16 170 -1 185 8 8 7 21 -2 47 -10 29 -11 41 -1 56 7 12
8 21 2 25 -14 9 -12 79 2 93 8 8 8 15 0 24 -15 19 -16 357 -1 375 8 9 8 17 0
27 -6 7 -16 80 -21 162 -15 227 -45 450 -61 460 -5 3 -9 13 -9 22 -1 9 -9 35
-20 57 -11 22 -19 51 -20 64 0 25 -38 91 -52 91 -5 0 -8 11 -8 24 0 28 -55
113 -108 167 -20 21 -47 52 -60 68 -13 17 -28 31 -34 31 -6 0 -22 12 -37 26
-50 49 -111 93 -149 105 -20 7 -51 23 -68 36 -17 12 -52 27 -77 32 -26 4 -58
16 -71 25 -14 9 -33 16 -43 16 -9 0 -35 6 -58 14 -45 16 -232 46 -286 46 -19
0 -40 5 -46 11 -5 5 -55 14 -109 20 -118 11 -1574 17 -1607 6z m1638 -2667
c12 -10 15 -49 15 -215 l0 -204 -25 -19 c-13 -11 -39 -25 -57 -31 -37 -14 -94
-39 -121 -53 -35 -18 -211 -69 -277 -79 -90 -15 -242 1 -296 31 -76 43 -96 63
-123 124 -33 72 -44 178 -30 267 8 47 18 72 46 105 36 45 40 47 172 75 86 19
674 17 696 -1z"/>
</g>
</svg>
