<?xml version="1.0" standalone="no"?>
<!DOCTYPE svg PUBLIC "-//W3C//DTD SVG 20010904//EN"
 "http://www.w3.org/TR/2001/REC-SVG-20010904/DTD/svg10.dtd">
<svg version="1.0" xmlns="http://www.w3.org/2000/svg"
 width="2000.000000pt" height="2000.000000pt" viewBox="0 0 2000.000000 2000.000000"
 preserveAspectRatio="xMidYMid meet">

<g transform="translate(0.000000,2000.000000) scale(0.100000,-0.100000)"
fill="#000000" stroke="none">
<path d="M9950 19689 c-51 -16 -96 -53 -127 -107 -43 -75 -154 -242 -198 -298
-137 -174 -209 -255 -341 -384 -82 -80 -171 -163 -199 -185 -27 -22 -70 -57
-95 -80 -25 -22 -77 -62 -115 -90 -37 -27 -95 -69 -127 -92 -32 -24 -62 -43
-65 -43 -3 0 -29 -18 -57 -39 -57 -44 -429 -259 -521 -301 -33 -15 -112 -52
-175 -82 -215 -102 -544 -229 -705 -273 -33 -9 -68 -20 -77 -25 -10 -6 -24
-10 -32 -10 -7 0 -54 -12 -102 -26 -267 -78 -527 -130 -934 -184 -80 -11 -176
-24 -215 -29 -290 -41 -925 -41 -1230 -1 -369 48 -622 92 -794 136 -137 35
-319 89 -356 105 -11 4 -56 18 -100 29 -44 12 -111 35 -150 50 -96 39 -245 96
-275 105 -14 4 -55 23 -91 41 -37 19 -70 34 -74 34 -13 0 -409 198 -470 236
-33 20 -89 52 -124 71 -35 19 -91 53 -126 76 -34 23 -69 47 -77 52 -8 6 -49
34 -91 62 -45 31 -95 57 -123 63 -94 21 -201 -25 -237 -102 -22 -48 -101 -425
-132 -633 -15 -99 -33 -218 -41 -265 -37 -237 -85 -696 -111 -1060 -26 -374
-26 -1692 0 -2085 25 -363 84 -962 116 -1180 5 -33 19 -125 31 -205 11 -80 25
-183 29 -230 9 -87 71 -457 90 -526 5 -22 22 -106 36 -189 15 -82 35 -184 46
-227 10 -42 19 -89 19 -105 0 -28 19 -112 84 -373 20 -80 65 -262 100 -405 36
-143 81 -314 100 -380 64 -218 94 -318 131 -455 21 -74 41 -139 45 -145 4 -5
37 -104 74 -220 77 -238 114 -347 181 -525 25 -69 55 -154 66 -190 10 -36 26
-78 33 -95 8 -16 26 -59 39 -95 70 -182 100 -256 107 -265 4 -5 11 -26 15 -45
4 -19 22 -66 39 -105 18 -38 39 -86 46 -105 7 -19 17 -39 21 -45 4 -5 23 -50
42 -98 20 -48 55 -120 80 -160 24 -40 74 -121 110 -182 36 -60 99 -161 139
-224 40 -62 82 -130 93 -150 11 -20 62 -98 113 -174 50 -76 92 -142 92 -147 0
-4 23 -38 51 -76 28 -38 89 -125 135 -194 161 -240 368 -530 524 -736 24 -32
58 -78 75 -102 54 -77 189 -252 261 -340 38 -48 90 -114 114 -147 24 -33 69
-89 100 -125 31 -36 69 -83 85 -105 28 -38 117 -145 265 -320 36 -43 88 -106
115 -140 28 -35 87 -105 133 -157 45 -51 120 -136 167 -188 544 -617 1243
-1347 1780 -1861 224 -213 782 -726 925 -849 41 -35 100 -87 131 -115 100 -89
326 -283 449 -385 44 -36 138 -114 211 -175 73 -60 155 -128 183 -149 28 -21
69 -55 92 -75 66 -58 188 -153 545 -422 176 -132 176 -133 245 -147 60 -13
137 3 189 40 18 13 79 56 136 95 57 40 118 83 134 96 17 13 110 84 208 158
364 274 525 401 699 549 25 22 82 68 125 102 100 81 593 501 694 593 42 39
130 117 195 175 362 323 982 923 1344 1300 353 368 706 746 775 830 22 27 73
87 113 132 41 46 120 136 175 202 56 65 136 157 178 205 41 47 94 111 117 142
22 31 65 83 95 115 29 33 64 75 77 94 13 19 54 71 90 115 37 44 85 105 108
135 22 30 59 78 81 105 22 28 72 93 111 145 39 52 98 131 133 176 34 45 89
119 122 164 33 46 77 104 98 129 20 25 37 49 37 53 0 4 19 34 43 66 23 33 66
93 95 133 146 203 604 897 663 1004 18 33 59 100 92 149 32 49 63 100 68 113
9 25 87 156 119 203 10 14 37 61 60 105 69 131 112 208 132 236 10 15 56 102
104 195 47 92 94 180 105 195 26 37 63 121 109 249 67 186 100 274 115 305 7
17 21 62 31 100 9 39 20 75 24 80 4 6 20 51 35 100 15 50 33 104 40 120 20 44
74 211 91 280 8 33 24 89 35 125 74 242 146 507 255 935 18 72 37 144 42 162
12 38 59 256 107 493 20 96 44 219 55 273 69 340 86 430 99 526 5 36 28 201
50 366 22 165 45 320 51 345 5 25 19 135 30 245 12 110 28 246 36 302 8 55 18
193 24 305 5 111 14 271 19 353 23 350 31 540 35 870 5 437 -8 1091 -29 1380
-8 121 -19 306 -25 410 -5 105 -14 222 -20 260 -6 39 -19 149 -31 245 -23 195
-21 184 -78 545 -52 329 -78 452 -103 493 -66 108 -217 129 -331 45 -142 -105
-527 -338 -632 -383 -22 -9 -92 -42 -155 -73 -197 -95 -272 -128 -355 -157
-44 -16 -138 -51 -210 -78 -71 -26 -152 -54 -180 -62 -27 -7 -54 -16 -60 -19
-13 -7 -128 -38 -375 -101 -236 -59 -528 -106 -960 -152 -138 -15 -844 -15
-975 0 -308 35 -385 44 -535 62 -298 37 -470 71 -805 159 -175 47 -562 181
-690 241 -206 95 -450 219 -538 274 -60 36 -110 66 -111 66 -14 0 -337 229
-446 315 -211 168 -504 462 -643 644 -124 163 -227 314 -227 333 0 25 -88 125
-124 142 -46 22 -130 29 -176 15z m105 -241 c47 -86 171 -265 274 -393 600
-748 1466 -1299 2499 -1589 411 -115 806 -181 1432 -238 204 -18 775 -15 1000
6 588 54 1064 155 1575 333 516 179 1001 422 1372 685 67 47 87 58 94 47 5 -8
9 -18 9 -22 0 -5 16 -92 35 -195 81 -442 152 -1067 185 -1632 86 -1508 -12
-3032 -291 -4525 -188 -1009 -474 -2050 -821 -2995 -128 -348 -647 -1260
-1143 -2010 -1344 -2030 -3214 -4039 -5330 -5726 -384 -306 -907 -694 -935
-694 -34 0 -769 575 -1205 944 -1516 1282 -2860 2650 -3994 4066 -130 162
-257 322 -282 355 -24 33 -109 145 -187 248 -421 555 -898 1262 -1267 1878
-109 183 -153 277 -314 679 -632 1581 -1065 3338 -1230 5005 -152 1527 -101
3112 140 4341 28 144 54 266 58 273 5 8 58 -23 163 -92 185 -124 365 -227 606
-346 853 -425 1809 -651 2742 -651 271 0 454 12 740 46 1467 174 2675 714
3510 1570 209 215 386 439 490 622 19 34 38 62 41 62 3 0 19 -24 34 -52z"/>
</g>
</svg>
