<?xml version="1.0" standalone="no"?>
<!DOCTYPE svg PUBLIC "-//W3C//DTD SVG 20010904//EN"
 "http://www.w3.org/TR/2001/REC-SVG-20010904/DTD/svg10.dtd">
<svg version="1.0" xmlns="http://www.w3.org/2000/svg"
 width="3000.000000pt" height="3000.000000pt" viewBox="0 0 3000.000000 3000.000000"
 preserveAspectRatio="xMidYMid meet">

<g transform="translate(0.000000,3000.000000) scale(0.100000,-0.100000)"
fill="#000000" stroke="none">
<path d="M10815 26441 c-4 -8 -1503 -11 -4877 -11 -2834 0 -4875 -4 -4882 -9
-6 -5 -60 -12 -121 -16 -84 -5 -115 -11 -130 -25 -11 -9 -42 -20 -69 -24 -29
-3 -59 -15 -71 -26 -12 -11 -29 -20 -40 -20 -10 0 -39 -18 -64 -40 -25 -22
-64 -55 -87 -75 -23 -19 -50 -35 -60 -35 -18 0 -134 -103 -134 -119 0 -4 -11
-18 -25 -31 -14 -13 -25 -33 -25 -44 0 -12 -25 -49 -56 -84 -44 -49 -59 -74
-65 -109 -5 -26 -15 -54 -23 -62 -8 -9 -18 -50 -21 -91 -6 -55 -13 -81 -28
-97 -18 -21 -20 -36 -21 -162 -1 -129 1 -141 20 -163 16 -17 23 -41 27 -91 3
-42 11 -75 21 -86 9 -10 16 -28 16 -42 0 -47 23 -105 56 -142 19 -20 34 -43
34 -50 0 -8 9 -22 20 -32 11 -10 20 -26 20 -35 0 -9 9 -25 21 -36 12 -10 30
-36 40 -57 11 -21 30 -42 43 -47 13 -4 26 -16 29 -24 4 -9 15 -16 26 -16 10 0
38 -16 61 -35 23 -19 58 -43 78 -52 21 -10 46 -26 57 -36 39 -38 80 -57 121
-57 28 0 47 -6 59 -20 12 -13 31 -20 57 -20 21 0 51 -8 65 -17 26 -17 715 -18
14114 -18 13402 0 14088 1 14106 18 14 12 36 17 77 17 40 0 66 6 84 19 15 10
46 21 70 25 25 4 60 20 88 41 25 19 53 35 61 35 9 0 31 11 49 25 18 14 37 25
43 25 6 0 40 23 76 52 44 35 65 59 65 74 0 11 15 41 34 65 18 24 48 70 65 102
18 31 39 57 46 57 7 0 18 21 25 49 6 27 18 58 25 68 8 10 15 33 15 52 0 19 7
42 15 51 9 10 17 50 21 113 4 54 11 100 15 103 12 7 12 141 0 148 -4 3 -11 44
-13 91 -4 53 -12 94 -22 110 -9 13 -16 40 -16 59 0 20 -9 50 -20 68 -11 18
-20 41 -20 50 0 10 -8 25 -18 35 -11 10 -30 38 -43 63 -13 25 -27 47 -31 48
-5 2 -8 8 -8 13 0 6 -9 20 -21 32 -11 12 -29 39 -40 59 -22 44 -179 178 -208
178 -11 0 -22 4 -25 9 -12 20 -122 87 -134 83 -7 -2 -22 4 -32 13 -12 11 -42
20 -72 23 -32 2 -58 11 -65 20 -10 11 -45 19 -130 26 -65 6 -123 14 -130 19
-6 4 -4078 7 -9049 7 -6244 0 -9041 3 -9050 11 -8 7 -14 7 -19 0z"/>
<path d="M1058 15720 c-9 -6 -64 -13 -122 -17 -90 -5 -111 -10 -138 -30 -21
-15 -46 -23 -73 -23 -29 0 -47 -6 -60 -20 -10 -11 -26 -20 -36 -20 -10 0 -33
-14 -51 -31 -18 -17 -49 -41 -68 -54 -19 -12 -42 -30 -49 -39 -8 -9 -33 -26
-56 -36 -23 -10 -59 -38 -79 -62 -21 -24 -51 -58 -67 -76 -16 -19 -29 -39 -29
-46 0 -7 -9 -21 -20 -31 -11 -10 -20 -23 -20 -28 0 -5 -18 -29 -39 -52 -33
-36 -40 -52 -46 -101 -7 -62 -8 -65 -30 -104 -8 -14 -15 -43 -15 -64 0 -27 -7
-47 -22 -63 -20 -22 -22 -33 -22 -168 0 -132 1 -146 21 -167 14 -16 22 -41 26
-86 3 -37 12 -71 21 -81 9 -10 16 -32 16 -50 0 -41 20 -86 59 -135 17 -21 31
-46 31 -55 0 -10 9 -27 20 -39 11 -12 20 -26 20 -32 0 -5 14 -25 31 -42 17
-18 37 -47 44 -65 9 -21 21 -33 33 -33 11 0 22 -6 25 -14 3 -8 19 -17 36 -21
17 -4 37 -16 45 -27 17 -24 82 -69 89 -62 3 3 30 -14 60 -39 43 -35 64 -45
107 -50 29 -4 60 -13 70 -22 9 -8 31 -15 50 -15 18 0 47 -9 65 -20 33 -20 42
-20 3789 -20 2923 0 3756 -3 3756 -12 0 -9 3 -9 12 0 9 9 156 12 598 12 442 0
589 -3 598 -12 9 -9 12 -9 12 0 0 16 1155 18 1165 2 5 -8 11 -8 19 -1 19 16
3584 15 3603 0 9 -9 13 -8 13 0 0 8 795 11 3025 11 3006 0 3025 0 3062 20 25
13 57 20 94 20 43 0 60 5 74 20 13 14 31 20 63 20 31 0 53 7 72 23 55 43 85
62 100 62 18 1 63 29 108 67 18 15 38 28 45 28 24 1 64 46 75 87 7 23 26 55
42 72 17 16 30 37 30 46 0 10 10 30 23 45 56 70 66 90 55 103 -2 1 7 15 20 31
15 20 22 42 22 72 0 30 5 47 19 56 14 10 20 36 30 123 21 201 7 411 -30 451
-12 13 -19 35 -19 62 0 36 -38 132 -59 152 -4 3 -15 23 -26 45 -11 22 -41 65
-67 94 -27 31 -48 65 -48 77 0 15 -18 38 -51 66 -29 24 -69 58 -89 76 -21 17
-46 32 -56 32 -10 0 -27 8 -38 19 -23 20 -136 83 -136 75 0 -2 -10 2 -22 10
-13 8 -48 18 -78 22 -30 3 -63 14 -73 22 -53 47 364 45 -9902 48 -6248 2
-9646 0 -9657 -6z"/>
<path d="M1065 5017 c-11 -6 -71 -14 -132 -18 -98 -4 -116 -8 -136 -27 -15
-14 -36 -22 -59 -22 -40 0 -129 -50 -233 -132 -33 -26 -80 -58 -105 -71 -44
-23 -168 -159 -169 -185 -1 -19 -39 -70 -83 -113 -32 -32 -38 -44 -44 -100 -3
-35 -13 -72 -22 -81 -8 -10 -17 -41 -20 -70 -3 -34 -12 -61 -25 -75 -18 -20
-20 -36 -21 -167 0 -134 1 -147 20 -168 16 -17 23 -42 28 -98 4 -48 12 -79 21
-86 8 -6 15 -22 15 -35 0 -36 20 -99 30 -99 6 0 10 -7 10 -15 0 -9 7 -18 15
-21 8 -3 19 -21 25 -39 6 -18 18 -39 26 -46 8 -7 21 -27 29 -46 8 -18 21 -36
30 -39 8 -3 15 -14 15 -25 0 -20 41 -69 58 -69 5 0 12 -6 15 -14 3 -7 18 -17
33 -20 15 -4 50 -27 77 -51 28 -24 55 -42 59 -38 5 3 37 -16 71 -42 47 -37 71
-49 106 -53 25 -2 51 -11 58 -19 6 -8 36 -17 67 -20 31 -3 61 -12 67 -19 8
-10 35 -14 85 -14 41 0 74 -4 74 -10 0 -13 10757 -13 10765 0 3 6 34 10 68 10
34 0 74 6 89 14 14 8 55 17 89 21 35 4 74 14 87 23 13 8 47 19 75 23 29 5 57
16 64 25 6 9 22 22 35 28 13 7 32 17 43 23 11 6 38 20 60 30 82 37 175 120
175 156 0 14 7 27 15 31 8 3 15 12 15 19 0 8 9 22 20 32 11 10 30 39 43 64 12
25 32 56 44 68 13 12 23 30 23 40 0 10 9 29 20 43 13 17 20 41 20 72 0 26 6
53 14 60 18 19 25 44 27 106 2 29 6 55 11 58 12 7 10 262 -2 269 -5 3 -10 25
-10 48 0 23 -7 55 -16 72 -8 16 -18 50 -21 75 -3 25 -12 54 -19 65 -8 11 -14
32 -14 47 0 17 -8 31 -21 39 -11 6 -30 31 -40 55 -11 24 -42 71 -70 104 -27
32 -49 68 -49 79 0 11 -12 28 -26 38 -14 10 -55 42 -91 71 -36 28 -71 52 -78
52 -6 0 -20 9 -30 20 -10 11 -26 20 -35 20 -9 0 -25 9 -35 20 -10 11 -26 20
-36 20 -10 0 -33 9 -51 20 -22 13 -51 20 -84 20 -43 0 -54 4 -67 23 -14 22
-24 24 -124 30 -59 3 -121 10 -136 16 -43 17 -10705 15 -10732 -2z"/>
</g>
</svg>
