<svg width="21" height="20" viewBox="0 0 21 20" fill="none" xmlns="http://www.w3.org/2000/svg">
<path d="M15.4324 6.02944C15.3834 6.02127 15.3261 6.02127 15.2771 6.02944C14.1488 5.98856 13.2495 5.06471 13.2495 3.92012C13.2495 2.751 14.1897 1.81079 15.3588 1.81079C16.528 1.81079 17.4682 2.75917 17.4682 3.92012C17.46 5.06471 16.5607 5.98856 15.4324 6.02944Z" stroke="#3E3E3E" stroke-width="1.5" stroke-linecap="round" stroke-linejoin="round"/>
<path d="M14.5903 11.9814C15.7104 12.1694 16.9449 11.9732 17.8115 11.3927C18.9643 10.6242 18.9643 9.36514 17.8115 8.59663C16.9367 8.01616 15.6859 7.81994 14.5658 8.01615" stroke="#3E3E3E" stroke-width="1.5" stroke-linecap="round" stroke-linejoin="round"/>
<path d="M5.59715 6.02944C5.6462 6.02127 5.70343 6.02127 5.75248 6.02944C6.88073 5.98856 7.78005 5.06471 7.78005 3.92012C7.78005 2.751 6.83985 1.81079 5.67073 1.81079C4.50161 1.81079 3.5614 2.75917 3.5614 3.92012C3.56958 5.06471 4.4689 5.98856 5.59715 6.02944Z" stroke="#3E3E3E" stroke-width="1.5" stroke-linecap="round" stroke-linejoin="round"/>
<path d="M6.43919 11.9814C5.31912 12.1694 4.08459 11.9732 3.21797 11.3927C2.0652 10.6242 2.0652 9.36514 3.21797 8.59663C4.09277 8.01616 5.34365 7.81994 6.46371 8.01615" stroke="#3E3E3E" stroke-width="1.5" stroke-linecap="round" stroke-linejoin="round"/>
<path d="M10.527 12.1367C10.478 12.1285 10.4207 12.1285 10.3717 12.1367C9.24344 12.0958 8.34412 11.172 8.34412 10.0274C8.34412 8.85823 9.28432 7.91803 10.4534 7.91803C11.6226 7.91803 12.5628 8.86641 12.5628 10.0274C12.5546 11.172 11.6553 12.104 10.527 12.1367Z" stroke="#3E3E3E" stroke-width="1.5" stroke-linecap="round" stroke-linejoin="round"/>
<path d="M8.1479 14.712C6.99513 15.4806 6.99513 16.7396 8.1479 17.5081C9.45601 18.3829 11.598 18.3829 12.9061 17.5081C14.0589 16.7396 14.0589 15.4806 12.9061 14.712C11.6062 13.8454 9.45601 13.8454 8.1479 14.712Z" stroke="#3E3E3E" stroke-width="1.5" stroke-linecap="round" stroke-linejoin="round"/>
</svg>
