<svg width="71" height="72" viewBox="0 0 71 72" fill="none" xmlns="http://www.w3.org/2000/svg">
<path d="M53.1006 53.4738C62.841 43.7335 62.841 27.9413 53.1006 18.201C43.3603 8.46068 27.5681 8.46068 17.8278 18.201C8.08749 27.9413 8.0875 43.7335 17.8278 53.4738C27.5681 63.2141 43.3603 63.2141 53.1006 53.4738Z" fill="#FFD05D"/>
<path d="M48.5119 14.5503C50.9961 18.4273 52.4357 23.0388 52.4357 27.9838C52.4357 41.7567 41.2699 52.9254 27.4941 52.9254C22.71 52.9254 18.2419 51.5765 14.4468 49.2415C18.8798 56.1616 26.6367 60.7468 35.4646 60.7468C49.2376 60.7468 60.4063 49.581 60.4063 35.8051C60.4063 26.8134 55.6485 18.9364 48.5148 14.5474L48.5119 14.5503Z" fill="#FDC453"/>
<path d="M13.9142 38.468C13.9142 25.6782 24.2812 15.3112 37.071 15.3112C44.5471 15.3112 51.1921 18.8547 55.4261 24.3528C51.4262 17.4122 43.9326 12.7393 35.3476 12.7393C22.5578 12.7393 12.1908 23.1063 12.1908 35.896C12.1908 41.2097 13.9815 46.105 16.9925 50.0113C15.0349 46.6141 13.9142 42.6728 13.9142 38.4709V38.468Z" fill="#FFD77F"/>
<path d="M29.922 32.2091C30.428 29.0922 28.3114 26.1553 25.1945 25.6493C22.0776 25.1434 19.1407 27.26 18.6348 30.3769C18.1288 33.4938 20.2454 36.4307 23.3623 36.9366C26.4792 37.4425 29.4161 35.326 29.922 32.2091Z" fill="white"/>
<path d="M28.2753 27.2118C27.2424 26.1965 25.8291 25.5674 24.2666 25.5674C23.2103 25.5674 22.2272 25.8571 21.3786 26.3574C21.206 26.5798 21.0948 26.8285 21.0685 27.0977C20.9573 28.2915 22.4964 29.4093 24.5066 29.5995C26.5168 29.7867 28.2373 28.9733 28.3485 27.7795C28.366 27.5864 28.3368 27.3991 28.2753 27.2118V27.2118Z" fill="#303030"/>
<path d="M50.7046 35.3266C52.9375 33.0937 52.9375 29.4736 50.7047 27.2408C48.4718 25.008 44.8517 25.008 42.6189 27.2408C40.3861 29.4736 40.3861 33.0938 42.6189 35.3266C44.8517 37.5594 48.4718 37.5594 50.7046 35.3266Z" fill="white"/>
<path d="M50.6713 27.2118C49.6384 26.1965 48.2251 25.5674 46.6626 25.5674C45.6063 25.5674 44.6231 25.8571 43.7746 26.3574C43.6019 26.5798 43.4907 26.8285 43.4644 27.0977C43.3532 28.2915 44.8923 29.4093 46.9025 29.5995C48.9127 29.7867 50.6332 28.9733 50.7444 27.7795C50.762 27.5864 50.7327 27.3991 50.6713 27.2118V27.2118Z" fill="#303030"/>
<path d="M44.746 41.5519C43.5551 40.3727 41.9253 39.5066 40.0322 39.0443C38.3029 38.6288 36.4448 38.5966 34.6541 38.9448C32.9043 39.2843 31.1984 39.9924 29.7149 40.9931C28.1407 42.0669 26.9206 43.3515 26.0866 44.8086C25.9579 45.031 25.993 45.3119 26.1685 45.4992C26.2827 45.6191 26.4378 45.6835 26.5958 45.6835C26.6835 45.6835 26.7713 45.663 26.8533 45.6221L27.4004 45.3529C28.685 44.7179 29.8963 44.1181 31.1282 43.6353C32.5356 43.0735 33.946 42.6551 35.3212 42.3917C36.7521 42.1167 38.2063 41.9909 39.6401 42.0201C40.9714 42.0406 42.3876 42.2015 44.231 42.5409C44.4827 42.5878 44.7373 42.4649 44.8572 42.2366C44.9772 42.0084 44.9333 41.7304 44.749 41.549L44.746 41.5519Z" fill="#5E4939"/>
</svg>
