<svg width="72" height="72" viewBox="0 0 72 72" fill="none" xmlns="http://www.w3.org/2000/svg">
<path d="M53.5889 53.6896C63.3292 43.9493 63.3292 28.1571 53.5889 18.4168C43.8486 8.67649 28.0564 8.67649 18.3161 18.4168C8.57578 28.1571 8.57578 43.9493 18.3161 53.6896C28.0564 63.43 43.8486 63.4299 53.5889 53.6896Z" fill="#FFD05D"/>
<path d="M48.9985 14.7681C51.4827 18.6451 52.9223 23.2565 52.9223 28.2016C52.9223 41.9745 41.7565 53.1432 27.9807 53.1432C23.1966 53.1432 18.7285 51.7943 14.9334 49.4593C19.3664 56.3794 27.1233 60.9645 35.9512 60.9645C49.7241 60.9645 60.8929 49.7987 60.8929 36.0229C60.8929 27.0311 56.1351 19.1542 49.0014 14.7651L48.9985 14.7681Z" fill="#FDC453"/>
<path d="M14.3979 38.6858C14.3979 25.896 24.7649 15.529 37.5547 15.529C45.0308 15.529 51.6758 19.0725 55.9098 24.5705C51.9099 17.6299 44.4163 12.957 35.8313 12.957C23.0415 12.957 12.6745 23.324 12.6745 36.1138C12.6745 41.4275 14.4652 46.3228 17.4761 50.2291C15.5186 46.8319 14.3979 42.8905 14.3979 38.6887V38.6858Z" fill="#FFD77F"/>
<path d="M25.7276 39.8265C25.0839 39.2033 24.0568 39.8938 24.3875 40.7248C26.2309 45.3304 30.7311 48.5813 35.9951 48.5813C41.2591 48.5813 45.6101 45.4358 47.5062 40.9531C47.8515 40.1367 46.8156 39.4286 46.1777 40.046C42.529 43.5836 34.7779 48.6193 25.7276 39.8265V39.8265Z" fill="#5E4939"/>
<path d="M29.511 32.4793C28.8058 30.7149 27.1204 29.5737 25.2214 29.5737C23.3224 29.5737 21.6926 30.6798 20.9669 32.3944C20.8294 32.7222 20.9376 33.0938 21.2332 33.2957C21.5287 33.4976 21.912 33.4654 22.1695 33.2167C23.5535 31.8736 25.7422 30.7968 28.3054 33.2898C28.4488 33.4303 28.6361 33.5034 28.8233 33.5034C28.9667 33.5034 29.1101 33.4624 29.2388 33.3747C29.5344 33.1786 29.6456 32.8099 29.5139 32.4793H29.511Z" fill="#303030"/>
<path d="M50.9384 32.4793C50.2332 30.7149 48.5478 29.5737 46.6488 29.5737C44.7498 29.5737 43.12 30.6798 42.3943 32.3915C42.2539 32.7192 42.3651 33.0908 42.6577 33.2927C42.9532 33.4946 43.3365 33.4625 43.594 33.2137C44.9781 31.8707 47.1638 30.7939 49.7299 33.2869C49.8733 33.4273 50.0606 33.5005 50.2479 33.5005C50.3912 33.5005 50.5346 33.4595 50.6634 33.3717C50.9589 33.1757 51.0701 32.807 50.9384 32.4764V32.4793Z" fill="#303030"/>
<path d="M17.6137 44.0722C20.0183 44.0722 21.9676 42.1228 21.9676 39.7182C21.9676 37.3136 20.0183 35.3643 17.6137 35.3643C15.209 35.3643 13.2597 37.3136 13.2597 39.7182C13.2597 42.1228 15.209 44.0722 17.6137 44.0722Z" fill="#F5A6AC"/>
<path d="M54.2858 44.0722C56.6905 44.0722 58.6398 42.1228 58.6398 39.7182C58.6398 37.3136 56.6905 35.3643 54.2858 35.3643C51.8812 35.3643 49.9319 37.3136 49.9319 39.7182C49.9319 42.1228 51.8812 44.0722 54.2858 44.0722Z" fill="#F5A6AC"/>
</svg>
