<svg width="72" height="71" viewBox="0 0 72 71" fill="none" xmlns="http://www.w3.org/2000/svg">
<path d="M53.5879 52.9094C63.3283 43.169 63.3283 27.3769 53.5879 17.6365C43.8476 7.89622 28.0554 7.89622 18.3151 17.6365C8.5748 27.3769 8.5748 43.169 18.3151 52.9094C28.0554 62.6497 43.8476 62.6497 53.5879 52.9094Z" fill="#FFD05D"/>
<path d="M48.999 13.9863C51.4832 17.8633 52.9228 22.4748 52.9228 27.4198C52.9228 41.1927 41.757 52.3615 27.9812 52.3615C23.1971 52.3615 18.729 51.0126 14.9339 48.6776C19.3669 55.5977 27.1239 60.1828 35.9517 60.1828C49.7247 60.1828 60.8934 49.017 60.8934 35.2411C60.8934 26.2494 56.1356 18.3725 49.0019 13.9834L48.999 13.9863Z" fill="#FDC453"/>
<path d="M14.3985 37.904C14.3985 25.1143 24.7655 14.7473 37.5552 14.7473C45.0313 14.7473 51.6763 18.2907 55.9103 23.7888C51.9104 16.8482 44.4168 12.1753 35.8318 12.1753C23.042 12.1753 12.675 22.5423 12.675 35.3321C12.675 40.6458 14.4658 45.541 17.4767 49.4473C15.5191 46.0502 14.3985 42.1088 14.3985 37.907V37.904Z" fill="#FFD77F"/>
<path d="M28.5986 29.2222C28.5986 30.934 27.7764 32.3209 26.761 32.3209C25.7457 32.3209 24.9235 30.934 24.9235 29.2222C24.9235 27.5105 25.7457 26.1235 26.761 26.1235C27.7764 26.1235 28.5986 27.5105 28.5986 29.2222Z" fill="#303030"/>
<path d="M46.9771 29.2222C46.9771 30.934 46.1549 32.3209 45.1396 32.3209C44.1242 32.3209 43.302 30.934 43.302 29.2222C43.302 27.5105 44.1242 26.1235 45.1396 26.1235C46.1549 26.1235 46.9771 27.5105 46.9771 29.2222Z" fill="#303030"/>
<path d="M50.6815 23.9935C50.4123 23.9145 50.1518 23.8414 49.8973 23.7711C49.3355 23.6131 48.8088 23.4668 48.2967 23.2883C47.533 23.0308 46.8454 22.7382 46.1958 22.3959C45.5111 22.0331 44.8908 21.6322 44.2968 21.164C43.6472 20.6607 43.0445 20.0697 42.4885 19.5079C42.4563 19.4757 42.4095 19.4669 42.3686 19.4845C42.3276 19.502 42.3013 19.543 42.3042 19.5898C42.3451 20.4413 42.6816 21.322 43.2786 22.1355C43.8228 22.8728 44.5543 23.4932 45.3882 23.9291C46.1754 24.3417 47.0532 24.5963 47.9368 24.6607C47.9719 24.6607 48.0041 24.6665 48.0392 24.6665C49.0312 24.7192 49.9236 24.5612 50.699 24.1954C50.74 24.1749 50.7634 24.134 50.7605 24.0901C50.7575 24.0462 50.7253 24.0081 50.6815 23.9935Z" fill="#414042"/>
<path d="M21.2191 23.9935C21.4883 23.9145 21.7487 23.8414 22.0033 23.7711C22.5651 23.6131 23.0918 23.4668 23.6038 23.2883C24.3675 23.0308 25.0551 22.7382 25.7047 22.3959C26.3894 22.0331 27.0097 21.6322 27.6037 21.164C28.2533 20.6607 28.8561 20.0697 29.412 19.5079C29.4442 19.4757 29.491 19.4669 29.532 19.4845C29.573 19.502 29.5993 19.543 29.5964 19.5898C29.5554 20.4413 29.2189 21.322 28.622 22.1355C28.0777 22.8728 27.3462 23.4932 26.5123 23.9291C25.7252 24.3417 24.8474 24.5963 23.9637 24.6607C23.9286 24.6607 23.8964 24.6665 23.8613 24.6665C22.8694 24.7192 21.9769 24.5612 21.2015 24.1954C21.1606 24.1749 21.1372 24.134 21.1401 24.0901C21.143 24.0462 21.1752 24.0081 21.2191 23.9935Z" fill="#414042"/>
<path d="M41.2157 39.0536C39.7966 37.8247 37.8742 37.1312 35.9488 37.1663C34.0557 37.1722 32.1508 37.8656 30.717 39.0624C29.9943 39.6739 29.3886 40.4201 28.9672 41.2277C28.5225 42.1026 28.2913 42.9862 28.2826 43.8494C28.2826 44.0572 28.4113 44.2415 28.6044 44.3088C28.8005 44.3761 29.017 44.3117 29.1428 44.1479C29.6607 43.4807 30.1494 42.9482 30.638 42.5268C31.1647 42.0791 31.7236 41.7075 32.3 41.4179C33.45 40.8444 34.717 40.5371 35.9693 40.5313C37.2538 40.5225 38.4711 40.8092 39.5947 41.3945C40.7505 41.9855 41.8126 42.9131 42.749 44.1449C42.8426 44.2678 42.986 44.3351 43.1323 44.3351C43.1849 44.3351 43.2376 44.3264 43.2903 44.3088C43.4863 44.2415 43.618 44.0542 43.6151 43.8465C43.5887 42.1055 42.6904 40.3147 41.2128 39.0507L41.2157 39.0536Z" fill="#5E4939"/>
<path d="M47.337 33.9243C39.9487 42.3747 40.768 47.2203 40.768 47.2203C40.768 50.8486 43.7087 53.7893 47.337 53.7893C50.9653 53.7893 53.906 50.8486 53.906 47.2203C53.906 47.2203 54.7253 42.3747 47.337 33.9243Z" fill="#7CC4E8"/>
<path d="M42.4534 51.6124C43.656 52.9466 45.397 53.7893 47.337 53.7893C50.9653 53.7893 53.906 50.8487 53.906 47.2204C53.906 47.2204 54.2483 45.1838 52.478 41.4502C51.1701 49.965 45.8242 51.5158 42.4534 51.6124Z" fill="#62BBE8"/>
</svg>
