<svg width="72" height="71" viewBox="0 0 72 71" fill="none" xmlns="http://www.w3.org/2000/svg">
<path d="M53.7496 52.9103C63.4899 43.17 63.4899 27.3778 53.7496 17.6375C44.0092 7.8972 28.2171 7.8972 18.4767 17.6375C8.73642 27.3778 8.73642 43.17 18.4767 52.9103C28.2171 62.6507 44.0092 62.6507 53.7496 52.9103Z" fill="#FFD05D"/>
<path d="M49.1619 13.9858C51.6461 17.8629 53.0857 22.4743 53.0857 27.4193C53.0857 41.1922 41.9199 52.361 28.1441 52.361C23.36 52.361 18.8919 51.0121 15.0968 48.6771C19.5298 55.5972 27.2868 60.1823 36.1147 60.1823C49.8876 60.1823 61.0563 49.0165 61.0563 35.2407C61.0563 26.2489 56.2985 18.372 49.1648 13.9829L49.1619 13.9858Z" fill="#FDC453"/>
<path d="M14.5614 37.9036C14.5614 25.1138 24.9284 14.7468 37.7181 14.7468C45.1942 14.7468 51.8392 18.2902 56.0732 23.7883C52.0733 16.8477 44.5797 12.1748 35.9947 12.1748C23.2049 12.1748 12.8379 22.5418 12.8379 35.3316C12.8379 40.6453 14.6287 45.5405 17.6396 49.4468C15.682 46.0497 14.5614 42.1083 14.5614 37.9065V37.9036Z" fill="#FFD77F"/>
<path d="M28.7615 29.2222C28.7615 30.934 27.9393 32.3209 26.9239 32.3209C25.9086 32.3209 25.0864 30.934 25.0864 29.2222C25.0864 27.5105 25.9086 26.1235 26.9239 26.1235C27.9393 26.1235 28.7615 27.5105 28.7615 29.2222Z" fill="#303030"/>
<path d="M47.1371 29.2222C47.1371 30.934 46.3149 32.3209 45.2995 32.3209C44.2842 32.3209 43.462 30.934 43.462 29.2222C43.462 27.5105 44.2842 26.1235 45.2995 26.1235C46.3149 26.1235 47.1371 27.5105 47.1371 29.2222Z" fill="#303030"/>
<path d="M50.8444 23.993C50.5752 23.914 50.3148 23.8409 50.0602 23.7707C49.4984 23.6126 48.9717 23.4663 48.4596 23.2879C47.6959 23.0304 47.0083 22.7378 46.3587 22.3954C45.674 22.0326 45.0537 21.6317 44.4597 21.1635C43.8102 20.6603 43.2074 20.0692 42.6514 19.5074C42.6193 19.4752 42.5724 19.4664 42.5315 19.484C42.4905 19.5015 42.4642 19.5425 42.4671 19.5893C42.5081 20.4408 42.8446 21.3215 43.4415 22.135C43.9857 22.8724 44.7172 23.4927 45.5512 23.9287C46.3383 24.3412 47.2161 24.5958 48.0997 24.6602C48.1349 24.6602 48.167 24.666 48.2022 24.666C49.1941 24.7187 50.0865 24.5607 50.8619 24.1949C50.9029 24.1744 50.9263 24.1335 50.9234 24.0896C50.9205 24.0457 50.8883 24.0077 50.8444 23.993Z" fill="#414042"/>
<path d="M21.3791 23.993C21.6483 23.914 21.9087 23.8409 22.1632 23.7707C22.725 23.6126 23.2517 23.4663 23.7638 23.2879C24.5275 23.0304 25.2151 22.7378 25.8647 22.3954C26.5494 22.0326 27.1697 21.6317 27.7637 21.1635C28.4133 20.6603 29.0161 20.0692 29.572 19.5074C29.6042 19.4752 29.651 19.4664 29.692 19.484C29.7329 19.5015 29.7593 19.5425 29.7563 19.5893C29.7154 20.4408 29.3789 21.3215 28.782 22.135C28.2377 22.8724 27.5062 23.4927 26.6723 23.9287C25.8852 24.3412 25.0074 24.5958 24.1237 24.6602C24.0886 24.6602 24.0564 24.666 24.0213 24.666C23.0294 24.7187 22.1369 24.5607 21.3615 24.1949C21.3205 24.1744 21.2971 24.1335 21.3001 24.0896C21.303 24.0457 21.3352 24.0077 21.3791 23.993Z" fill="#414042"/>
<path d="M26.6811 46.0056C26.4206 46.0348 26.2714 45.713 26.2743 45.473C26.2861 44.3641 26.5816 43.2317 27.1522 42.1081C27.6935 41.0752 28.4689 40.1154 29.3964 39.3313C31.2369 37.7922 33.6831 36.9056 36.1088 36.8968C38.5784 36.85 41.045 37.7395 42.868 39.3166C44.7611 40.9347 45.914 43.2346 45.9491 45.4672C45.952 45.7217 45.7823 46.0524 45.4985 45.9997C45.2644 45.9588 45.0742 45.6398 44.9016 45.4964C44.6353 45.2741 44.3603 45.0663 44.0764 44.8673C43.5117 44.4694 42.9206 44.1124 42.3091 43.7876C40.0619 42.5879 37.5162 41.9413 34.9647 42.1637C33.3408 42.3041 31.7636 42.7928 30.3152 43.536C29.4462 43.9807 28.621 44.5133 27.8456 45.1073C27.5501 45.3326 27.0673 45.9353 26.7045 46.0056C26.6957 46.0056 26.6898 46.0056 26.6811 46.0085V46.0056Z" fill="#5E4939"/>
</svg>
