<svg width="71" height="71" viewBox="0 0 71 71" fill="none" xmlns="http://www.w3.org/2000/svg">
<path d="M53.0997 53.2541C62.84 43.5138 62.84 27.7216 53.0997 17.9813C43.3593 8.24095 27.5672 8.24095 17.8268 17.9813C8.08652 27.7216 8.08652 43.5138 17.8268 53.2541C27.5672 62.9944 43.3593 62.9944 53.0997 53.2541Z" fill="#84B840"/>
<path d="M48.5123 14.332C50.9965 18.209 52.4362 22.8205 52.4362 27.7655C52.4362 41.5385 41.2704 52.7072 27.4945 52.7072C22.7104 52.7072 18.2424 51.3583 14.4473 49.0233C18.8802 55.9434 26.6372 60.5285 35.4651 60.5285C49.238 60.5285 60.4067 49.3627 60.4067 35.5869C60.4067 26.5951 55.649 18.7182 48.5152 14.3291L48.5123 14.332Z" fill="#73AA43"/>
<path d="M13.9147 38.2498C13.9147 25.46 24.2817 15.093 37.0715 15.093C44.5476 15.093 51.1926 18.6364 55.4266 24.1345C51.4267 17.1939 43.9331 12.521 35.348 12.521C22.5583 12.521 12.1913 22.888 12.1913 35.6778C12.1913 40.9915 13.982 45.8867 16.9929 49.793C15.0354 46.3959 13.9147 42.4545 13.9147 38.2527V38.2498Z" fill="#93C23D"/>
<path d="M50.9117 43.1684C50.2475 41.0149 48.6381 39.6221 46.8094 39.6221C46.1188 39.6221 45.4312 39.8298 44.8226 40.219C44.369 40.5087 44.0237 40.9183 43.6902 41.3163C43.5263 41.5094 43.3742 41.6937 43.2103 41.8576C42.8884 42.1853 42.4554 42.4603 41.9931 42.6359C41.0568 42.9899 39.6405 42.709 38.8856 41.6293C37.9932 40.3536 36.7408 39.6221 35.4446 39.6221C34.4907 39.6221 33.5631 40.0434 32.7614 40.8364C32.5712 41.0237 32.4073 41.2343 32.2493 41.4333C32.1089 41.6118 31.9772 41.7815 31.8367 41.9219C31.5763 42.1853 31.234 42.3579 30.8448 42.5394C30.3708 42.7617 29.8763 42.8407 29.4111 42.7676C28.8025 42.671 28.1587 42.3258 27.6906 41.8459C27.5413 41.6908 27.3921 41.5211 27.237 41.3397C26.8771 40.9242 26.5084 40.494 26.0461 40.2014C25.4434 39.8211 24.7645 39.6191 24.0856 39.6191C22.2949 39.6191 20.6973 40.971 20.0155 43.066C19.8897 43.4552 20.0477 43.8853 20.3842 44.0667C20.6826 44.2277 21.0309 44.1516 21.2503 43.8736C22.1077 42.7939 23.5297 41.8137 24.9547 42.3082C25.6569 42.551 26.2334 43.1977 26.7191 43.7829C27.4126 44.6168 28.3138 45.1494 29.2648 45.2811C29.4257 45.3045 29.5895 45.3132 29.7505 45.3132C30.9121 45.3132 32.0445 44.7192 32.8638 43.6805L33.013 43.4874C33.2939 43.1246 33.5163 42.8378 33.8528 42.6271C34.2566 42.3755 34.6955 42.2116 35.1227 42.1531C35.5792 42.0917 36.0532 42.1794 36.5301 42.4106C36.7642 42.5247 37.0012 42.6739 37.2353 42.8583C37.4782 43.0485 37.7006 43.3118 37.9347 43.5898C38.1834 43.8853 38.4379 44.1896 38.751 44.4413C39.4533 45.0089 40.2696 45.3074 41.1123 45.3074C42.0399 45.3074 42.9323 44.9299 43.6902 44.216C43.8043 44.1077 44.0033 43.9 44.2344 43.6571C44.5358 43.3411 45.0947 42.7559 45.2322 42.6622C46.2739 41.96 47.418 41.9893 48.4538 42.7442C48.8634 43.0426 49.2614 43.4406 49.671 43.9585C49.8905 44.2335 50.2358 44.3125 50.5342 44.1574C50.8736 43.979 51.0316 43.5605 50.9088 43.1626L50.9117 43.1684Z" fill="#5E4939"/>
<path d="M20.9206 26.1928L19.3068 27.8066L26.5773 35.0772L28.1912 33.4634L20.9206 26.1928Z" fill="#303030"/>
<path d="M28.1928 27.8082L26.579 26.1943L19.3084 33.4649L20.9222 35.0787L28.1928 27.8082Z" fill="#303030"/>
<path d="M44.354 26.1972L42.7401 27.811L50.0107 35.0816L51.6245 33.4677L44.354 26.1972Z" fill="#303030"/>
<path d="M51.6233 27.8062L50.0094 26.1924L42.7388 33.4629L44.3527 35.0768L51.6233 27.8062Z" fill="#303030"/>
</svg>
