<?xml version="1.0" standalone="no"?>
<!DOCTYPE svg PUBLIC "-//W3C//DTD SVG 20010904//EN"
 "http://www.w3.org/TR/2001/REC-SVG-20010904/DTD/svg10.dtd">
<svg version="1.0" xmlns="http://www.w3.org/2000/svg"
 width="1080.000000pt" height="1080.000000pt" viewBox="0 0 1080.000000 1080.000000"
 preserveAspectRatio="xMidYMid meet">

<g transform="translate(0.000000,1080.000000) scale(0.100000,-0.100000)"
fill="#000000" stroke="none">
<path d="M2740 9989 c-30 -4 -109 -15 -175 -23 -114 -14 -144 -20 -260 -52
-27 -7 -75 -20 -105 -28 -64 -17 -113 -33 -155 -52 -16 -7 -48 -18 -70 -25
-22 -7 -44 -17 -50 -21 -5 -4 -17 -8 -26 -8 -25 0 -391 -187 -434 -221 -11 -9
-32 -23 -46 -30 -52 -28 -176 -115 -246 -174 -40 -33 -89 -73 -110 -89 -47
-37 -363 -357 -363 -369 0 -5 -20 -33 -45 -64 -25 -30 -45 -58 -45 -61 0 -4
-13 -20 -28 -37 -15 -16 -42 -50 -58 -75 -52 -76 -200 -333 -213 -370 -7 -19
-26 -62 -41 -95 -48 -99 -80 -175 -80 -186 0 -6 -7 -32 -15 -58 -64 -200 -95
-333 -111 -474 -3 -31 -10 -60 -15 -63 -5 -3 -9 -29 -9 -57 0 -29 -7 -97 -15
-152 -19 -129 -19 -401 0 -530 8 -55 15 -128 15 -162 0 -34 4 -64 9 -68 5 -3
12 -31 16 -63 11 -104 36 -226 64 -322 16 -52 38 -126 49 -165 30 -101 109
-297 166 -412 27 -54 131 -224 173 -284 18 -26 33 -49 33 -52 0 -4 48 -68 107
-142 60 -75 117 -148 128 -163 29 -40 331 -343 373 -375 20 -16 91 -81 157
-145 66 -64 156 -151 200 -192 44 -41 152 -143 240 -226 88 -83 187 -175 220
-204 33 -29 112 -103 175 -164 63 -61 169 -161 235 -221 66 -61 122 -112 125
-115 3 -3 48 -46 100 -95 52 -50 176 -167 275 -261 99 -94 207 -195 240 -225
33 -30 150 -141 261 -246 111 -106 204 -193 208 -193 4 0 62 -53 129 -118 67
-65 169 -162 227 -217 58 -55 159 -151 225 -215 66 -63 165 -155 219 -205 55
-49 172 -159 260 -244 89 -85 172 -161 186 -170 14 -8 50 -34 80 -56 49 -36
158 -95 178 -95 4 0 19 -6 33 -14 31 -16 69 -23 181 -36 132 -15 305 11 418
62 25 11 56 26 70 32 34 15 172 119 239 181 30 28 143 133 251 235 108 102
299 281 426 399 126 118 288 271 361 340 73 69 165 155 204 191 40 36 138 128
219 206 80 78 158 152 174 165 49 40 132 117 275 255 177 170 331 314 701 659
47 43 132 124 190 179 58 56 162 153 230 216 565 522 969 926 1061 1062 16 24
49 70 74 103 53 70 103 144 135 200 13 22 38 64 57 92 29 45 56 99 118 238 7
17 25 56 39 87 14 31 26 64 26 72 0 8 5 18 10 21 6 4 8 10 5 15 -3 5 -1 11 5
15 5 3 10 15 10 25 0 11 6 34 14 52 8 18 19 60 26 93 6 33 18 73 26 88 8 16
14 37 14 48 0 11 6 45 14 77 8 31 20 98 26 147 7 50 16 99 20 110 13 30 34
323 34 460 -1 207 -36 519 -79 705 -8 36 -15 73 -15 82 0 9 -6 29 -14 45 -8
15 -20 55 -26 88 -7 33 -18 75 -26 93 -8 18 -14 38 -14 45 0 15 -58 154 -94
225 -14 28 -26 57 -26 64 0 7 -28 60 -61 118 -34 58 -69 119 -79 135 -37 64
-95 152 -129 195 -20 25 -40 52 -46 61 -30 48 -109 143 -178 213 -43 44 -96
101 -119 128 -22 27 -71 74 -107 103 -36 30 -99 83 -139 117 -41 35 -79 65
-85 68 -7 3 -78 49 -159 103 -81 53 -154 97 -162 97 -8 0 -17 4 -20 9 -8 12
-270 141 -287 141 -8 0 -19 4 -24 8 -6 5 -32 17 -60 26 -27 10 -59 22 -70 27
-52 23 -150 54 -220 69 -83 19 -161 39 -190 49 -16 5 -102 18 -190 28 -188 21
-579 24 -690 5 -38 -7 -113 -16 -165 -21 -52 -6 -108 -14 -125 -20 -54 -17
-156 -42 -255 -60 -43 -9 -111 -31 -148 -50 -9 -4 -39 -16 -67 -26 -27 -10
-68 -24 -90 -32 -32 -11 -231 -107 -295 -142 -8 -5 -35 -19 -60 -31 -44 -23
-125 -75 -284 -184 -44 -30 -110 -82 -147 -116 -37 -33 -86 -75 -108 -93 -22
-18 -102 -96 -178 -175 -129 -135 -139 -143 -167 -138 -22 5 -77 52 -191 164
-183 180 -332 316 -390 354 -22 15 -80 55 -130 90 -88 61 -141 91 -320 181
-111 56 -172 83 -208 92 -15 4 -30 11 -33 16 -3 5 -14 9 -24 9 -10 0 -40 10
-67 21 -26 12 -61 25 -78 29 -16 5 -43 13 -60 19 -16 5 -57 15 -90 22 -33 6
-80 17 -105 24 -184 52 -416 80 -680 81 -118 1 -240 -2 -270 -7z"/>
</g>
</svg>
