<svg width="32" height="32" viewBox="0 0 32 32" fill="none" xmlns="http://www.w3.org/2000/svg">
<path d="M23.9999 9.54669C23.9199 9.53336 23.8266 9.53336 23.7466 9.54669C21.9066 9.48003 20.4399 7.97336 20.4399 6.10669C20.4399 4.20002 21.9733 2.66669 23.8799 2.66669C25.7866 2.66669 27.3199 4.21336 27.3199 6.10669C27.3066 7.97336 25.8399 9.48003 23.9999 9.54669Z" stroke="#3E3E3E" stroke-width="2" stroke-linecap="round" stroke-linejoin="round"/>
<path d="M22.6267 19.2534C24.4533 19.5601 26.4667 19.2401 27.88 18.2934C29.76 17.0401 29.76 14.9867 27.88 13.7334C26.4533 12.7867 24.4133 12.4667 22.5867 12.7867" stroke="#3E3E3E" stroke-width="2" stroke-linecap="round" stroke-linejoin="round"/>
<path d="M7.95989 9.54669C8.03989 9.53336 8.13323 9.53336 8.21323 9.54669C10.0532 9.48003 11.5199 7.97336 11.5199 6.10669C11.5199 4.20002 9.98656 2.66669 8.0799 2.66669C6.17323 2.66669 4.63989 4.21336 4.63989 6.10669C4.65323 7.97336 6.11989 9.48003 7.95989 9.54669Z" stroke="#3E3E3E" stroke-width="2" stroke-linecap="round" stroke-linejoin="round"/>
<path d="M9.33325 19.2534C7.50659 19.5601 5.49326 19.2401 4.07992 18.2934C2.19992 17.0401 2.19992 14.9867 4.07992 13.7334C5.50659 12.7867 7.54659 12.4667 9.37325 12.7867" stroke="#3E3E3E" stroke-width="2" stroke-linecap="round" stroke-linejoin="round"/>
<path d="M15.9999 19.5067C15.9199 19.4933 15.8266 19.4933 15.7466 19.5067C13.9066 19.44 12.4399 17.9333 12.4399 16.0667C12.4399 14.16 13.9733 12.6266 15.8799 12.6266C17.7866 12.6266 19.3199 14.1733 19.3199 16.0667C19.3066 17.9333 17.8399 19.4533 15.9999 19.5067Z" stroke="#3E3E3E" stroke-width="2" stroke-linecap="round" stroke-linejoin="round"/>
<path d="M12.12 23.7067C10.24 24.96 10.24 27.0133 12.12 28.2667C14.2533 29.6933 17.7466 29.6933 19.88 28.2667C21.76 27.0133 21.76 24.96 19.88 23.7067C17.76 22.2933 14.2533 22.2933 12.12 23.7067Z" stroke="#3E3E3E" stroke-width="2" stroke-linecap="round" stroke-linejoin="round"/>
</svg>
