<svg width="71" height="72" viewBox="0 0 71 72" fill="none" xmlns="http://www.w3.org/2000/svg">
<path d="M53.1026 53.6906C62.8429 43.9503 62.8429 28.1581 53.1026 18.4178C43.3623 8.67748 27.5701 8.67747 17.8298 18.4178C8.08945 28.1581 8.08945 43.9503 17.8298 53.6906C27.5701 63.4309 43.3623 63.4309 53.1026 53.6906Z" fill="#FFD05D"/>
<path d="M48.5124 14.7685C50.9966 18.6456 52.4362 23.257 52.4362 28.202C52.4362 41.975 41.2704 53.1437 27.4946 53.1437C22.7105 53.1437 18.2424 51.7948 14.4473 49.4598C18.8803 56.3799 26.6372 60.965 35.4651 60.965C49.238 60.965 60.4068 49.7992 60.4068 36.0234C60.4068 27.0316 55.649 19.1547 48.5153 14.7656L48.5124 14.7685Z" fill="#FDC453"/>
<path d="M13.9148 38.6863C13.9148 25.8965 24.2818 15.5295 37.0716 15.5295C44.5476 15.5295 51.1927 19.073 55.4267 24.571C51.4268 17.6304 43.9331 12.9575 35.3481 12.9575C22.5583 12.9575 12.1913 23.3245 12.1913 36.1143C12.1913 41.428 13.9821 46.3233 16.993 50.2295C15.0355 46.8324 13.9148 42.891 13.9148 38.6892V38.6863Z" fill="#FFD77F"/>
<path d="M22.0112 36.4566C21.6952 36.4566 21.385 36.3161 21.1773 36.0498C20.8174 35.5905 20.9022 34.9262 21.3616 34.5663L24.9577 31.7632L21.2387 29.5774C20.7354 29.2819 20.5686 28.6323 20.8642 28.129C21.1597 27.6257 21.8093 27.459 22.3126 27.7545L27.3717 30.7303C27.6731 30.9088 27.8691 31.2219 27.8896 31.573C27.913 31.9212 27.7609 32.2606 27.4858 32.4771L22.6608 36.2371C22.4676 36.3863 22.2394 36.4595 22.0112 36.4595V36.4566Z" fill="#303030"/>
<path d="M48.9162 36.4566C48.688 36.4566 48.4598 36.3834 48.2667 36.2342L43.4416 32.4742C43.1666 32.2577 43.0144 31.9212 43.0378 31.5701C43.0612 31.2219 43.2544 30.9058 43.5557 30.7274L48.6149 27.7516C49.1182 27.456 49.7648 27.6228 50.0633 28.1261C50.3588 28.6294 50.192 29.276 49.6887 29.5745L45.9697 31.7602L49.5659 34.5634C50.0252 34.9233 50.1101 35.5875 49.7502 36.0469C49.5424 36.3132 49.2293 36.4536 48.9162 36.4536V36.4566Z" fill="#303030"/>
<path d="M51.2248 35.3301C49.3785 46.4023 52.6235 50.092 52.6235 50.092C54.5284 53.179 58.578 54.1358 61.6621 52.228C64.7491 50.3232 65.7059 46.2735 63.7981 43.1895C63.7981 43.1895 61.9488 38.6365 51.2248 35.3301Z" fill="#7CC4E8"/>
<path d="M56.366 52.9451C58.0894 53.4484 60.0147 53.2494 61.665 52.2311C64.752 50.3263 65.7088 46.2766 63.801 43.1926C63.801 43.1926 63.0198 41.2789 59.5524 39.0317C62.9145 46.9613 59.1779 51.0929 56.366 52.9451V52.9451Z" fill="#62BBE8"/>
<path d="M19.4362 35.1719C8.79126 38.73 7.05028 43.3268 7.05028 43.3268C5.21857 46.4576 6.26903 50.481 9.3999 52.3127C12.5308 54.1444 16.5541 53.0939 18.3858 49.9631C18.3858 49.9631 21.543 46.1972 19.4333 35.1719H19.4362Z" fill="#7CC4E8"/>
<path d="M6.28656 47.9676C6.64939 49.729 7.72911 51.3325 9.39988 52.3127C12.5308 54.1444 16.5541 53.094 18.3858 49.9631C18.3858 49.9631 19.7113 48.3772 20.0682 44.2603C14.6375 50.9463 9.23894 49.5827 6.28363 47.9676H6.28656Z" fill="#62BBE8"/>
<path d="M21.1772 39.3594C21.9878 46.534 28.0739 52.1111 35.4651 52.1111C42.8563 52.1111 48.9425 46.534 49.753 39.3594H21.1772V39.3594Z" fill="#695342"/>
<path d="M25.5956 48.1842C28.1705 50.6186 31.6408 52.1109 35.4651 52.1109C39.2895 52.1109 42.4613 50.7445 44.9982 48.4943L44.8665 48.1842C35.272 43.5054 25.7273 48.1198 25.5985 48.1842H25.5956Z" fill="#F06669"/>
</svg>
