<svg width="72" height="71" viewBox="0 0 72 71" fill="none" xmlns="http://www.w3.org/2000/svg">
<path d="M53.5865 53.2541C63.3268 43.5138 63.3268 27.7216 53.5865 17.9813C43.8462 8.24094 28.054 8.24094 18.3137 17.9813C8.57334 27.7216 8.57333 43.5138 18.3137 53.2541C28.054 62.9944 43.8462 62.9944 53.5865 53.2541Z" fill="#FFD05D"/>
<path d="M48.9989 14.3325C51.4831 18.2095 52.9227 22.821 52.9227 27.766C52.9227 41.5389 41.7569 52.7077 27.9811 52.7077C23.197 52.7077 18.7289 51.3588 14.9338 49.0238C19.3668 55.9439 27.1238 60.529 35.9517 60.529C49.7246 60.529 60.8933 49.3632 60.8933 35.5873C60.8933 26.5956 56.1355 18.7187 49.0018 14.3296L48.9989 14.3325Z" fill="#FDC453"/>
<path d="M14.3983 38.2498C14.3983 25.46 24.7653 15.093 37.5551 15.093C45.0311 15.093 51.6762 18.6364 55.9102 24.1345C51.9103 17.1939 44.4166 12.521 35.8316 12.521C23.0419 12.521 12.6749 22.888 12.6749 35.6778C12.6749 40.9915 14.4656 45.8867 17.4765 49.793C15.519 46.3959 14.3983 42.4545 14.3983 38.2527V38.2498Z" fill="#FFD77F"/>
<path d="M28.5985 33.9195C28.5985 35.6312 27.7762 37.0182 26.7609 37.0182C25.7456 37.0182 24.9233 35.6312 24.9233 33.9195C24.9233 32.2077 25.7456 30.8208 26.7609 30.8208C27.7762 30.8208 28.5985 32.2077 28.5985 33.9195Z" fill="#303030"/>
<path d="M46.977 33.9195C46.977 35.6312 46.1548 37.0182 45.1394 37.0182C44.1241 37.0182 43.3019 35.6312 43.3019 33.9195C43.3019 32.2077 44.1241 30.8208 45.1394 30.8208C46.1548 30.8208 46.977 32.2077 46.977 33.9195Z" fill="#303030"/>
<path d="M27.8377 45.1847C29.0286 44.0055 30.6584 43.1394 32.5515 42.6771C34.2808 42.2616 36.1389 42.2294 37.9296 42.5776C39.6794 42.9171 41.3853 43.6252 42.8688 44.6259C44.443 45.6997 45.6632 46.9843 46.4971 48.4414C46.6259 48.6638 46.5907 48.9447 46.4152 49.132C46.3011 49.252 46.146 49.3163 45.988 49.3163C45.9002 49.3163 45.8124 49.2959 45.7305 49.2549L45.1833 48.9857C43.8988 48.3507 42.6874 47.7509 41.4555 47.2681C40.0481 46.7063 38.6377 46.2879 37.2625 46.0245C35.8317 45.7495 34.3774 45.6236 32.9436 45.6529C31.6123 45.6734 30.1961 45.8343 28.3556 46.1738C28.104 46.2206 27.8494 46.0977 27.7294 45.8695C27.6095 45.6412 27.6533 45.3632 27.8377 45.1818V45.1847Z" fill="#5E4939"/>
<path d="M60.1589 29.1558C59.1757 25.4749 57.3733 22.1304 54.9651 19.3243L18.6645 17.4224C15.9638 19.9768 13.8307 23.1252 12.473 26.6599L60.1618 29.1587L60.1589 29.1558Z" fill="#F1F2F2"/>
<path d="M20.6923 27.0666L48.0684 18.9614L25.2072 27.327L20.6923 27.0666Z" fill="#E6E7E8"/>
<path d="M17.8189 18.2564C14.7758 21.4194 12.552 25.3784 11.4957 29.7909L53.1773 17.4488C49.9967 14.432 46.029 12.2404 41.6106 11.2104L17.8189 18.2564V18.2564Z" fill="white"/>
<path d="M16.6368 19.5702L46.7224 12.9953C45.1073 12.2229 43.3955 11.6259 41.6135 11.2104L17.8218 18.2564C17.4122 18.6807 17.0172 19.1166 16.6397 19.5702H16.6368Z" fill="#F9F9F9"/>
<path d="M20.7742 29.2435C21.0434 29.1645 21.3038 29.0914 21.5584 29.0211C22.1202 28.8631 22.6469 28.7168 23.1589 28.5383C23.9226 28.2808 24.6102 27.9882 25.2598 27.6459C25.9445 27.2831 26.5648 26.8822 27.1588 26.414C27.8084 25.9107 28.4112 25.3197 28.9671 24.7579C28.9993 24.7257 29.0461 24.7169 29.0871 24.7345C29.1281 24.752 29.1544 24.793 29.1515 24.8398C29.1105 25.6913 28.774 26.572 28.1771 27.3855C27.6329 28.1228 26.9013 28.7432 26.0674 29.1791C25.2803 29.5917 24.4025 29.8463 23.5188 29.9107C23.4837 29.9107 23.4515 29.9165 23.4164 29.9165C22.4245 29.9692 21.532 29.8112 20.7566 29.4454C20.7157 29.4249 20.6923 29.384 20.6952 29.3401C20.6981 29.2962 20.7303 29.2582 20.7742 29.2435Z" fill="#414042"/>
</svg>
