<svg width="55" height="62" viewBox="0 0 55 62" fill="none" xmlns="http://www.w3.org/2000/svg">
<path d="M27.5 2C18.3148 12.7886 6.76963 8.9034 2.14515 5.61224L2.13473 5.6707C0.465238 15.0341 -3.47844 37.1524 26.886 60.5307C27.2416 60.8044 27.7584 60.8044 28.1139 60.5307C58.4784 37.1524 54.5348 15.0341 52.8653 5.67064L52.8548 5.61218C48.2304 8.90333 36.6852 12.7886 27.5 2Z" stroke="black" stroke-width="2" stroke-linecap="square"/>
<path d="M25.5664 15.2494C23.7762 15.8706 22.3077 17.2118 21.4685 18.9906C21.0349 19.9083 20.951 20.233 20.8951 21.3624C20.8531 22.1812 20.8951 22.9718 21.007 23.4377C21.3986 25.0894 22.5734 26.7977 23.93 27.673C24.3216 27.9271 24.4755 28.0965 24.3496 28.1389C24.2377 28.1671 23.9021 28.28 23.5944 28.3789C22.5035 28.7036 20.7272 29.6494 19.6223 30.4824C16.6293 32.7694 14.6853 36.2989 14.3496 40.1106L14.2517 41.2118H14.8111H15.3706L15.4685 40.153C15.5944 38.8259 16.1118 36.9624 16.6853 35.8047C18.6993 31.7953 22.3356 29.3106 26.8811 28.8589C28.8391 28.6753 31.7902 29.353 33.7202 30.44C34.6573 30.9624 34.6293 30.9624 35.007 30.2847C35.1748 29.9883 35.2028 30.0165 34.0839 29.3671C33.4965 29.0283 32.1538 28.4777 31.1608 28.153C30.937 28.0824 30.993 28.0118 31.5104 27.673C32.8251 26.8259 33.958 25.2306 34.3776 23.6353C34.6014 22.8024 34.6293 21.0659 34.4195 20.1906C34.0699 18.6518 32.7832 16.8589 31.3846 15.9694C29.7902 14.9389 27.3286 14.6283 25.5664 15.2494ZM30.1258 16.6047C31.4125 17.2118 32.2377 18.0165 32.8671 19.3012C33.3706 20.3318 33.3846 20.4306 33.3846 21.8706C33.3846 23.3106 33.3706 23.4094 32.8671 24.44C32.2377 25.7247 31.4265 26.5153 30.1258 27.1365C29.2587 27.56 29.0769 27.5883 27.7202 27.5883C26.3636 27.5883 26.1818 27.56 25.3146 27.1365C24.0139 26.5153 23.2028 25.7247 22.5734 24.44C22.0699 23.4094 22.0559 23.3106 22.0559 21.8847C22.0559 20.5012 22.0839 20.3177 22.4895 19.4565C23.2307 17.8753 24.2797 16.9436 25.972 16.3224C26.4895 16.1389 26.993 16.0824 27.93 16.1247C28.993 16.153 29.3286 16.2377 30.1258 16.6047Z" fill="black" stroke="black"/>
<path d="M33.795 39.29L31.71 37.205L31 37.91L33.795 40.705L39.795 34.705L39.09 34L33.795 39.29Z" fill="black" stroke="black"/>
</svg>
