<svg width="40" height="40" viewBox="0 0 40 40" fill="none" xmlns="http://www.w3.org/2000/svg">
<path d="M35.45 15.3C34.9667 14.5334 34.45 13.8167 33.9167 13.15C33.3 12.3667 32.1334 12.3 31.4334 13L26.4333 18C26.8 19.1 26.8667 20.3667 26.5333 21.6834C25.95 24.0334 24.05 25.9334 21.7 26.5167C20.3834 26.85 19.1167 26.7834 18.0167 26.4167C18.0167 26.4167 15.6334 28.8 13.9167 30.5167C13.0833 31.35 13.35 32.8167 14.4667 33.25C16.25 33.9334 18.1 34.2834 20 34.2834C22.9667 34.2834 25.85 33.4167 28.4833 31.8C31.1667 30.1334 33.5833 27.6834 35.5333 24.5667C37.1167 22.05 37.0334 17.8167 35.45 15.3Z" fill="#292D32"/>
<path d="M23.3667 16.6333L16.6333 23.3667C15.7833 22.5 15.2333 21.3 15.2333 20C15.2333 17.3833 17.3667 15.2333 20 15.2333C21.3 15.2333 22.5 15.7833 23.3667 16.6333Z" fill="#292D32"/>
<path d="M30.4167 9.58334L24.7667 15.2333C23.55 14 21.8667 13.2667 20 13.2667C16.2667 13.2667 13.2667 16.2833 13.2667 20C13.2667 21.8667 14.0167 23.55 15.2333 24.7667L9.60001 30.4167H9.58334C7.73334 28.9167 6.03334 27 4.58334 24.7333C2.91668 22.1167 2.91668 17.8667 4.58334 15.25C6.51668 12.2167 8.88334 9.83334 11.5167 8.20001C14.15 6.60001 17.0333 5.71667 20 5.71667C23.7167 5.71667 27.3167 7.08334 30.4167 9.58334Z" fill="#292D32"/>
<path d="M24.7667 20C24.7667 22.6167 22.6333 24.7667 20 24.7667C19.9 24.7667 19.8167 24.7667 19.7167 24.7333L24.7333 19.7167C24.7667 19.8167 24.7667 19.9 24.7667 20Z" fill="#292D32"/>
<path d="M36.2833 3.71667C35.7833 3.21667 34.9667 3.21667 34.4667 3.71667L3.71667 34.4833C3.21667 34.9833 3.21667 35.8 3.71667 36.3C3.96667 36.5333 4.28334 36.6667 4.61667 36.6667C4.95001 36.6667 5.26667 36.5333 5.51667 36.2833L36.2833 5.51667C36.8 5.01667 36.8 4.21667 36.2833 3.71667Z" fill="#292D32"/>
</svg>
