<svg width="32" height="26" viewBox="0 0 32 26" fill="none" xmlns="http://www.w3.org/2000/svg">
<path d="M17.6149 3.83115C18.3834 3.95422 19.0348 4.34145 19.476 4.94181C19.8753 5.48213 20.0674 6.16954 20.0043 6.83593C19.9173 7.76649 19.2959 8.82011 18.0262 10.1889C17.6299 10.6122 17.3838 10.7292 17.0626 10.6452C16.8585 10.5912 16.7414 10.4981 16.3392 10.0568C15.3005 8.91917 14.6972 7.9556 14.5231 7.15112C14.457 6.86295 14.46 6.31362 14.5261 6.00744C14.6462 5.4311 14.9794 4.86977 15.4176 4.49754C15.7778 4.18836 16.2191 3.96323 16.6393 3.87317C16.9005 3.81914 17.3928 3.79813 17.6149 3.83115ZM16.9275 5.31703C16.6754 5.38307 16.4862 5.49714 16.2971 5.69526C15.8108 6.20556 15.8078 6.953 16.2881 7.47832C16.8885 8.13571 18.0052 7.97961 18.3984 7.18414C18.6595 6.65283 18.5845 6.1095 18.1883 5.69526C17.8461 5.33504 17.3868 5.19696 16.9275 5.31703Z" fill="#3E3E3E"/>
<path d="M5.68616 10.1109C7.16603 10.2489 8.53485 11.0444 9.42338 12.2811C9.66052 12.6083 10.0057 13.2897 10.1288 13.671C10.402 14.5205 10.456 15.475 10.2789 16.3396C10.0417 17.4892 9.25528 18.9271 8.01254 20.476C7.31012 21.3525 6.23548 22.5202 5.96832 22.6973C5.45202 23.0395 4.77662 23.0155 4.30534 22.6343C4.00816 22.3942 2.95153 21.2325 2.36318 20.497C1.07241 18.8911 0.312963 17.4922 0.0668163 16.2795C0.00678062 15.9883 -0.00222492 15.8563 0.000777245 15.2679C0.000777245 14.6856 0.00978279 14.5505 0.0698185 14.2773C0.421027 12.6293 1.44764 11.3116 2.93352 10.6001C3.51887 10.318 4.08621 10.1649 4.7556 10.1048C5.14583 10.0718 5.28392 10.0718 5.68616 10.1109ZM4.71958 12.8785C4.2483 12.9685 3.85507 13.1727 3.50086 13.5089C2.32716 14.6195 2.50126 16.4746 3.86407 17.3692C4.11922 17.5373 4.46443 17.6633 4.82164 17.7204C5.90529 17.8975 7.01895 17.2641 7.4512 16.2255C8.03655 14.8116 7.18705 13.2147 5.67115 12.8815C5.431 12.8275 4.98974 12.8275 4.71958 12.8785Z" fill="#3E3E3E"/>
<path d="M17.243 11.1585C17.3361 11.1975 17.3631 11.2365 17.3631 11.3566C17.3631 11.5157 17.273 11.5577 16.7117 11.6628C15.0757 11.972 14.3733 12.1431 13.7549 12.3832C13.1666 12.6143 12.7974 12.8905 12.6443 13.2117C12.5752 13.3588 12.5602 13.4308 12.5602 13.6169C12.5602 13.9922 12.7163 14.2473 13.0975 14.5025C13.7639 14.9437 14.8746 15.2289 17.0029 15.5081C18.4617 15.7002 20.0196 15.9913 20.9352 16.2435C23.3186 16.9009 24.4773 17.9035 24.4773 19.3113C24.4773 19.6565 24.4383 19.8456 24.3062 20.1308C23.7359 21.3795 21.6436 22.4602 18.0535 23.3577C15.4029 24.0211 12.6773 24.4654 7.72734 25.0387C6.21745 25.2128 5.95029 25.2308 5.68613 25.1588C5.28089 25.0507 5.05276 24.6965 5.1278 24.2943C5.17283 24.0481 5.53004 23.79 5.95929 23.6909C6.06736 23.6639 7.06995 23.5438 8.18962 23.4178C13.7399 22.8024 16.9338 22.2891 19.5214 21.5987C21.6496 21.0283 22.8323 20.419 23.1655 19.7196C23.2526 19.5365 23.2616 19.4884 23.2616 19.2453C23.2586 18.3838 22.6162 17.7384 21.2654 17.2401C20.4309 16.9309 18.885 16.5977 16.9128 16.3035C15.3068 16.0634 14.4093 15.8623 13.6258 15.5681C12.2931 15.0698 11.6537 14.3344 11.7767 13.4518C11.9118 12.4913 12.7733 11.9329 14.7365 11.5307C15.1267 11.4496 17.1349 11.1164 17.1619 11.1285C17.165 11.1285 17.201 11.1435 17.243 11.1585Z" fill="#3E3E3E"/>
<path d="M26.2 7.40002C27.9673 7.40002 29.4 5.96732 29.4 4.20001C29.4 2.4327 27.9673 1 26.2 1C24.4327 1 23 2.4327 23 4.20001C23 5.96732 24.4327 7.40002 26.2 7.40002Z" stroke="#3E3E3E" stroke-width="1.5" stroke-linecap="round" stroke-linejoin="round"/>
<path d="M31 9L29 7" stroke="#3E3E3E" stroke-width="1.5" stroke-linecap="round" stroke-linejoin="round"/>
</svg>
