<?xml version="1.0" standalone="no"?>
<!DOCTYPE svg PUBLIC "-//W3C//DTD SVG 20010904//EN"
 "http://www.w3.org/TR/2001/REC-SVG-20010904/DTD/svg10.dtd">
<svg version="1.0" xmlns="http://www.w3.org/2000/svg"
 width="3000.000000pt" height="3000.000000pt" viewBox="0 0 3000.000000 3000.000000"
 preserveAspectRatio="xMidYMid meet">

<g transform="translate(0.000000,3000.000000) scale(0.100000,-0.100000)"
fill="#000000" stroke="none">
<path d="M20965 28088 c-132 -4 -248 -12 -257 -18 -10 -5 -39 -10 -66 -10 -59
0 -252 -28 -267 -39 -5 -4 -48 -16 -95 -26 -47 -10 -89 -22 -95 -25 -5 -4 -37
-15 -70 -24 -33 -10 -74 -24 -92 -32 -17 -8 -36 -14 -42 -14 -6 0 -35 -11 -65
-25 -30 -14 -58 -25 -63 -25 -4 0 -55 -23 -113 -51 -169 -83 -223 -111 -252
-131 -14 -10 -31 -18 -37 -18 -7 0 -35 -17 -64 -38 -29 -22 -68 -47 -87 -57
-19 -10 -53 -32 -75 -50 -22 -18 -52 -39 -66 -46 -75 -40 -393 -313 -500 -430
-155 -170 -337 -410 -412 -543 -16 -28 -34 -57 -40 -64 -12 -15 -33 -53 -101
-189 -26 -51 -51 -95 -56 -98 -6 -3 -10 -14 -10 -25 0 -15 -22 -68 -61 -142
-5 -10 -9 -26 -9 -36 0 -9 -6 -27 -14 -38 -8 -11 -22 -47 -32 -79 -9 -33 -20
-67 -24 -75 -11 -23 -30 -85 -30 -99 0 -7 -6 -27 -14 -44 -8 -18 -19 -61 -26
-97 -6 -36 -18 -87 -25 -115 -8 -27 -19 -95 -25 -150 -6 -55 -17 -161 -25
-235 -8 -74 -15 -209 -15 -299 0 -212 34 -574 65 -686 7 -27 19 -77 25 -110 7
-33 18 -73 26 -90 7 -16 18 -55 25 -85 6 -30 15 -59 19 -65 4 -5 15 -37 25
-70 9 -33 20 -64 25 -70 4 -5 16 -38 25 -72 10 -35 24 -68 31 -74 8 -6 14 -20
14 -31 0 -11 9 -37 19 -57 11 -20 27 -54 36 -76 9 -22 21 -47 26 -55 5 -8 14
-27 20 -41 27 -69 238 -469 263 -499 7 -8 20 -31 30 -50 20 -41 33 -64 63
-107 13 -17 23 -35 23 -38 0 -4 16 -29 35 -55 19 -26 35 -50 35 -54 0 -8 88
-146 145 -226 128 -181 161 -228 170 -242 19 -30 141 -192 205 -274 36 -45 74
-95 85 -110 11 -15 49 -63 85 -107 36 -44 76 -94 90 -112 67 -87 86 -111 101
-125 23 -22 133 -151 151 -178 8 -12 89 -104 179 -204 90 -100 171 -191 179
-203 8 -12 110 -123 226 -246 191 -202 396 -398 427 -408 7 -2 21 -12 32 -22
28 -25 153 -89 174 -89 9 0 22 -5 27 -10 14 -14 118 -40 159 -40 19 0 37 -4
40 -10 8 -12 169 -13 193 -1 9 5 43 14 75 20 50 9 136 42 187 71 8 5 34 19 58
31 23 13 42 26 42 31 0 4 5 8 11 8 25 0 223 171 387 333 94 94 172 175 172
180 0 5 31 41 69 81 97 101 287 312 335 372 23 28 93 112 156 185 64 74 122
144 130 155 8 12 51 65 95 118 44 52 118 145 165 206 47 61 103 135 125 163
23 29 61 81 86 117 25 36 68 95 95 132 72 98 158 221 164 233 3 6 21 33 40 60
19 28 42 62 50 77 8 16 53 90 100 165 88 142 91 149 130 221 12 23 26 45 31
48 5 3 9 12 9 21 0 9 10 30 23 47 20 28 35 55 51 96 4 8 15 29 25 45 11 17 20
36 20 44 1 8 7 22 14 30 8 9 20 32 27 51 7 19 18 42 25 50 6 8 17 33 24 55 7
22 19 47 25 55 7 8 18 33 25 55 7 22 24 63 37 92 13 28 24 56 24 61 0 5 7 23
15 38 8 16 15 37 15 46 0 9 5 20 10 23 6 3 10 15 10 25 0 10 6 31 14 47 8 15
26 71 41 123 15 52 33 115 40 140 7 25 18 68 24 95 6 28 16 73 22 100 5 28 15
70 20 95 5 25 13 95 19 155 5 61 14 134 20 164 15 81 12 400 -5 506 -8 50 -15
114 -15 142 0 29 -4 72 -10 95 -8 39 -17 84 -51 253 -11 54 -22 92 -63 225
-15 47 -26 91 -26 98 0 7 -5 20 -10 30 -15 25 -90 214 -90 226 0 5 -6 17 -13
25 -7 9 -19 35 -27 59 -7 23 -19 47 -27 53 -7 6 -13 17 -13 24 0 12 -10 33
-60 120 -16 28 -37 66 -46 85 -10 19 -35 58 -56 87 -21 29 -38 55 -38 59 0 3
-22 37 -50 75 -27 38 -50 71 -50 74 0 6 -104 133 -216 266 -77 91 -194 209
-234 236 -14 9 -52 41 -86 72 -85 79 -340 271 -360 271 -4 0 -21 11 -39 24
-55 42 -346 194 -495 259 -25 11 -58 26 -75 34 -16 9 -54 22 -84 29 -30 8 -60
19 -65 23 -6 5 -42 17 -81 26 -38 10 -74 21 -80 25 -5 4 -46 15 -90 24 -44 10
-89 22 -100 26 -22 10 -119 30 -180 37 -22 3 -44 9 -50 13 -26 20 -346 29
-670 18z m383 -1793 c109 -16 247 -51 327 -83 58 -22 163 -70 185 -83 8 -5 35
-21 60 -35 210 -125 425 -331 564 -544 71 -107 149 -265 178 -355 52 -166 68
-275 68 -462 0 -240 -31 -394 -129 -643 -233 -594 -815 -980 -1477 -980 -207
0 -395 35 -599 110 -33 13 -65 26 -70 31 -6 4 -40 22 -75 40 -130 64 -233 141
-366 274 -165 164 -275 325 -369 540 -123 280 -151 654 -74 975 54 224 198
487 371 677 219 241 428 380 707 473 217 72 485 97 699 65z"/>
<path d="M6020 20409 c-96 -5 -182 -12 -190 -16 -21 -9 -30 -10 -180 -23 -74
-6 -155 -15 -180 -20 -25 -5 -83 -14 -130 -20 -47 -6 -123 -20 -170 -30 -47
-10 -112 -24 -145 -30 -83 -15 -257 -57 -335 -81 -36 -10 -81 -22 -100 -25
-19 -4 -46 -12 -60 -19 -35 -17 -93 -35 -116 -35 -10 0 -28 -7 -38 -15 -11 -8
-30 -15 -42 -15 -13 0 -26 -4 -29 -10 -3 -5 -15 -10 -25 -10 -10 0 -31 -6 -47
-14 -15 -8 -48 -20 -73 -27 -25 -7 -54 -18 -65 -25 -11 -6 -38 -17 -60 -24
-22 -7 -44 -16 -50 -20 -5 -4 -35 -15 -65 -26 -30 -10 -62 -23 -70 -30 -8 -7
-34 -18 -58 -25 -23 -7 -47 -18 -53 -26 -6 -7 -17 -13 -23 -13 -6 0 -33 -11
-61 -24 -27 -14 -79 -39 -115 -56 -73 -36 -193 -99 -250 -132 -8 -5 -33 -18
-55 -29 -45 -22 -66 -34 -110 -64 -16 -11 -43 -27 -60 -35 -16 -8 -44 -25 -61
-37 -17 -13 -34 -23 -38 -23 -3 0 -34 -20 -68 -45 -34 -25 -66 -45 -70 -45 -4
0 -34 -20 -67 -45 -32 -25 -62 -45 -66 -45 -4 0 -41 -26 -82 -57 -41 -32 -84
-63 -95 -69 -32 -19 -220 -171 -355 -288 -125 -109 -369 -346 -499 -486 -143
-154 -377 -434 -407 -487 -7 -12 -37 -55 -67 -95 -30 -40 -59 -80 -65 -89 -5
-9 -45 -68 -87 -132 -43 -63 -78 -118 -78 -121 0 -4 -16 -28 -35 -55 -19 -27
-41 -65 -50 -83 -8 -18 -31 -60 -51 -93 -51 -86 -99 -174 -165 -305 -49 -99
-79 -164 -154 -335 -7 -16 -24 -55 -38 -85 -13 -30 -37 -89 -52 -130 -14 -41
-38 -101 -51 -133 -13 -32 -24 -65 -24 -74 0 -8 -6 -27 -14 -41 -8 -15 -19
-47 -26 -72 -6 -25 -17 -58 -24 -75 -21 -49 -36 -100 -36 -123 0 -11 -4 -23
-9 -26 -5 -3 -16 -41 -26 -83 -9 -43 -23 -94 -30 -113 -17 -47 -35 -125 -35
-153 0 -12 -6 -31 -14 -42 -7 -11 -16 -41 -20 -67 -3 -27 -9 -69 -12 -95 -3
-27 -11 -54 -16 -61 -11 -13 -24 -94 -37 -232 -5 -47 -14 -118 -20 -158 -18
-106 -11 -1536 6 -1554 8 -7 13 -39 13 -80 0 -37 4 -87 10 -110 24 -111 32
-150 50 -250 10 -59 24 -116 29 -127 6 -11 11 -34 11 -50 0 -17 4 -39 9 -49
11 -21 46 -152 58 -217 3 -16 9 -34 13 -40 5 -5 16 -39 24 -75 9 -36 23 -81
30 -100 7 -19 19 -53 25 -75 7 -22 18 -56 25 -75 7 -19 19 -53 26 -75 7 -22
18 -53 25 -70 13 -33 27 -71 59 -160 12 -33 30 -74 39 -92 9 -18 17 -41 17
-52 0 -11 4 -22 9 -25 4 -3 16 -27 26 -53 9 -26 28 -73 42 -103 13 -30 30 -68
38 -85 108 -248 377 -792 433 -875 9 -14 25 -41 34 -60 31 -60 78 -143 109
-191 16 -25 29 -49 29 -54 0 -4 11 -23 25 -41 14 -18 25 -38 25 -44 0 -7 16
-34 35 -60 19 -26 35 -52 35 -57 0 -5 18 -35 40 -67 22 -31 40 -60 40 -65 0
-4 18 -33 40 -65 22 -31 40 -59 40 -61 0 -3 19 -34 43 -69 23 -35 56 -86 72
-113 58 -93 71 -113 178 -270 93 -136 157 -229 307 -441 16 -24 30 -47 30 -53
0 -5 4 -9 8 -9 9 0 80 -92 99 -128 6 -12 30 -43 51 -70 22 -26 57 -72 77 -102
39 -55 106 -144 217 -284 35 -43 74 -95 87 -115 14 -20 57 -74 96 -121 39 -47
80 -98 91 -115 10 -16 36 -48 56 -70 21 -22 38 -42 38 -45 0 -3 18 -26 41 -50
23 -25 49 -58 59 -73 10 -16 67 -85 126 -154 60 -69 114 -135 121 -146 7 -12
43 -55 80 -97 38 -41 116 -131 173 -200 58 -69 132 -154 165 -190 101 -109
215 -238 215 -242 0 -5 25 -33 245 -273 66 -72 136 -149 154 -171 277 -315
1004 -1044 1044 -1044 4 0 31 -17 60 -38 29 -20 68 -45 87 -55 19 -9 42 -21
50 -25 35 -20 92 -50 142 -74 10 -4 26 -8 35 -8 10 0 27 -7 37 -15 11 -8 28
-15 38 -15 10 0 26 -4 36 -9 54 -28 293 -71 444 -79 117 -6 405 28 488 57 14
5 45 14 70 21 25 6 59 18 75 25 17 8 48 19 70 26 22 6 47 15 55 20 8 5 57 30
108 56 50 26 92 50 92 55 0 4 5 8 11 8 20 0 150 102 259 201 58 54 202 195
320 315 306 311 312 317 445 464 200 222 235 260 350 383 60 65 112 124 114
130 2 7 18 26 35 43 17 17 56 60 86 95 30 34 84 95 120 134 36 38 81 90 100
115 19 25 88 106 154 180 65 74 130 151 144 170 15 19 56 69 92 110 85 98 120
139 150 180 32 42 200 243 210 250 4 3 9 11 11 18 2 7 39 57 82 110 222 278
257 322 257 328 0 3 33 47 73 97 39 51 77 100 82 109 6 9 37 52 70 96 84 110
158 212 170 231 20 32 60 87 96 131 20 25 39 52 42 61 3 9 26 44 51 77 25 33
46 63 46 67 0 4 23 38 50 75 28 37 50 70 50 74 0 3 23 37 50 75 27 38 50 72
50 75 0 3 19 33 43 66 23 33 65 96 92 141 28 44 64 102 80 128 50 79 54 85 77
125 13 21 28 46 33 55 6 9 41 68 79 131 37 63 84 140 102 172 19 31 34 59 34
62 0 3 16 30 35 60 19 30 35 58 35 62 0 4 11 22 25 40 14 18 25 39 25 46 0 7
11 31 24 53 14 22 34 58 45 80 11 22 25 47 30 55 5 8 58 113 117 233 59 120
110 220 114 222 4 3 13 25 20 50 7 24 19 50 26 56 8 6 14 18 14 25 0 8 4 22 9
32 29 56 61 133 61 145 0 8 7 20 15 27 8 7 15 21 15 31 0 10 9 35 21 55 11 20
27 57 35 83 9 25 24 64 35 86 10 22 22 55 25 73 4 18 10 35 15 38 5 2 13 24
20 47 6 23 19 60 29 82 9 22 23 58 29 80 7 22 18 56 26 75 7 19 25 76 40 125
14 50 37 124 50 166 14 42 25 87 25 100 0 13 7 37 15 53 8 15 15 39 15 52 0
12 5 26 10 29 6 3 10 27 10 53 0 26 7 60 15 76 8 15 15 46 15 67 0 21 5 41 10
44 6 3 10 27 10 52 0 25 6 59 14 76 8 18 17 59 20 92 18 209 27 289 35 299 35
45 35 1337 0 1382 -8 9 -13 55 -38 304 -3 36 -10 71 -14 78 -7 11 -17 71 -34
202 -3 25 -10 51 -15 57 -6 7 -14 39 -19 70 -14 95 -25 148 -34 163 -5 8 -12
32 -16 55 -4 22 -15 67 -24 100 -9 33 -18 71 -21 85 -3 14 -9 34 -14 45 -16
40 -39 111 -45 142 -3 18 -15 50 -26 72 -10 22 -19 48 -19 59 0 10 -4 22 -9
28 -4 5 -17 34 -27 64 -10 30 -23 62 -30 70 -7 8 -18 35 -25 60 -7 25 -18 52
-24 60 -6 8 -18 31 -25 50 -14 38 -57 136 -71 160 -5 8 -16 31 -25 50 -54 117
-187 375 -271 525 -59 105 -65 116 -100 172 -18 28 -33 54 -33 58 0 3 -18 33
-40 66 -22 33 -40 63 -40 67 0 3 -24 37 -52 76 -29 39 -57 79 -63 88 -20 34
-195 256 -264 335 -39 46 -71 87 -71 92 0 5 -4 11 -9 13 -5 2 -26 23 -46 48
-114 137 -453 475 -616 613 -156 132 -386 314 -458 362 -25 17 -74 52 -108 78
-33 26 -64 47 -68 47 -4 0 -29 16 -55 35 -26 19 -51 35 -54 35 -4 0 -30 17
-59 38 -29 20 -65 44 -82 52 -16 8 -37 20 -45 26 -8 7 -46 29 -85 49 -38 21
-75 42 -82 47 -25 20 -260 139 -443 225 -52 24 -108 51 -123 59 -16 8 -32 14
-37 14 -5 0 -38 14 -73 30 -36 17 -71 30 -77 30 -7 0 -29 9 -49 19 -20 10 -63
27 -96 36 -33 10 -64 21 -70 25 -5 4 -37 15 -70 25 -33 10 -67 22 -75 26 -8 4
-35 13 -60 19 -25 7 -54 16 -65 21 -19 9 -70 23 -235 65 -36 9 -94 24 -130 34
-36 10 -96 24 -135 30 -38 7 -101 20 -140 30 -60 16 -95 22 -215 35 -8 1 -24
5 -35 8 -18 6 -246 33 -490 57 -134 14 -609 19 -795 9z m680 -3384 c227 -20
328 -42 580 -126 287 -95 637 -274 839 -430 272 -210 504 -440 645 -639 183
-259 261 -399 397 -715 64 -147 138 -429 176 -670 22 -142 25 -652 5 -790 -64
-435 -187 -786 -401 -1145 -135 -227 -273 -401 -487 -611 -155 -152 -278 -253
-434 -356 -149 -99 -245 -154 -370 -214 -116 -56 -134 -64 -220 -97 -230 -90
-457 -148 -710 -183 -120 -17 -497 -22 -620 -9 -138 14 -322 46 -440 75 -30 8
-77 19 -105 26 -90 22 -337 107 -431 149 -227 102 -333 164 -539 317 -240 178
-425 358 -611 593 -144 182 -312 469 -394 670 -12 30 -26 64 -30 75 -72 176
-144 443 -174 645 -53 359 -47 629 21 1010 25 141 130 499 154 525 5 5 9 15 9
23 0 19 121 269 178 367 65 112 182 283 270 395 88 111 354 380 462 466 111
89 306 227 375 264 33 19 74 41 90 51 32 19 154 80 220 109 171 76 383 143
580 181 55 10 123 24 150 29 139 28 580 37 815 15z"/>
<path d="M20985 19131 c-6 -5 -39 -11 -75 -14 -110 -7 -264 -28 -275 -36 -5
-5 -37 -11 -70 -14 -62 -7 -197 -24 -227 -30 -10 -2 -21 -6 -24 -10 -4 -4 -22
-7 -39 -7 -38 0 -205 -25 -255 -39 -19 -5 -82 -14 -140 -21 -58 -6 -112 -15
-120 -19 -9 -5 -76 -16 -150 -26 -74 -9 -144 -21 -155 -26 -18 -8 -70 -15
-240 -36 -27 -3 -55 -9 -60 -14 -6 -4 -39 -11 -75 -14 -36 -4 -93 -13 -128
-21 -34 -8 -66 -13 -70 -12 -4 0 -14 -2 -22 -5 -8 -3 -60 -13 -115 -21 -55 -8
-163 -27 -240 -41 -77 -14 -194 -35 -260 -45 -66 -11 -129 -24 -140 -29 -11
-5 -69 -17 -130 -27 -60 -9 -114 -20 -120 -24 -5 -4 -57 -16 -115 -25 -58 -10
-110 -22 -116 -26 -6 -5 -49 -16 -95 -24 -46 -9 -93 -20 -104 -25 -11 -5 -56
-16 -100 -25 -44 -9 -89 -20 -100 -25 -11 -5 -51 -16 -90 -25 -38 -10 -84 -23
-100 -30 -17 -6 -53 -15 -80 -19 -28 -5 -55 -12 -61 -17 -5 -4 -35 -15 -65
-23 -30 -7 -65 -19 -79 -25 -14 -6 -50 -18 -80 -26 -62 -16 -192 -60 -218 -74
-9 -5 -37 -15 -62 -22 -25 -7 -61 -21 -80 -31 -19 -10 -41 -18 -48 -18 -37 0
-457 -193 -647 -298 -107 -59 -316 -195 -336 -218 -6 -8 -16 -14 -22 -14 -12
0 -118 -89 -207 -175 -210 -201 -330 -358 -429 -562 -35 -70 -67 -136 -72
-145 -5 -10 -9 -25 -9 -34 0 -9 -6 -30 -14 -47 -23 -51 -36 -98 -36 -126 0
-15 -6 -35 -14 -46 -14 -21 -19 -48 -35 -220 -13 -129 -18 -164 -26 -197 -4
-16 -4 -36 1 -45 4 -10 9 -34 10 -53 3 -44 22 -220 30 -280 4 -25 10 -49 14
-55 5 -5 16 -44 26 -85 9 -41 23 -82 31 -91 7 -8 13 -23 13 -32 0 -10 4 -25 9
-35 5 -9 25 -48 43 -87 85 -173 159 -287 266 -410 37 -43 72 -84 77 -93 22
-33 123 -137 176 -181 31 -25 97 -80 146 -121 49 -41 100 -82 113 -90 12 -8
51 -36 86 -62 35 -27 66 -48 70 -48 3 0 27 -15 53 -33 25 -19 72 -49 104 -68
32 -19 75 -44 95 -56 113 -67 380 -201 557 -279 33 -14 72 -32 87 -40 14 -8
31 -14 37 -14 6 0 35 -11 65 -25 30 -14 60 -25 65 -25 6 0 30 -9 54 -20 23
-11 67 -28 97 -39 30 -11 93 -34 140 -51 72 -27 142 -50 386 -130 17 -5 36
-10 43 -10 7 0 27 -6 44 -14 18 -8 63 -22 101 -31 38 -9 76 -21 85 -25 9 -5
50 -16 91 -26 41 -9 80 -20 85 -24 6 -4 24 -10 40 -13 87 -17 141 -30 150 -36
6 -4 44 -13 85 -20 41 -7 89 -18 105 -26 17 -7 64 -18 105 -25 41 -6 83 -16
92 -21 9 -4 45 -13 80 -19 35 -6 81 -15 103 -20 22 -6 94 -21 160 -35 66 -14
138 -29 160 -34 22 -5 117 -24 210 -41 94 -17 202 -37 240 -45 88 -18 278 -51
415 -71 58 -8 114 -19 125 -24 11 -5 83 -16 160 -25 77 -9 147 -20 155 -24 9
-5 76 -16 150 -26 74 -9 144 -21 155 -25 19 -8 131 -23 270 -37 33 -3 65 -9
70 -13 6 -4 80 -15 165 -24 85 -10 162 -22 171 -26 9 -5 78 -16 155 -25 76
-10 144 -21 149 -25 6 -5 42 -11 80 -15 39 -4 108 -13 155 -21 47 -9 137 -24
200 -35 63 -10 138 -23 165 -29 28 -6 86 -15 129 -20 44 -6 84 -14 90 -19 6
-5 34 -11 61 -14 117 -12 221 -28 240 -36 11 -6 38 -12 60 -15 137 -16 210
-28 219 -35 6 -5 56 -14 111 -21 55 -6 109 -16 119 -22 18 -9 62 -17 196 -35
25 -3 50 -9 56 -14 9 -8 53 -16 194 -35 25 -4 50 -10 55 -14 10 -8 105 -26
195 -37 25 -3 50 -9 55 -14 10 -7 82 -22 180 -36 22 -3 45 -9 50 -13 6 -5 33
-11 60 -15 28 -4 84 -16 125 -28 41 -11 98 -23 125 -28 50 -7 139 -28 310 -73
50 -13 110 -27 135 -31 24 -3 49 -10 55 -14 5 -5 24 -11 40 -14 17 -3 53 -10
81 -16 29 -5 60 -14 70 -19 22 -11 107 -32 130 -32 9 0 30 -6 47 -14 18 -8 46
-17 62 -21 80 -17 102 -22 120 -32 11 -6 49 -18 85 -26 36 -9 79 -20 95 -26
17 -5 50 -15 75 -22 25 -6 59 -17 75 -25 17 -7 53 -18 80 -25 28 -7 55 -16 60
-20 6 -4 39 -15 74 -24 36 -9 74 -23 85 -31 11 -8 29 -14 39 -14 10 0 47 -13
82 -30 35 -16 70 -30 78 -30 7 0 17 -4 22 -9 6 -5 35 -16 65 -26 30 -9 75 -26
100 -37 25 -12 59 -26 75 -33 17 -7 55 -25 86 -39 31 -14 59 -26 62 -26 18 0
326 -151 470 -232 114 -63 128 -71 174 -101 24 -15 45 -27 48 -27 3 0 36 -23
75 -50 39 -28 73 -50 76 -50 3 0 39 -26 81 -57 42 -32 92 -69 112 -82 109 -72
328 -288 478 -471 48 -58 139 -200 182 -284 22 -43 44 -83 49 -90 5 -6 14 -31
22 -56 7 -25 18 -54 24 -65 18 -34 36 -89 36 -110 0 -12 5 -26 12 -33 11 -11
25 -69 34 -147 3 -22 11 -51 17 -64 18 -35 17 -665 0 -682 -7 -7 -13 -25 -13
-40 0 -15 -5 -31 -10 -34 -5 -3 -10 -17 -10 -29 0 -13 -6 -29 -14 -35 -7 -6
-19 -32 -26 -56 -7 -25 -16 -48 -21 -51 -5 -3 -17 -24 -28 -47 -23 -48 -39
-73 -63 -101 -10 -11 -21 -29 -24 -40 -4 -12 -10 -23 -13 -26 -4 -3 -22 -25
-40 -49 -51 -64 -98 -117 -181 -202 -77 -79 -281 -256 -328 -287 -15 -9 -59
-40 -99 -69 -40 -29 -74 -53 -77 -53 -2 0 -44 -26 -93 -58 -128 -83 -119 -78
-308 -182 -99 -55 -365 -188 -466 -234 -35 -16 -93 -42 -129 -59 -36 -16 -78
-35 -95 -42 -16 -7 -48 -21 -70 -31 -61 -27 -108 -44 -126 -44 -9 0 -22 -6
-28 -14 -7 -8 -35 -21 -64 -31 -29 -9 -71 -25 -94 -36 -24 -10 -46 -19 -49
-19 -3 0 -20 -6 -37 -13 -64 -28 -246 -94 -422 -154 -38 -13 -83 -30 -100 -37
-16 -8 -55 -19 -85 -26 -30 -7 -60 -16 -65 -21 -15 -11 -97 -39 -117 -39 -9 0
-29 -6 -45 -14 -15 -8 -48 -20 -73 -26 -25 -7 -54 -16 -65 -21 -11 -4 -51 -17
-90 -28 -38 -11 -83 -24 -100 -30 -16 -5 -50 -15 -75 -21 -25 -7 -53 -16 -62
-21 -9 -5 -49 -16 -88 -25 -39 -9 -83 -22 -98 -30 -15 -8 -37 -14 -50 -14 -13
0 -31 -4 -41 -9 -10 -6 -28 -11 -42 -13 -13 -2 -28 -6 -34 -10 -5 -3 -30 -9
-55 -13 -25 -4 -56 -13 -70 -20 -14 -6 -47 -17 -75 -24 -27 -6 -72 -18 -100
-26 -27 -7 -70 -18 -95 -25 -25 -6 -58 -16 -75 -22 -16 -5 -70 -19 -120 -30
-49 -10 -94 -23 -100 -27 -5 -4 -44 -14 -85 -21 -41 -7 -79 -17 -85 -21 -9 -7
-76 -23 -150 -35 -16 -3 -44 -12 -62 -20 -17 -8 -40 -14 -52 -14 -25 0 -108
-19 -136 -31 -22 -10 -97 -26 -160 -35 -22 -3 -53 -12 -70 -19 -16 -7 -64 -19
-105 -25 -41 -6 -84 -17 -95 -23 -19 -10 -37 -14 -155 -33 -25 -4 -49 -10 -55
-14 -5 -5 -28 -11 -50 -15 -22 -4 -76 -16 -120 -27 -44 -11 -103 -24 -132 -28
-28 -4 -66 -13 -85 -18 -57 -18 -127 -32 -154 -32 -14 0 -40 -6 -57 -14 -34
-15 -147 -36 -192 -36 -15 0 -41 -6 -58 -14 -18 -8 -50 -17 -72 -20 -112 -18
-158 -27 -173 -36 -9 -5 -66 -16 -127 -26 -60 -9 -114 -20 -120 -24 -5 -4 -30
-10 -55 -14 -141 -19 -185 -27 -194 -35 -10 -8 -47 -14 -161 -28 -27 -3 -54
-9 -60 -13 -5 -4 -62 -15 -125 -25 -63 -9 -125 -20 -138 -26 -12 -5 -73 -16
-135 -25 -62 -8 -121 -19 -132 -24 -11 -5 -76 -18 -145 -29 -201 -33 -351 -59
-368 -66 -8 -3 -65 -12 -125 -21 -61 -8 -135 -21 -166 -29 -31 -8 -101 -19
-156 -26 -55 -6 -104 -15 -110 -19 -5 -4 -73 -15 -150 -25 -77 -10 -144 -21
-150 -25 -5 -4 -37 -10 -70 -14 -33 -4 -98 -12 -144 -17 -47 -5 -90 -14 -95
-18 -10 -8 -74 -17 -261 -38 -27 -3 -54 -9 -60 -13 -8 -6 -174 -30 -300 -44
-12 -1 -26 -5 -32 -9 -6 -4 -55 -12 -109 -18 -55 -5 -144 -19 -199 -30 -55
-10 -116 -19 -136 -19 -20 0 -81 -9 -134 -20 -54 -11 -130 -23 -169 -26 -39
-3 -105 -12 -146 -19 -41 -7 -113 -19 -160 -25 -47 -6 -114 -16 -150 -22 -101
-16 -186 -27 -288 -38 -51 -5 -97 -12 -102 -15 -11 -7 -126 -23 -250 -35 -95
-9 -112 -12 -140 -23 -8 -3 -44 -8 -80 -11 -153 -14 -227 -23 -240 -31 -13 -8
-86 -17 -265 -31 -44 -4 -85 -11 -92 -16 -10 -8 -122 -21 -298 -35 -38 -3 -75
-9 -81 -14 -10 -8 -130 -22 -309 -36 -38 -3 -75 -9 -82 -15 -10 -8 -109 -20
-303 -35 -41 -3 -80 -9 -86 -14 -6 -5 -62 -14 -125 -19 -63 -6 -145 -15 -184
-20 -38 -5 -110 -14 -160 -20 -94 -11 -165 -20 -355 -44 -63 -8 -158 -20 -210
-26 -52 -5 -144 -17 -205 -25 -60 -8 -132 -15 -158 -15 -26 0 -78 -6 -115 -14
-37 -8 -125 -20 -197 -26 -71 -6 -155 -16 -185 -21 -58 -11 -145 -20 -348 -38
-68 -6 -131 -15 -140 -20 -9 -4 -53 -11 -97 -15 -199 -15 -294 -25 -340 -34
-58 -12 -252 -32 -312 -32 -23 0 -54 -5 -70 -11 -25 -9 -144 -21 -353 -36 -47
-3 -90 -9 -96 -14 -10 -8 -165 -24 -354 -36 -47 -3 -90 -10 -96 -15 -11 -8
-130 -20 -344 -35 -47 -3 -90 -9 -96 -14 -7 -5 -67 -14 -135 -19 -68 -6 -160
-14 -204 -19 -44 -5 -82 -7 -84 -5 -2 2 -10 -1 -16 -6 -7 -6 -66 -15 -131 -20
-66 -6 -166 -17 -224 -25 -58 -9 -159 -20 -224 -26 -66 -5 -123 -12 -128 -15
-9 -6 -129 -20 -297 -34 -63 -6 -119 -14 -125 -19 -6 -5 -42 -11 -81 -14 -125
-9 -270 -29 -279 -38 -6 -5 -26 -9 -45 -9 -46 0 -191 -28 -205 -39 -6 -5 -40
-16 -74 -24 -35 -9 -69 -20 -75 -25 -7 -5 -32 -15 -57 -22 -48 -15 -244 -112
-270 -134 -8 -7 -35 -24 -60 -38 -124 -71 -304 -262 -354 -377 -44 -99 -60
-300 -35 -437 19 -105 75 -243 125 -310 13 -17 24 -36 24 -42 0 -6 37 -48 83
-94 87 -88 229 -184 310 -212 26 -9 55 -20 64 -25 25 -12 80 -28 128 -36 22
-4 45 -11 50 -15 6 -5 73 -14 150 -21 108 -9 196 -9 404 0 146 7 271 17 277
22 10 8 157 21 394 35 47 3 94 9 105 14 18 9 104 17 380 37 44 3 85 9 90 13 6
5 48 11 95 14 47 4 119 11 160 16 172 21 446 53 569 65 30 3 58 8 62 11 4 2
61 9 126 14 65 5 165 17 223 25 58 8 157 19 221 25 63 5 122 11 130 14 23 8
254 36 299 36 22 0 73 6 113 14 40 8 126 19 192 26 66 6 149 16 185 21 97 15
203 27 315 35 55 4 105 11 112 16 12 9 108 21 288 35 44 3 85 10 91 14 10 8
119 21 314 36 41 3 80 9 86 14 10 8 134 23 304 36 41 3 80 10 87 15 10 8 78
16 298 35 39 3 75 9 81 14 10 8 84 17 309 36 39 3 75 10 81 15 7 4 43 11 80
14 68 5 247 29 579 79 94 14 193 25 220 25 28 0 66 5 85 11 40 12 120 24 265
39 55 6 104 15 110 19 5 5 39 11 75 14 147 13 254 28 264 36 6 4 45 11 86 15
175 15 240 24 252 33 7 6 42 13 78 16 129 12 255 29 265 37 5 4 38 10 73 14
34 3 90 9 125 12 34 4 67 10 72 14 9 8 136 26 250 37 28 3 55 9 60 13 9 8 122
24 255 37 30 3 60 10 66 15 11 8 78 18 234 35 30 3 60 9 65 13 6 5 53 13 105
20 52 6 114 16 138 22 23 6 46 8 49 4 3 -3 11 -2 17 4 7 5 51 14 99 20 48 6
97 14 110 19 12 4 60 14 107 21 47 7 108 16 135 22 28 5 104 18 170 29 66 11
127 23 135 26 18 7 25 9 160 28 58 9 114 20 125 25 11 4 72 16 135 25 63 9
125 21 138 26 13 5 73 16 134 25 60 8 117 19 126 24 10 5 64 17 122 25 127 20
123 19 135 27 6 3 46 11 90 18 44 6 112 20 151 31 38 10 81 19 93 19 13 0 61
9 108 20 46 12 116 27 156 34 127 24 270 54 332 71 33 8 90 20 128 25 37 6 75
14 85 19 9 5 51 15 92 21 41 7 82 15 90 18 8 3 17 6 20 7 3 1 12 4 20 7 8 3
53 11 100 18 47 7 96 18 110 25 14 7 59 19 100 25 41 6 82 15 90 20 9 4 56 15
105 24 50 10 97 21 106 26 9 5 34 12 55 15 94 15 151 28 179 40 17 7 64 18
105 25 41 7 89 19 107 26 17 8 40 14 52 14 25 0 110 19 131 30 9 4 31 10 50
14 19 4 80 18 135 32 55 14 127 32 160 40 33 9 74 19 90 24 17 4 48 11 70 15
22 4 45 10 50 15 10 7 19 9 115 28 25 4 51 12 58 16 15 9 118 36 138 36 9 0
30 6 47 14 18 7 59 19 92 26 33 6 74 18 90 25 17 7 62 19 100 26 39 7 79 19
90 26 11 7 34 13 52 13 17 0 35 5 38 10 3 6 19 10 34 10 15 0 31 4 37 9 5 4
43 16 84 26 41 9 84 22 95 28 18 10 40 15 120 32 17 4 44 13 62 21 17 8 39 14
49 14 20 0 72 16 121 37 17 7 37 13 44 13 12 0 64 15 104 30 46 18 222 70 236
70 8 0 24 7 35 15 10 8 28 15 38 15 23 0 79 17 121 36 17 7 56 20 88 28 31 8
62 18 67 21 6 4 39 15 73 25 83 25 325 108 362 125 17 7 53 20 80 28 77 23
178 58 198 68 9 5 39 16 65 25 26 8 61 22 79 30 17 8 35 14 40 14 8 0 144 51
198 75 17 8 41 17 55 20 14 4 49 18 78 31 29 13 58 24 65 24 7 0 21 6 32 13
11 7 38 19 60 26 22 7 64 24 93 37 29 13 58 24 65 24 7 0 21 6 32 14 11 7 31
17 45 21 14 4 53 21 88 36 34 16 65 29 69 29 3 0 24 9 47 19 96 46 177 81 183
81 3 0 29 11 57 25 142 68 246 115 253 115 5 0 25 11 45 25 20 14 46 25 56 25
11 0 25 6 31 13 6 8 29 20 51 27 22 7 45 19 51 27 6 7 17 13 24 13 16 0 73 29
80 41 4 5 13 9 22 9 9 0 30 10 47 23 17 13 47 29 66 37 19 7 40 17 45 21 6 4
35 21 65 37 30 16 71 38 90 49 19 11 62 35 95 53 33 18 76 44 95 57 19 12 38
23 42 23 8 0 80 44 178 110 30 20 62 39 70 42 29 11 182 114 390 263 307 220
599 481 830 740 97 110 110 125 110 131 0 4 15 26 34 49 61 74 106 135 106
143 0 5 12 24 26 43 14 19 30 44 35 57 5 12 13 22 19 22 5 0 10 7 10 17 0 9
11 31 25 49 14 18 25 38 25 44 0 6 11 28 25 50 14 22 25 44 25 49 0 5 9 26 20
48 10 21 28 61 40 88 11 28 25 58 30 67 6 10 10 26 10 37 0 10 6 24 13 30 8 6
19 37 26 68 7 32 18 69 23 83 14 31 24 79 45 205 21 125 23 665 4 785 -39 233
-39 234 -73 365 -21 79 -91 281 -114 329 -13 28 -24 58 -24 67 0 10 -4 21 -10
24 -5 3 -17 23 -26 43 -8 20 -20 44 -25 52 -5 8 -18 33 -29 55 -11 22 -32 58
-46 80 -13 22 -30 51 -36 65 -7 14 -27 44 -45 67 -18 23 -33 45 -33 50 0 4
-23 37 -51 73 -27 36 -74 97 -104 136 -66 87 -283 313 -397 411 -107 93 -309
257 -328 266 -8 4 -33 21 -55 37 -63 48 -231 160 -239 160 -4 0 -31 18 -60 39
-29 22 -68 47 -87 55 -19 9 -50 26 -69 37 -52 33 -147 84 -220 120 -36 18 -79
43 -97 55 -17 13 -35 24 -40 24 -4 0 -35 13 -68 29 -33 16 -107 51 -165 79
-58 28 -117 54 -132 57 -15 4 -32 13 -39 21 -6 8 -21 14 -33 14 -11 0 -32 9
-46 20 -14 11 -30 20 -36 20 -6 0 -33 9 -60 21 -27 11 -58 24 -69 28 -11 5
-40 18 -65 29 -25 11 -63 25 -85 31 -22 6 -58 20 -80 31 -21 11 -46 20 -55 20
-9 0 -25 7 -36 15 -10 8 -29 15 -41 15 -12 0 -25 5 -28 10 -3 6 -16 10 -28 10
-13 0 -31 6 -42 13 -11 7 -49 22 -85 32 -36 10 -69 22 -75 25 -5 4 -39 15 -75
25 -36 9 -69 20 -75 25 -5 4 -32 13 -60 20 -27 7 -56 18 -64 24 -8 6 -15 10
-15 8 -1 -2 -8 -1 -16 1 -8 3 -35 10 -60 17 -25 7 -54 16 -65 20 -25 11 -191
58 -265 76 -30 7 -64 18 -75 23 -11 5 -49 16 -85 25 -36 9 -114 29 -175 45
-60 16 -139 37 -175 46 -36 8 -87 22 -115 29 -27 8 -81 20 -120 27 -38 7 -74
16 -80 20 -5 4 -53 15 -105 24 -52 9 -103 20 -112 25 -15 9 -87 23 -183 37
-22 3 -44 9 -50 13 -5 4 -57 15 -115 25 -58 9 -114 22 -125 28 -19 10 -38 14
-175 32 -30 4 -60 12 -66 16 -6 5 -44 13 -85 19 -40 6 -110 19 -155 30 -45 11
-93 20 -106 20 -14 0 -74 11 -134 24 -60 13 -134 27 -164 30 -30 4 -59 11 -65
15 -5 5 -35 11 -65 15 -49 5 -107 15 -280 46 -30 6 -90 15 -134 20 -43 5 -83
13 -90 18 -6 5 -31 12 -56 15 -163 20 -217 28 -235 37 -11 5 -42 11 -70 14
-143 13 -241 29 -251 39 -4 4 -24 7 -45 7 -45 0 -164 17 -229 32 -25 5 -79 14
-120 19 -146 18 -205 27 -230 33 -27 7 -143 22 -255 32 -38 4 -75 10 -81 15
-5 5 -59 13 -120 20 -140 15 -210 23 -309 38 -44 7 -118 17 -165 22 -47 6
-115 17 -152 25 -37 8 -84 14 -105 14 -21 0 -92 9 -158 21 -66 11 -156 24
-200 30 -44 5 -120 16 -170 24 -49 9 -128 20 -174 25 -46 6 -89 14 -95 19 -6
5 -33 11 -61 14 -137 14 -229 28 -239 36 -6 4 -38 11 -71 15 -139 14 -206 24
-218 33 -6 6 -37 13 -67 16 -103 12 -193 27 -204 36 -6 4 -36 11 -66 15 -86
10 -156 24 -176 34 -11 6 -59 16 -109 23 -49 7 -95 16 -100 20 -6 4 -40 13
-75 18 -36 6 -90 18 -120 26 -30 9 -77 20 -104 25 -27 5 -81 18 -120 29 -39
11 -116 31 -171 46 -55 15 -125 35 -155 45 -30 10 -73 21 -95 25 -22 4 -51 13
-65 20 -14 7 -52 21 -85 30 -33 9 -69 20 -80 25 -11 4 -47 16 -80 25 -33 10
-64 21 -70 25 -5 4 -37 15 -70 25 -33 10 -65 21 -70 26 -6 4 -33 15 -60 24
-72 23 -146 57 -385 174 -91 45 -186 94 -212 109 -117 68 -159 95 -222 142
-37 27 -69 50 -72 50 -14 0 -197 166 -251 227 -63 71 -153 202 -153 222 0 6
-11 28 -23 49 -110 174 -138 663 -52 887 52 134 120 252 211 365 82 102 243
252 344 320 178 120 258 170 271 170 5 0 25 11 43 25 18 14 39 25 46 25 7 0
21 6 29 13 9 8 32 20 51 27 19 8 52 24 72 37 21 13 46 23 57 23 10 0 24 7 31
15 7 8 17 15 22 15 6 0 32 11 60 25 27 14 55 25 62 25 7 0 35 11 62 25 27 14
56 25 65 25 10 0 37 11 60 25 24 14 52 25 61 25 16 0 66 19 110 41 10 5 28 9
42 9 13 0 29 7 36 15 7 8 25 15 41 15 15 0 31 5 34 10 3 6 19 10 34 10 16 0
34 6 40 14 6 7 28 16 49 20 95 16 108 19 122 31 8 7 29 15 45 18 69 13 111 24
130 34 11 6 47 17 80 23 33 6 68 16 77 21 10 5 55 16 100 25 46 9 97 22 113
28 17 7 64 19 105 26 41 7 80 17 85 21 10 7 138 37 190 44 11 1 33 7 48 14 16
6 36 11 45 11 9 0 61 11 117 24 157 38 326 75 375 82 24 3 51 10 60 14 8 5 62
16 120 25 58 10 110 21 115 25 6 4 33 10 60 13 70 7 166 26 190 36 11 5 58 14
105 21 47 6 110 17 140 25 30 8 102 21 160 30 58 9 109 20 115 24 5 4 48 13
95 20 47 7 108 19 135 26 28 7 93 18 145 25 52 7 100 16 105 20 6 4 57 15 115
24 58 9 114 21 125 26 11 5 58 16 105 25 47 9 89 20 95 24 5 4 33 14 60 21 72
18 167 82 193 129 17 31 22 55 22 117 0 44 -5 96 -10 116 -14 47 -76 99 -150
124 -30 10 -59 22 -64 26 -13 11 -50 10 -61 -1z"/>
</g>
</svg>
