<svg width="71" height="71" viewBox="0 0 71 71" fill="none" xmlns="http://www.w3.org/2000/svg">
<path d="M52.9107 52.9094C62.651 43.169 62.651 27.3769 52.9107 17.6365C43.1704 7.89622 27.3782 7.89622 17.6379 17.6365C7.89755 27.3769 7.89755 43.169 17.6379 52.9094C27.3782 62.6497 43.1704 62.6497 52.9107 52.9094Z" fill="#FFD05D"/>
<path d="M48.3222 13.9858C50.8065 17.8629 52.2461 22.4743 52.2461 27.4193C52.2461 41.1922 41.0803 52.361 27.3044 52.361C22.5203 52.361 18.0523 51.0121 14.2572 48.6771C18.6901 55.5972 26.4471 60.1823 35.275 60.1823C49.0479 60.1823 60.2166 49.0165 60.2166 35.2407C60.2166 26.2489 55.4589 18.372 48.3252 13.9829L48.3222 13.9858Z" fill="#FDC453"/>
<path d="M13.7217 37.9036C13.7217 25.1138 24.0916 14.7468 36.8785 14.7468C44.3545 14.7468 50.9996 18.2902 55.2336 23.7883C51.2366 16.8448 43.74 12.1719 35.155 12.1719C22.3653 12.1719 11.9983 22.5389 11.9983 35.3286C11.9983 40.6423 13.789 45.5376 16.7999 49.4439C14.8424 46.0468 13.7217 42.1054 13.7217 37.9036Z" fill="#FFD77F"/>
<path d="M27.9218 29.2217C27.9218 30.9335 27.0996 32.3204 26.0843 32.3204C25.0689 32.3204 24.2467 30.9335 24.2467 29.2217C24.2467 27.51 25.0689 26.123 26.0843 26.123C27.0996 26.123 27.9218 27.51 27.9218 29.2217Z" fill="#303030"/>
<path d="M46.3004 29.2217C46.3004 30.9335 45.4781 32.3204 44.4628 32.3204C43.4475 32.3204 42.6252 30.9335 42.6252 29.2217C42.6252 27.51 43.4475 26.123 44.4628 26.123C45.4781 26.123 46.3004 27.51 46.3004 29.2217Z" fill="#303030"/>
<path d="M18.5146 37.6313C19.4656 46.0467 26.6022 52.5893 35.275 52.5893C43.9478 52.5893 51.0844 46.0467 52.0325 37.6313H18.5146Z" fill="#695342"/>
<path d="M23.6966 47.9835C26.7163 50.8364 30.7894 52.5891 35.2721 52.5891C39.7548 52.5891 43.4767 50.9857 46.4525 48.3464L46.2974 47.9835C35.0438 42.4943 23.8488 47.9074 23.6966 47.9835Z" fill="#F06669"/>
</svg>
