<svg width="22" height="22" viewBox="0 0 22 22" fill="none" xmlns="http://www.w3.org/2000/svg">
<path d="M15.8841 16.3986C16.1857 16.0282 16.7304 15.9723 17.1009 16.2739C17.9511 16.9661 18.5342 17.5881 18.9511 18.3053C19.4281 19.1257 19.6611 20.0437 19.6611 21.1351C19.6611 21.6127 19.2739 22 18.7963 22C18.3243 22 17.9406 21.6219 17.9316 21.1521L17.9314 21.1351C17.9314 19.7219 17.4662 18.851 16.2132 17.7853L16.133 17.7177C16.0924 17.6838 16.051 17.6497 16.0088 17.6153C15.6384 17.3137 15.5826 16.769 15.8841 16.3986Z" fill="#3E3E3E"/>
<path d="M4.89912 16.2739C5.26954 15.9723 5.81429 16.0282 6.11586 16.3986C6.41742 16.769 6.36161 17.3137 5.99119 17.6153C4.59794 18.7496 4.07899 19.6295 4.06875 21.0906L4.0686 21.1351C4.0686 21.6127 3.68138 22 3.20373 22C2.72608 22 2.33887 21.6127 2.33887 21.1351C2.33887 20.0434 2.5719 19.1254 3.04889 18.3051C3.44387 17.6258 3.98787 17.0319 4.76706 16.3827L4.85461 16.3103C4.86937 16.2982 4.8842 16.286 4.89912 16.2739Z" fill="#3E3E3E"/>
<path d="M18.7962 3.11853C19.2739 3.11853 19.6611 3.50574 19.6611 3.9834L19.6609 4.09305L19.6604 4.20054L19.6595 4.30592L19.6582 4.40926L19.6564 4.51061L19.6543 4.61002L19.6518 4.70757L19.6488 4.80331C19.6483 4.81912 19.6477 4.83485 19.6471 4.85052L19.6435 4.94365L19.6393 5.03511L19.6347 5.12498C19.6339 5.13982 19.6331 5.15461 19.6323 5.16932L19.6269 5.25689C19.626 5.27136 19.625 5.28577 19.6241 5.30012L19.6179 5.38552L19.6113 5.46956C19.6101 5.48345 19.609 5.49729 19.6078 5.51108L19.6003 5.59317L19.5923 5.67404C19.5909 5.68742 19.5895 5.70075 19.5881 5.71403L19.5792 5.79318C19.5762 5.81938 19.573 5.8454 19.5698 5.87126L19.5597 5.94832C19.5528 5.99936 19.5455 6.04977 19.5378 6.09963L19.5259 6.17399C19.5239 6.18632 19.5218 6.19862 19.5197 6.21088L19.5068 6.28411C19.4716 6.47842 19.4292 6.66537 19.3788 6.84999C19.1048 7.8532 18.595 8.6708 17.783 9.33185C17.4126 9.63342 16.8679 9.5776 16.5663 9.20718C16.2688 8.84177 16.3191 8.30671 16.6761 8.00281L16.691 7.99045C17.5435 7.29637 17.8562 6.44295 17.9189 4.73264L17.9228 4.61469L17.9259 4.49404C17.9264 4.4737 17.9268 4.45325 17.9272 4.43268L17.9293 4.30788C17.9296 4.28684 17.9298 4.26569 17.93 4.24442L17.9311 4.11536C17.9313 4.07186 17.9314 4.02787 17.9314 3.9834C17.9314 3.50574 18.3186 3.11853 18.7962 3.11853Z" fill="#3E3E3E"/>
<path d="M3.20373 3.11853C3.68138 3.11853 4.0686 3.50574 4.0686 3.9834L4.06868 4.04858L4.06932 4.1767C4.07044 4.32446 4.07292 4.46622 4.0769 4.60237L4.08068 4.7177C4.14167 6.38935 4.4475 7.19161 5.30902 7.893C5.67943 8.19456 5.73525 8.73931 5.43368 9.10973C5.13212 9.48015 4.58737 9.53596 4.21695 9.2344C3.40596 8.57415 2.89696 7.77987 2.62305 6.80825L2.61386 6.77533L2.59603 6.7093C2.59312 6.69827 2.59024 6.68724 2.58739 6.67619L2.57062 6.60973C2.55694 6.5542 2.54398 6.4983 2.53172 6.44187L2.51733 6.3739L2.5036 6.30536L2.49051 6.23622C2.48838 6.22464 2.48628 6.21303 2.4842 6.20139L2.47206 6.13122L2.46053 6.06028L2.4496 5.98853C2.44606 5.96447 2.44262 5.94027 2.43927 5.91591L2.42952 5.84237L2.42033 5.76784L2.41171 5.69226C2.41032 5.67958 2.40895 5.66685 2.4076 5.65407L2.3998 5.57683C2.39728 5.55089 2.39486 5.52476 2.39252 5.49841L2.38576 5.41875C2.38467 5.40537 2.38361 5.39193 2.38257 5.37844L2.37657 5.29682L2.37105 5.21381L2.36602 5.12937L2.36146 5.04344L2.35735 4.95596L2.35368 4.86686L2.35045 4.77611L2.34764 4.68364L2.34525 4.58938C2.34488 4.57352 2.34453 4.55759 2.3442 4.54157L2.3424 4.44455L2.34098 4.34561L2.33993 4.2447L2.33903 4.0895L2.33887 3.9834C2.33887 3.50574 2.72608 3.11853 3.20373 3.11853Z" fill="#3E3E3E"/>
<path d="M21.1351 11.7007C21.6128 11.7007 22 12.0879 22 12.5655C22 13.0375 21.6219 13.4212 21.1521 13.4302L21.1351 13.4304H17.237C16.7593 13.4304 16.3721 13.0432 16.3721 12.5655C16.3721 12.0936 16.7502 11.7099 17.22 11.7008L17.237 11.7007H21.1351Z" fill="#3E3E3E"/>
<path d="M4.76299 11.7007C5.24065 11.7007 5.62786 12.0879 5.62786 12.5655C5.62786 13.0375 5.24981 13.4212 4.78001 13.4302L4.76299 13.4304H0.864865C0.387213 13.4304 0 13.0432 0 12.5655C0 12.0936 0.378049 11.7099 0.847845 11.7008L0.864865 11.7007H4.76299Z" fill="#3E3E3E"/>
<path d="M11 7.0166C11.472 7.0166 11.8556 7.39465 11.8647 7.86445L11.8649 7.88147V20.3555C11.8649 20.8331 11.4776 21.2203 11 21.2203C10.528 21.2203 10.1444 20.8423 10.1353 20.3725L10.1351 20.3555V7.88147C10.1351 7.40381 10.5223 7.0166 11 7.0166Z" fill="#3E3E3E"/>
<path fill-rule="evenodd" clip-rule="evenodd" d="M10.8935 3.89524L11 3.89478C12.9675 3.89478 14.6408 4.27756 15.8789 5.08871C17.3198 6.03277 18.1019 7.51271 18.1019 9.4374V14.1186C18.1019 17.9829 14.9763 21.1563 11.1169 21.2195L11.0071 21.2204L10.883 21.2195C7.02844 21.1565 3.89813 17.9875 3.89813 14.1186V9.4374C3.89813 7.64674 4.67181 6.19451 6.06718 5.22305C7.30864 4.35874 8.99236 3.912 10.8935 3.89524ZM11 5.62451L10.9049 5.62492C9.33176 5.63881 7.98353 5.99653 7.05549 6.64263C6.12036 7.29367 5.62786 8.21811 5.62786 9.4374V14.1186C5.62786 17.0713 8.0473 19.4907 11 19.4907L11.0916 19.4899L11.1759 19.4878C14.0223 19.3951 16.3252 17.057 16.3714 14.206L16.3721 14.1186V9.4374C16.3721 8.09005 15.8789 7.15664 14.9309 6.53556C14.0132 5.93431 12.6589 5.62451 11 5.62451Z" fill="#3E3E3E"/>
<path d="M10.9898 0L11.0125 2.97194e-06C13.6333 0.00687352 15.7561 2.12972 15.763 4.75049C15.763 4.76258 15.7628 4.77466 15.7623 4.78674C15.7489 5.1275 15.6757 5.46325 15.5459 5.77863C15.3642 6.22035 14.8587 6.43111 14.417 6.24936C13.9808 6.06989 13.7698 5.57478 13.9397 5.13707L13.9463 5.12047C13.9951 5.00188 14.0241 4.87617 14.0324 4.74832L14.033 4.73551L14.0327 4.70505C14.0021 3.07574 12.6873 1.76086 11.0601 1.73026L11.0102 1.72973L10.992 1.72973C9.33971 1.73406 7.99817 3.05911 7.96726 4.70505L7.96697 4.73135L7.9677 4.74313C7.97816 4.88828 8.00932 5.0312 8.06024 5.16753L8.07234 5.19887C8.24927 5.64255 8.03303 6.14565 7.58935 6.32258C7.14568 6.4995 6.64258 6.28326 6.46565 5.83959C6.33286 5.5066 6.25597 5.15397 6.23808 4.79593C6.23732 4.7808 6.23696 4.76565 6.237 4.75049C6.2438 2.15593 8.32448 0.0493803 10.9112 0.00083938L10.9898 0Z" fill="#3E3E3E"/>
</svg>
